<svg width="62" height="62" viewBox="0 0 62 62" fill="none" xmlns="http://www.w3.org/2000/svg">
<path fill-rule="evenodd" clip-rule="evenodd" d="M30.6133 61.0909C47.4831 61.0909 61.1588 47.4152 61.1588 30.5454C61.1588 13.6757 47.4831 0 30.6133 0C13.7435 0 0.0678711 13.6757 0.0678711 30.5454C0.0678711 47.4152 13.7435 61.0909 30.6133 61.0909ZM36.1996 17.8519C40.9235 16.4939 44.9847 18.8263 46.3945 21.677C48.3724 25.6681 47.5518 30.1567 43.9641 35.0185C41.1445 38.8644 37.1044 42.6895 31.2652 47.1574C31.0804 47.2995 30.8526 47.3766 30.6182 47.3766C30.3838 47.3766 30.156 47.2995 29.9712 47.1574C24.1215 42.6792 20.0919 38.8229 17.2723 35.0185C13.6741 30.1567 12.8535 25.6681 14.8314 21.677C16.2412 18.8263 20.2918 16.5146 25.0263 17.8519C27.2836 18.4943 29.2531 19.872 30.6129 21.76C31.9728 19.872 33.9423 18.4943 36.1996 17.8519Z" fill="#F75192"/>
</svg>
