<svg width="90" height="89" viewBox="0 0 90 89" fill="none" xmlns="http://www.w3.org/2000/svg">
<g filter="url(#filter0_d_1144_1415)">
<circle cx="45" cy="36" r="36" fill="#F75192"/>
</g>
<path d="M65.409 44.4451L65.246 44.3164C64.98 44.1018 64.7054 43.8787 64.3964 43.6899C63.1608 42.9434 62.5343 41.9394 62.4657 40.6008C62.4571 40.4549 62.4314 40.309 62.4056 40.1631L61.8135 36.5934C61.3759 33.9418 60.9468 31.2989 60.4835 28.6473C59.4966 22.9409 56.2358 19.0022 50.804 16.9427C50.5466 16.8483 50.5466 16.8312 50.5466 16.608C50.538 15.3638 50.066 14.1968 49.2079 13.3301C48.367 12.472 47.2257 12 46.0158 12C46.0072 12 45.9986 12 45.99 12C43.4586 12.0172 41.4678 14.0337 41.4678 16.5995C41.4678 16.8312 41.4678 16.8483 41.176 16.9599C35.9244 18.9335 32.7237 22.6405 31.6596 27.9694C31.0246 31.153 30.5183 34.4052 30.0378 37.5545C29.8576 38.7129 29.6774 39.8628 29.4972 41.0212C29.3256 42.0767 28.8879 42.8061 28.1156 43.321C27.6437 43.6385 27.1031 44.016 26.6054 44.4708C26.2535 44.7969 25.8073 45.2431 25.507 45.7923C24.8033 47.0881 24.8376 48.6155 25.5756 49.8769C26.3393 51.1726 27.7037 51.9535 29.2312 51.9621C31.1447 51.9793 33.0583 51.9707 34.9633 51.9707H38.4987C38.8677 53.7126 39.7172 55.1628 41.0302 56.287C42.4632 57.5141 44.1451 58.1319 46.0329 58.1319C46.0501 58.1319 46.0672 58.1319 46.0844 58.1319C49.0277 58.1147 52.5545 56.1754 53.5156 51.9707H56.3817C58.5184 51.9707 60.6551 51.9793 62.7918 51.9621C64.6024 51.9535 66.1556 50.838 66.7562 49.1303C67.3569 47.4313 66.8249 45.5949 65.409 44.4451ZM45.8441 14.5314C47.1141 14.4628 48.0666 15.3638 48.0323 16.6166C46.6765 16.6166 45.355 16.6166 44.0335 16.6166C43.8791 15.6041 44.7629 14.5829 45.8441 14.5314ZM46.093 55.6005C43.6131 55.6176 41.4335 53.8843 41.0302 51.5588C44.351 51.5588 47.6719 51.5588 50.9928 51.5588C50.641 53.7899 48.47 55.5833 46.093 55.6005ZM64.0017 48.1607C63.77 48.8558 63.135 49.0102 62.6459 49.0102H50.1776H29.3513C28.5962 49.0102 28.1414 48.667 27.9869 47.9891C27.8754 47.4914 28.0298 47.0881 28.4846 46.7191C28.8279 46.4359 29.2054 46.1355 29.6002 45.8781C31.2306 44.8226 32.1402 43.2952 32.4748 41.0727C32.7923 38.9103 33.1613 36.7221 33.5217 34.6026C33.7706 33.1095 34.0194 31.6164 34.2597 30.1232C34.4999 28.6216 34.766 26.9225 35.5897 25.438C37.9152 21.2247 41.4335 19.0966 46.0415 19.0966C46.2217 19.0966 46.3933 19.0966 46.5735 19.1051C52.1169 19.2939 56.6306 23.3184 57.5659 28.879C58.0893 31.9853 58.5956 35.1003 59.1105 38.2152L59.6854 41.7335C59.9514 43.3295 60.7237 44.6081 61.9852 45.5435C62.4743 45.9039 62.9548 46.2728 63.4439 46.6418C64.0103 47.0623 64.1991 47.5686 64.0017 48.1607Z" fill="#FBFDFF"/>
<defs>
<filter id="filter0_d_1144_1415" x="0.906494" y="0" width="88.187" height="88.187" filterUnits="userSpaceOnUse" color-interpolation-filters="sRGB">
<feFlood flood-opacity="0" result="BackgroundImageFix"/>
<feColorMatrix in="SourceAlpha" type="matrix" values="0 0 0 0 0 0 0 0 0 0 0 0 0 0 0 0 0 0 127 0" result="hardAlpha"/>
<feOffset dy="8.09351"/>
<feGaussianBlur stdDeviation="4.04675"/>
<feComposite in2="hardAlpha" operator="out"/>
<feColorMatrix type="matrix" values="0 0 0 0 0.27451 0 0 0 0 0.717647 0 0 0 0 1 0 0 0 0.18 0"/>
<feBlend mode="normal" in2="BackgroundImageFix" result="effect1_dropShadow_1144_1415"/>
<feBlend mode="normal" in="SourceGraphic" in2="effect1_dropShadow_1144_1415" result="shape"/>
</filter>
</defs>
</svg>
