<svg width="182" height="184" viewBox="0 0 182 184" fill="none" xmlns="http://www.w3.org/2000/svg">
<g filter="url(#filter0_d_2421_3961)">
<g opacity="0.9">
<ellipse cx="90.9501" cy="81.1744" rx="64.2626" ry="65.4" fill="white"/>
<path d="M153.507 81.1744C153.507 116.38 125.471 144.868 90.9501 144.868C56.4292 144.868 28.3936 116.38 28.3936 81.1744C28.3936 45.9689 56.4292 17.4805 90.9501 17.4805C125.471 17.4805 153.507 45.9689 153.507 81.1744Z" stroke="url(#paint0_linear_2421_3961)" stroke-opacity="0.2" stroke-width="3.41217"/>
<path d="M75.2955 126.256C73.9886 126.256 72.8665 125.969 71.929 125.395C70.9972 124.821 70.2784 124.028 69.7727 123.017C69.2727 122 69.0227 120.83 69.0227 119.506C69.0227 118.176 69.2784 117.003 69.7898 115.986C70.3011 114.963 71.0227 114.168 71.9545 113.599C72.892 113.026 74 112.739 75.2784 112.739C76.3409 112.739 77.2813 112.935 78.0994 113.327C78.9233 113.713 79.5795 114.261 80.0682 114.972C80.5568 115.676 80.8352 116.5 80.9034 117.443H77.9545C77.8352 116.812 77.5511 116.287 77.1023 115.866C76.6591 115.44 76.0653 115.227 75.321 115.227C74.6903 115.227 74.1364 115.398 73.6591 115.739C73.1818 116.074 72.8097 116.557 72.5426 117.188C72.2813 117.818 72.1506 118.574 72.1506 119.455C72.1506 120.347 72.2813 121.114 72.5426 121.756C72.804 122.392 73.1705 122.884 73.642 123.23C74.1193 123.571 74.679 123.741 75.321 123.741C75.7756 123.741 76.1818 123.656 76.5398 123.486C76.9034 123.31 77.2074 123.057 77.4517 122.727C77.696 122.398 77.8636 121.997 77.9545 121.526H80.9034C80.8295 122.452 80.5568 123.273 80.0852 123.989C79.6136 124.699 78.9716 125.256 78.1591 125.659C77.3466 126.057 76.392 126.256 75.2955 126.256ZM88.4038 126.264C87.5743 126.264 86.8271 126.116 86.1624 125.821C85.5033 125.52 84.9805 125.077 84.5942 124.491C84.2135 123.906 84.0232 123.185 84.0232 122.327C84.0232 121.588 84.1595 120.977 84.4322 120.494C84.705 120.011 85.0771 119.625 85.5487 119.335C86.0203 119.045 86.5516 118.827 87.1425 118.679C87.7391 118.526 88.3555 118.415 88.9919 118.347C89.7589 118.267 90.3811 118.196 90.8584 118.134C91.3357 118.065 91.6822 117.963 91.8982 117.827C92.1197 117.685 92.2305 117.466 92.2305 117.17V117.119C92.2305 116.477 92.0402 115.98 91.6595 115.628C91.2788 115.276 90.7305 115.099 90.0146 115.099C89.2589 115.099 88.6595 115.264 88.2163 115.594C87.7788 115.923 87.4834 116.312 87.33 116.761L84.4493 116.352C84.6766 115.557 85.0516 114.892 85.5743 114.358C86.097 113.818 86.7362 113.415 87.4919 113.148C88.2476 112.875 89.0828 112.739 89.9976 112.739C90.6283 112.739 91.2561 112.812 91.8811 112.96C92.5061 113.108 93.0771 113.352 93.5942 113.693C94.1112 114.028 94.526 114.486 94.8385 115.065C95.1567 115.645 95.3158 116.369 95.3158 117.239V126H92.3499V124.202H92.2476C92.0601 124.565 91.7959 124.906 91.455 125.224C91.1197 125.537 90.6964 125.79 90.1851 125.983C89.6794 126.17 89.0857 126.264 88.4038 126.264ZM89.205 123.997C89.8243 123.997 90.3612 123.875 90.8158 123.631C91.2703 123.381 91.6197 123.051 91.8641 122.642C92.1141 122.233 92.2391 121.787 92.2391 121.304V119.761C92.1425 119.841 91.9777 119.915 91.7447 119.983C91.5175 120.051 91.2618 120.111 90.9777 120.162C90.6936 120.213 90.4124 120.259 90.1339 120.298C89.8555 120.338 89.6141 120.372 89.4095 120.401C88.9493 120.463 88.5374 120.565 88.1737 120.707C87.8101 120.849 87.5232 121.048 87.3129 121.304C87.1027 121.554 86.9976 121.878 86.9976 122.276C86.9976 122.844 87.205 123.273 87.6197 123.562C88.0345 123.852 88.5629 123.997 89.205 123.997ZM99.618 126V112.909H102.61V115.091H102.746C102.985 114.335 103.394 113.753 103.973 113.344C104.558 112.929 105.226 112.722 105.976 112.722C106.146 112.722 106.337 112.73 106.547 112.747C106.763 112.759 106.942 112.778 107.084 112.807V115.645C106.953 115.599 106.746 115.56 106.462 115.526C106.183 115.486 105.913 115.466 105.652 115.466C105.09 115.466 104.584 115.588 104.135 115.832C103.692 116.071 103.342 116.403 103.087 116.83C102.831 117.256 102.703 117.747 102.703 118.304V126H99.618ZM117.574 112.909V115.295H110.048V112.909H117.574ZM111.906 109.773H114.991V122.062C114.991 122.477 115.054 122.795 115.179 123.017C115.31 123.233 115.48 123.381 115.69 123.46C115.9 123.54 116.133 123.58 116.389 123.58C116.582 123.58 116.758 123.565 116.917 123.537C117.082 123.509 117.207 123.483 117.292 123.46L117.812 125.872C117.648 125.929 117.412 125.991 117.105 126.06C116.804 126.128 116.435 126.168 115.997 126.179C115.224 126.202 114.528 126.085 113.909 125.83C113.29 125.568 112.798 125.165 112.435 124.619C112.077 124.074 111.9 123.392 111.906 122.574V109.773Z" fill="#2E2E2E"/>
<g clip-path="url(#clip0_2421_3961)">
<path d="M120.767 52.8783C120.43 52.7878 120.061 52.8017 119.709 52.8017C101.984 52.7983 84.2581 52.7983 66.5325 52.7983C66.2437 52.7983 65.9585 52.7983 65.6627 52.7983C65.2418 51.4658 64.8069 50.182 64.4312 48.8809C63.7075 46.4003 60.8617 44.7304 58.6769 44.7687C57.16 44.7965 55.6431 44.8278 54.1298 44.7548C52.9121 44.6991 52.0667 45.127 51.5762 46.2438C51.5762 46.6021 51.5762 46.957 51.5762 47.3153C52.0702 48.4286 52.9156 48.8635 54.1298 48.8009C55.5318 48.7313 56.9373 48.7765 58.3429 48.787C59.5049 48.7939 60.1763 49.2914 60.5347 50.3769C61.3174 52.7496 62.1107 55.1188 62.883 57.4984C64.3859 62.136 65.8889 66.777 67.364 71.425C68.7104 75.6589 70.0185 79.9068 71.3509 84.1443C71.4901 84.5896 71.6849 84.3217 71.8519 84.7566C69.1383 85.9151 67.6945 89.7594 68.5294 92.5913C69.2948 95.1832 71.584 96.9158 74.2907 96.9471C75.1431 96.9575 75.9989 96.9471 76.8826 96.9471C76.1624 99.8416 76.7991 102.232 79.2031 103.884C81.3427 105.356 83.7223 105.446 85.9489 104.11C88.6312 102.496 89.3723 99.9912 88.6382 96.9923C91.5919 96.9923 94.5212 96.9923 97.4958 96.9923C96.6678 99.9112 97.5236 102.239 99.9485 103.898C102.353 105.544 104.885 105.38 107.195 103.759C109.533 102.117 110.066 99.7094 109.366 96.9471C110.219 96.9471 111.019 96.9575 111.819 96.9436C112.685 96.9297 113.301 96.4983 113.642 95.712C114.24 94.3239 113.217 92.9392 111.603 92.9392C99.4301 92.9392 87.257 92.9392 75.0839 92.9392C74.8613 92.9392 74.6386 92.9497 74.416 92.9323C73.3201 92.8488 72.4642 91.9686 72.4607 90.9353C72.4573 89.9021 73.3131 88.3191 74.409 88.2356C74.6317 88.2182 74.8543 88.2286 75.077 88.2286C86.2481 88.2286 97.4158 88.2321 108.587 88.2252C111.353 88.2252 113.698 86.503 114.442 83.9077C115.1 81.6115 115.726 80.0042 116.338 77.6942C117.789 72.2077 119.229 66.7144 120.666 61.2245C121.177 59.2693 121.685 57.3106 122.169 55.3484C122.433 54.2281 121.832 53.1636 120.767 52.8783ZM103.459 96.9505C104.513 96.9297 105.48 97.8794 105.491 98.944C105.498 100.002 104.544 100.962 103.483 100.958C102.325 100.955 101.385 100.089 101.351 98.9997C101.312 97.9003 102.269 96.9714 103.459 96.9505ZM82.7169 96.9505C83.7641 96.9262 84.7278 97.8621 84.7521 98.9232C84.7765 99.9703 83.8406 100.934 82.7795 100.958C81.7358 100.983 80.7687 100.043 80.7443 98.9858C80.7199 97.9386 81.6558 96.9749 82.7169 96.9505ZM71.4657 68.8679C70.9508 68.8714 70.7351 68.7148 70.5856 68.2312C69.5279 64.7696 68.446 61.3149 67.364 57.8637C67.2631 57.5367 67.1135 57.2271 66.9639 56.8618C71.6258 56.8618 76.2668 56.8618 80.967 56.8618C81.4645 60.8244 81.9585 64.787 82.4699 68.8574C81.7567 68.8574 81.0887 68.8574 80.4242 68.8574C77.4357 68.854 74.4507 68.84 71.4657 68.8679ZM75.9328 84.1651C74.7012 80.2199 73.4592 76.9357 72.1998 72.9035C75.811 72.9035 79.3631 72.9035 82.9744 72.9035C83.4753 76.9114 83.9694 80.1677 84.4669 84.1651C81.6349 84.1651 78.8169 84.1651 75.9328 84.1651ZM97.3845 84.1686C94.5143 84.1686 91.6267 84.1686 88.68 84.1686C88.1824 80.1991 87.6849 76.9288 87.184 72.9105C91.1327 72.9105 95.064 72.9105 99.0822 72.9105C98.5117 76.9149 97.9515 80.1712 97.3845 84.1686ZM99.5623 68.8192C95.2553 68.8192 90.99 68.8192 86.6726 68.8192C86.175 64.8357 85.6776 60.8696 85.1731 56.8339C90.4856 56.8339 95.7354 56.8339 101.058 56.8339C100.557 60.8383 100.06 64.8113 99.5623 68.8192ZM111.544 79.0858C111.196 80.3486 110.894 80.9262 110.577 82.1995C110.191 83.7407 109.582 84.2138 107.989 84.2173C106.117 84.2173 104.245 84.2173 102.377 84.2173C102.137 84.2173 101.897 84.2173 101.587 84.2173C102.151 80.1886 102.704 76.9322 103.271 72.9035C106.604 72.9035 109.892 72.9035 113.318 72.9035C112.713 74.984 112.111 77.0297 111.544 79.0858ZM114.244 68.8296C110.772 68.8296 107.3 68.8296 103.768 68.8296C104.269 64.8113 104.763 60.8592 105.264 56.8618C109.293 56.8618 113.315 56.8618 117.483 56.8618C116.401 60.8592 115.326 64.8322 114.244 68.8296Z" fill="#2E2E2E"/>
</g>
</g>
</g>
<defs>
<filter id="filter0_d_2421_3961" x="0.4" y="0.4" width="181.2" height="183.2" filterUnits="userSpaceOnUse" color-interpolation-filters="sRGB">
<feFlood flood-opacity="0" result="BackgroundImageFix"/>
<feColorMatrix in="SourceAlpha" type="matrix" values="0 0 0 0 0 0 0 0 0 0 0 0 0 0 0 0 0 0 127 0" result="hardAlpha"/>
<feOffset dy="11"/>
<feGaussianBlur stdDeviation="12.8"/>
<feComposite in2="hardAlpha" operator="out"/>
<feColorMatrix type="matrix" values="0 0 0 0 0 0 0 0 0 0 0 0 0 0 0 0 0 0 0.25 0"/>
<feBlend mode="normal" in2="BackgroundImageFix" result="effect1_dropShadow_2421_3961"/>
<feBlend mode="normal" in="SourceGraphic" in2="effect1_dropShadow_2421_3961" result="shape"/>
</filter>
<linearGradient id="paint0_linear_2421_3961" x1="90.9501" y1="15.7744" x2="90.9501" y2="146.574" gradientUnits="userSpaceOnUse">
<stop stop-color="#FBEDED"/>
<stop offset="1" stop-color="#F7E8F0"/>
</linearGradient>
<clipPath id="clip0_2421_3961">
<rect width="72" height="62" fill="white" transform="translate(51 44)"/>
</clipPath>
</defs>
</svg>
