<svg width="130" height="132" viewBox="0 0 130 132" fill="none" xmlns="http://www.w3.org/2000/svg">
<g opacity="0.9">
<ellipse cx="64.9501" cy="66.1744" rx="64.2626" ry="65.4" fill="white"/>
<path d="M127.507 66.1744C127.507 101.38 99.471 129.868 64.9501 129.868C30.4292 129.868 2.39359 101.38 2.39359 66.1744C2.39359 30.9689 30.4292 2.4805 64.9501 2.4805C99.471 2.4805 127.507 30.9689 127.507 66.1744Z" stroke="url(#paint0_linear_2421_3961)" stroke-opacity="0.2" stroke-width="3.41217"/>
<path d="M49.2955 111.256C47.9886 111.256 46.8665 110.969 45.929 110.395C44.9972 109.821 44.2784 109.028 43.7727 108.017C43.2727 107 43.0227 105.83 43.0227 104.506C43.0227 103.176 43.2784 102.003 43.7898 100.986C44.3011 99.9631 45.0227 99.1676 45.9545 98.5994C46.892 98.0256 48 97.7386 49.2784 97.7386C50.3409 97.7386 51.2813 97.9347 52.0994 98.3267C52.9233 98.7131 53.5795 99.2614 54.0682 99.9716C54.5568 100.676 54.8352 101.5 54.9034 102.443H51.9545C51.8352 101.812 51.5511 101.287 51.1023 100.866C50.6591 100.44 50.0653 100.227 49.321 100.227C48.6903 100.227 48.1364 100.398 47.6591 100.739C47.1818 101.074 46.8097 101.557 46.5426 102.188C46.2813 102.818 46.1506 103.574 46.1506 104.455C46.1506 105.347 46.2813 106.114 46.5426 106.756C46.804 107.392 47.1705 107.884 47.642 108.23C48.1193 108.571 48.679 108.741 49.321 108.741C49.7756 108.741 50.1818 108.656 50.5398 108.486C50.9034 108.31 51.2074 108.057 51.4517 107.727C51.696 107.398 51.8636 106.997 51.9545 106.526H54.9034C54.8295 107.452 54.5568 108.273 54.0852 108.989C53.6136 109.699 52.9716 110.256 52.1591 110.659C51.3466 111.057 50.392 111.256 49.2955 111.256ZM62.4038 111.264C61.5743 111.264 60.8271 111.116 60.1624 110.821C59.5033 110.52 58.9805 110.077 58.5942 109.491C58.2135 108.906 58.0232 108.185 58.0232 107.327C58.0232 106.588 58.1595 105.977 58.4322 105.494C58.705 105.011 59.0771 104.625 59.5487 104.335C60.0203 104.045 60.5516 103.827 61.1425 103.679C61.7391 103.526 62.3555 103.415 62.9919 103.347C63.7589 103.267 64.3811 103.196 64.8584 103.134C65.3357 103.065 65.6822 102.963 65.8982 102.827C66.1197 102.685 66.2305 102.466 66.2305 102.17V102.119C66.2305 101.477 66.0402 100.98 65.6595 100.628C65.2788 100.276 64.7305 100.099 64.0146 100.099C63.2589 100.099 62.6595 100.264 62.2163 100.594C61.7788 100.923 61.4834 101.312 61.33 101.761L58.4493 101.352C58.6766 100.557 59.0516 99.892 59.5743 99.358C60.097 98.8182 60.7362 98.4148 61.4919 98.1477C62.2476 97.875 63.0828 97.7386 63.9976 97.7386C64.6283 97.7386 65.2561 97.8125 65.8811 97.9602C66.5061 98.108 67.0771 98.3523 67.5942 98.6932C68.1112 99.0284 68.526 99.4858 68.8385 100.065C69.1567 100.645 69.3158 101.369 69.3158 102.239V111H66.3499V109.202H66.2476C66.0601 109.565 65.7959 109.906 65.455 110.224C65.1197 110.537 64.6964 110.79 64.1851 110.983C63.6794 111.17 63.0857 111.264 62.4038 111.264ZM63.205 108.997C63.8243 108.997 64.3612 108.875 64.8158 108.631C65.2703 108.381 65.6197 108.051 65.8641 107.642C66.1141 107.233 66.2391 106.787 66.2391 106.304V104.761C66.1425 104.841 65.9777 104.915 65.7447 104.983C65.5175 105.051 65.2618 105.111 64.9777 105.162C64.6936 105.213 64.4124 105.259 64.1339 105.298C63.8555 105.338 63.6141 105.372 63.4095 105.401C62.9493 105.463 62.5374 105.565 62.1737 105.707C61.8101 105.849 61.5232 106.048 61.3129 106.304C61.1027 106.554 60.9976 106.878 60.9976 107.276C60.9976 107.844 61.205 108.273 61.6197 108.562C62.0345 108.852 62.5629 108.997 63.205 108.997ZM73.618 111V97.9091H76.6095V100.091H76.7459C76.9845 99.3352 77.3936 98.7528 77.9732 98.3438C78.5584 97.929 79.226 97.7216 79.976 97.7216C80.1464 97.7216 80.3368 97.7301 80.547 97.7472C80.7629 97.7585 80.9419 97.7784 81.0839 97.8068V100.645C80.9533 100.599 80.7459 100.56 80.4618 100.526C80.1834 100.486 79.9135 100.466 79.6521 100.466C79.0896 100.466 78.5839 100.588 78.1351 100.832C77.6919 101.071 77.3425 101.403 77.0868 101.83C76.8311 102.256 76.7033 102.747 76.7033 103.304V111H73.618ZM91.5737 97.9091V100.295H84.0482V97.9091H91.5737ZM85.9061 94.7727H88.9913V107.062C88.9913 107.477 89.0538 107.795 89.1788 108.017C89.3095 108.233 89.48 108.381 89.6902 108.46C89.9004 108.54 90.1334 108.58 90.3891 108.58C90.5822 108.58 90.7584 108.565 90.9175 108.537C91.0822 108.509 91.2072 108.483 91.2925 108.46L91.8124 110.872C91.6476 110.929 91.4118 110.991 91.105 111.06C90.8038 111.128 90.4345 111.168 89.997 111.179C89.2243 111.202 88.5283 111.085 87.9089 110.83C87.2896 110.568 86.7982 110.165 86.4345 109.619C86.0766 109.074 85.9004 108.392 85.9061 107.574V94.7727Z" fill="#2E2E2E"/>
<g clip-path="url(#clip0_2421_3961)">
<path d="M94.767 37.8783C94.4295 37.7878 94.0607 37.8017 93.7094 37.8017C75.9837 37.7983 58.2581 37.7983 40.5325 37.7983C40.2437 37.7983 39.9585 37.7983 39.6627 37.7983C39.2418 36.4658 38.8069 35.182 38.4312 33.8809C37.7075 31.4003 34.8617 29.7304 32.6769 29.7687C31.16 29.7965 29.6431 29.8278 28.1298 29.7548C26.9121 29.6991 26.0667 30.127 25.5762 31.2438C25.5762 31.6021 25.5762 31.957 25.5762 32.3153C26.0702 33.4286 26.9156 33.8635 28.1298 33.8009C29.5318 33.7313 30.9373 33.7765 32.3429 33.787C33.5049 33.7939 34.1763 34.2914 34.5347 35.3769C35.3174 37.7496 36.1107 40.1188 36.883 42.4984C38.3859 47.136 39.8889 51.777 41.364 56.425C42.7104 60.6589 44.0185 64.9068 45.3509 69.1443C45.4901 69.5896 45.6849 69.3217 45.8519 69.7566C43.1383 70.9151 41.6945 74.7594 42.5294 77.5913C43.2948 80.1832 45.584 81.9158 48.2907 81.9471C49.1431 81.9575 49.9989 81.9471 50.8826 81.9471C50.1624 84.8416 50.7991 87.2317 53.2031 88.8842C55.3427 90.3559 57.7223 90.4463 59.9489 89.1104C62.6312 87.4961 63.3723 84.9912 62.6382 81.9923C65.5919 81.9923 68.5212 81.9923 71.4958 81.9923C70.6678 84.9112 71.5236 87.2387 73.9485 88.8982C76.3525 90.5437 78.8852 90.3802 81.1953 88.759C83.5332 87.1169 84.0655 84.7094 83.3662 81.9471C84.2186 81.9471 85.0188 81.9575 85.8189 81.9436C86.6852 81.9297 87.301 81.4983 87.6419 80.712C88.2403 79.3239 87.2175 77.9392 85.6032 77.9392C73.4301 77.9392 61.257 77.9392 49.0839 77.9392C48.8613 77.9392 48.6386 77.9497 48.416 77.9323C47.3201 77.8488 46.4642 76.9686 46.4607 75.9353C46.4573 74.9021 47.3131 73.3191 48.409 73.2356C48.6317 73.2182 48.8543 73.2286 49.077 73.2286C60.2481 73.2286 71.4158 73.2321 82.5869 73.2252C85.3527 73.2252 87.6976 71.503 88.4421 68.9077C89.0996 66.6115 89.7259 65.0042 90.3382 62.6942C91.7889 57.2077 93.2292 51.7144 94.6661 46.2245C95.1775 44.2693 95.6854 42.3106 96.169 40.3484C96.4334 39.2281 95.8316 38.1636 94.767 37.8783ZM77.4588 81.9505C78.513 81.9297 79.4801 82.8794 79.4906 83.944C79.4975 85.0017 78.5443 85.9619 77.4832 85.9584C76.3247 85.9549 75.3853 85.0886 75.3506 83.9997C75.3123 82.9003 76.269 81.9714 77.4588 81.9505ZM56.7169 81.9505C57.7641 81.9262 58.7278 82.8621 58.7521 83.9232C58.7765 84.9703 57.8406 85.934 56.7795 85.9584C55.7358 85.9827 54.7687 85.0434 54.7443 83.9858C54.7199 82.9386 55.6558 81.9749 56.7169 81.9505ZM45.4657 53.8679C44.9508 53.8714 44.7351 53.7148 44.5856 53.2312C43.5279 49.7696 42.446 46.3149 41.364 42.8637C41.2631 42.5367 41.1135 42.2271 40.9639 41.8618C45.6258 41.8618 50.2668 41.8618 54.967 41.8618C55.4645 45.8244 55.9585 49.787 56.4699 53.8574C55.7567 53.8574 55.0887 53.8574 54.4242 53.8574C51.4357 53.854 48.4507 53.84 45.4657 53.8679ZM49.9328 69.1651C48.7012 65.2199 47.4592 61.9357 46.1998 57.9035C49.811 57.9035 53.3631 57.9035 56.9744 57.9035C57.4753 61.9114 57.9694 65.1677 58.4669 69.1651C55.6349 69.1651 52.8169 69.1651 49.9328 69.1651ZM71.3845 69.1686C68.5143 69.1686 65.6267 69.1686 62.68 69.1686C62.1824 65.1991 61.6849 61.9288 61.184 57.9105C65.1327 57.9105 69.064 57.9105 73.0822 57.9105C72.5117 61.9149 71.9515 65.1712 71.3845 69.1686ZM73.5623 53.8192C69.2553 53.8192 64.99 53.8192 60.6726 53.8192C60.175 49.8357 59.6776 45.8696 59.1731 41.8339C64.4856 41.8339 69.7354 41.8339 75.0583 41.8339C74.5573 45.8383 74.0598 49.8113 73.5623 53.8192ZM85.5441 64.0858C85.1962 65.3486 84.8935 65.9262 84.5769 67.1995C84.1907 68.7407 83.5819 69.2138 81.9885 69.2173C80.1168 69.2173 78.2451 69.2173 76.3769 69.2173C76.1368 69.2173 75.8968 69.2173 75.5871 69.2173C76.1507 65.1886 76.7039 61.9322 77.271 57.9035C80.6039 57.9035 83.8915 57.9035 87.3184 57.9035C86.713 59.984 86.1112 62.0297 85.5441 64.0858ZM88.2438 53.8296C84.7717 53.8296 81.2997 53.8296 77.7685 53.8296C78.2695 49.8113 78.7635 45.8592 79.2645 41.8618C83.2932 41.8618 87.3149 41.8618 91.4828 41.8618C90.4008 45.8592 89.3258 49.8322 88.2438 53.8296Z" fill="#2E2E2E"/>
</g>
</g>
<defs>
<linearGradient id="paint0_linear_2421_3961" x1="64.9501" y1="0.774414" x2="64.9501" y2="131.574" gradientUnits="userSpaceOnUse">
<stop stop-color="#FBEDED"/>
<stop offset="1" stop-color="#F7E8F0"/>
</linearGradient>
<clipPath id="clip0_2421_3961">
<rect width="72" height="62" fill="white" transform="translate(25 29)"/>
</clipPath>
</defs>
</svg>
