<svg width="218" height="218" viewBox="0 0 218 218" fill="none" xmlns="http://www.w3.org/2000/svg">
<g opacity="0.9">
<ellipse cx="111.95" cy="117.174" rx="64.2626" ry="65.4" fill="url(#paint0_linear_2104_3143)"/>
<path d="M174.507 117.174C174.507 152.38 146.471 180.868 111.95 180.868C77.4292 180.868 49.3936 152.38 49.3936 117.174C49.3936 81.9689 77.4292 53.4805 111.95 53.4805C146.471 53.4805 174.507 81.9689 174.507 117.174Z" stroke="url(#paint1_linear_2104_3143)" stroke-opacity="0.2" stroke-width="3.41217"/>
<path d="M95.9479 163.246C94.6531 163.246 93.5383 162.952 92.6036 162.366C91.6746 161.774 90.9604 160.958 90.4611 159.919C89.9618 158.879 89.7121 157.689 89.7121 156.348C89.7121 154.989 89.9676 153.79 90.4785 152.751C90.9895 151.706 91.7094 150.89 92.6384 150.304C93.5674 149.717 94.6618 149.424 95.9217 149.424C96.9378 149.424 97.8436 149.613 98.639 149.99C99.4344 150.362 100.076 150.884 100.564 151.558C101.057 152.231 101.35 153.018 101.443 153.918H98.909C98.7696 153.291 98.4503 152.751 97.951 152.298C97.4575 151.845 96.7956 151.619 95.9653 151.619C95.2395 151.619 94.6038 151.81 94.058 152.194C93.518 152.571 93.0971 153.111 92.7952 153.814C92.4932 154.51 92.3423 155.335 92.3423 156.287C92.3423 157.262 92.4903 158.104 92.7864 158.813C93.0826 159.521 93.5006 160.07 94.0406 160.459C94.5863 160.848 95.2279 161.042 95.9653 161.042C96.4588 161.042 96.9059 160.952 97.3065 160.772C97.7129 160.586 98.0526 160.322 98.3255 159.98C98.6042 159.637 98.7987 159.225 98.909 158.743H101.443C101.35 159.608 101.069 160.38 100.599 161.06C100.128 161.739 99.4983 162.273 98.7087 162.662C97.9249 163.051 97.0046 163.246 95.9479 163.246ZM109.347 163.272C108.5 163.272 107.733 163.115 107.048 162.801C106.363 162.482 105.82 162.02 105.42 161.417C105.025 160.813 104.827 160.073 104.827 159.196C104.827 158.441 104.972 157.82 105.263 157.332C105.553 156.844 105.945 156.458 106.438 156.174C106.932 155.889 107.484 155.674 108.093 155.529C108.703 155.384 109.324 155.274 109.957 155.198C110.758 155.105 111.409 155.03 111.908 154.972C112.407 154.908 112.77 154.806 112.996 154.667C113.223 154.528 113.336 154.301 113.336 153.988V153.927C113.336 153.166 113.121 152.577 112.692 152.159C112.268 151.741 111.635 151.532 110.793 151.532C109.916 151.532 109.225 151.726 108.72 152.115C108.221 152.498 107.876 152.925 107.684 153.396L105.237 152.838C105.527 152.025 105.951 151.369 106.508 150.87C107.071 150.365 107.719 149.999 108.45 149.772C109.182 149.54 109.951 149.424 110.758 149.424C111.292 149.424 111.858 149.488 112.457 149.616C113.06 149.738 113.624 149.964 114.146 150.295C114.674 150.626 115.107 151.099 115.444 151.715C115.781 152.324 115.949 153.117 115.949 154.092V162.976H113.406V161.147H113.301C113.133 161.483 112.88 161.814 112.544 162.14C112.207 162.465 111.774 162.735 111.246 162.949C110.718 163.164 110.085 163.272 109.347 163.272ZM109.913 161.181C110.633 161.181 111.249 161.039 111.76 160.755C112.277 160.47 112.668 160.099 112.936 159.64C113.208 159.175 113.345 158.679 113.345 158.151V156.426C113.252 156.519 113.072 156.606 112.805 156.688C112.544 156.763 112.245 156.83 111.908 156.888C111.571 156.94 111.243 156.989 110.924 157.036C110.604 157.077 110.337 157.111 110.122 157.14C109.617 157.204 109.156 157.312 108.738 157.463C108.325 157.614 107.995 157.831 107.745 158.116C107.501 158.395 107.379 158.766 107.379 159.231C107.379 159.875 107.617 160.363 108.093 160.694C108.569 161.019 109.176 161.181 109.913 161.181ZM120.644 162.976V149.598H123.161V151.723H123.3C123.544 151.003 123.973 150.437 124.589 150.025C125.21 149.607 125.913 149.398 126.696 149.398C126.859 149.398 127.051 149.404 127.271 149.415C127.498 149.427 127.675 149.442 127.803 149.459V151.95C127.698 151.921 127.512 151.889 127.245 151.854C126.978 151.813 126.711 151.793 126.444 151.793C125.828 151.793 125.28 151.924 124.798 152.185C124.322 152.44 123.944 152.797 123.666 153.256C123.387 153.709 123.248 154.226 123.248 154.806V162.976H120.644ZM138.317 149.598V151.689H131.01V149.598H138.317ZM132.97 146.393H135.574V159.048C135.574 159.553 135.649 159.933 135.8 160.189C135.951 160.438 136.146 160.61 136.384 160.702C136.627 160.79 136.892 160.833 137.176 160.833C137.385 160.833 137.568 160.819 137.725 160.79C137.882 160.761 138.004 160.737 138.091 160.72L138.561 162.871C138.41 162.929 138.195 162.987 137.916 163.045C137.638 163.109 137.289 163.144 136.871 163.15C136.186 163.161 135.548 163.039 134.955 162.784C134.363 162.529 133.884 162.134 133.518 161.6C133.153 161.065 132.97 160.395 132.97 159.588V146.393Z" fill="url(#paint2_linear_2104_3143)"/>
<path d="M95.9479 163.246C94.6531 163.246 93.5383 162.952 92.6036 162.366C91.6746 161.774 90.9604 160.958 90.4611 159.919C89.9618 158.879 89.7121 157.689 89.7121 156.348C89.7121 154.989 89.9676 153.79 90.4785 152.751C90.9895 151.706 91.7094 150.89 92.6384 150.304C93.5674 149.717 94.6618 149.424 95.9217 149.424C96.9378 149.424 97.8436 149.613 98.639 149.99C99.4344 150.362 100.076 150.884 100.564 151.558C101.057 152.231 101.35 153.018 101.443 153.918H98.909C98.7696 153.291 98.4503 152.751 97.951 152.298C97.4575 151.845 96.7956 151.619 95.9653 151.619C95.2395 151.619 94.6038 151.81 94.058 152.194C93.518 152.571 93.0971 153.111 92.7952 153.814C92.4932 154.51 92.3423 155.335 92.3423 156.287C92.3423 157.262 92.4903 158.104 92.7864 158.813C93.0826 159.521 93.5006 160.07 94.0406 160.459C94.5863 160.848 95.2279 161.042 95.9653 161.042C96.4588 161.042 96.9059 160.952 97.3065 160.772C97.7129 160.586 98.0526 160.322 98.3255 159.98C98.6042 159.637 98.7987 159.225 98.909 158.743H101.443C101.35 159.608 101.069 160.38 100.599 161.06C100.128 161.739 99.4983 162.273 98.7087 162.662C97.9249 163.051 97.0046 163.246 95.9479 163.246ZM109.347 163.272C108.5 163.272 107.733 163.115 107.048 162.801C106.363 162.482 105.82 162.02 105.42 161.417C105.025 160.813 104.827 160.073 104.827 159.196C104.827 158.441 104.972 157.82 105.263 157.332C105.553 156.844 105.945 156.458 106.438 156.174C106.932 155.889 107.484 155.674 108.093 155.529C108.703 155.384 109.324 155.274 109.957 155.198C110.758 155.105 111.409 155.03 111.908 154.972C112.407 154.908 112.77 154.806 112.996 154.667C113.223 154.528 113.336 154.301 113.336 153.988V153.927C113.336 153.166 113.121 152.577 112.692 152.159C112.268 151.741 111.635 151.532 110.793 151.532C109.916 151.532 109.225 151.726 108.72 152.115C108.221 152.498 107.876 152.925 107.684 153.396L105.237 152.838C105.527 152.025 105.951 151.369 106.508 150.87C107.071 150.365 107.719 149.999 108.45 149.772C109.182 149.54 109.951 149.424 110.758 149.424C111.292 149.424 111.858 149.488 112.457 149.616C113.06 149.738 113.624 149.964 114.146 150.295C114.674 150.626 115.107 151.099 115.444 151.715C115.781 152.324 115.949 153.117 115.949 154.092V162.976H113.406V161.147H113.301C113.133 161.483 112.88 161.814 112.544 162.14C112.207 162.465 111.774 162.735 111.246 162.949C110.718 163.164 110.085 163.272 109.347 163.272ZM109.913 161.181C110.633 161.181 111.249 161.039 111.76 160.755C112.277 160.47 112.668 160.099 112.936 159.64C113.208 159.175 113.345 158.679 113.345 158.151V156.426C113.252 156.519 113.072 156.606 112.805 156.688C112.544 156.763 112.245 156.83 111.908 156.888C111.571 156.94 111.243 156.989 110.924 157.036C110.604 157.077 110.337 157.111 110.122 157.14C109.617 157.204 109.156 157.312 108.738 157.463C108.325 157.614 107.995 157.831 107.745 158.116C107.501 158.395 107.379 158.766 107.379 159.231C107.379 159.875 107.617 160.363 108.093 160.694C108.569 161.019 109.176 161.181 109.913 161.181ZM120.644 162.976V149.598H123.161V151.723H123.3C123.544 151.003 123.973 150.437 124.589 150.025C125.21 149.607 125.913 149.398 126.696 149.398C126.859 149.398 127.051 149.404 127.271 149.415C127.498 149.427 127.675 149.442 127.803 149.459V151.95C127.698 151.921 127.512 151.889 127.245 151.854C126.978 151.813 126.711 151.793 126.444 151.793C125.828 151.793 125.28 151.924 124.798 152.185C124.322 152.44 123.944 152.797 123.666 153.256C123.387 153.709 123.248 154.226 123.248 154.806V162.976H120.644ZM138.317 149.598V151.689H131.01V149.598H138.317ZM132.97 146.393H135.574V159.048C135.574 159.553 135.649 159.933 135.8 160.189C135.951 160.438 136.146 160.61 136.384 160.702C136.627 160.79 136.892 160.833 137.176 160.833C137.385 160.833 137.568 160.819 137.725 160.79C137.882 160.761 138.004 160.737 138.091 160.72L138.561 162.871C138.41 162.929 138.195 162.987 137.916 163.045C137.638 163.109 137.289 163.144 136.871 163.15C136.186 163.161 135.548 163.039 134.955 162.784C134.363 162.529 133.884 162.134 133.518 161.6C133.153 161.065 132.97 160.395 132.97 159.588V146.393Z" fill="white"/>
</g>
<path d="M141.767 91.8783C141.43 91.7878 141.061 91.8017 140.709 91.8017C122.984 91.7983 105.258 91.7983 87.5325 91.7983C87.2437 91.7983 86.9585 91.7983 86.6627 91.7983C86.2418 90.4658 85.8069 89.182 85.4312 87.8809C84.7075 85.4003 81.8617 83.7304 79.6769 83.7687C78.16 83.7965 76.6431 83.8278 75.1298 83.7548C73.9121 83.6991 73.0667 84.127 72.5762 85.2438C72.5762 85.6021 72.5762 85.957 72.5762 86.3153C73.0702 87.4286 73.9156 87.8635 75.1298 87.8009C76.5318 87.7313 77.9373 87.7765 79.3429 87.787C80.5049 87.7939 81.1763 88.2914 81.5347 89.3769C82.3174 91.7496 83.1107 94.1188 83.883 96.4984C85.3859 101.136 86.8889 105.777 88.364 110.425C89.7104 114.659 91.0185 118.907 92.3509 123.144C92.4901 123.59 92.6849 123.322 92.8519 123.757C90.1383 124.915 88.6945 128.759 89.5294 131.591C90.2948 134.183 92.584 135.916 95.2907 135.947C96.1431 135.958 96.9989 135.947 97.8826 135.947C97.1624 138.842 97.7991 141.232 100.203 142.884C102.343 144.356 104.722 144.446 106.949 143.11C109.631 141.496 110.372 138.991 109.638 135.992C112.592 135.992 115.521 135.992 118.496 135.992C117.668 138.911 118.524 141.239 120.949 142.898C123.353 144.544 125.885 144.38 128.195 142.759C130.533 141.117 131.066 138.709 130.366 135.947C131.219 135.947 132.019 135.958 132.819 135.944C133.685 135.93 134.301 135.498 134.642 134.712C135.24 133.324 134.217 131.939 132.603 131.939C120.43 131.939 108.257 131.939 96.0839 131.939C95.8613 131.939 95.6386 131.95 95.416 131.932C94.3201 131.849 93.4642 130.969 93.4607 129.935C93.4573 128.902 94.3131 127.319 95.409 127.236C95.6317 127.218 95.8543 127.229 96.077 127.229C107.248 127.229 118.416 127.232 129.587 127.225C132.353 127.225 134.698 125.503 135.442 122.908C136.1 120.612 136.726 119.004 137.338 116.694C138.789 111.208 140.229 105.714 141.666 100.224C142.178 98.2693 142.685 96.3106 143.169 94.3484C143.433 93.2281 142.832 92.1636 141.767 91.8783ZM124.459 135.951C125.513 135.93 126.48 136.879 126.491 137.944C126.498 139.002 125.544 139.962 124.483 139.958C123.325 139.955 122.385 139.089 122.351 138C122.312 136.9 123.269 135.971 124.459 135.951ZM103.717 135.951C104.764 135.926 105.728 136.862 105.752 137.923C105.776 138.97 104.841 139.934 103.78 139.958C102.736 139.983 101.769 139.043 101.744 137.986C101.72 136.939 102.656 135.975 103.717 135.951ZM92.4657 107.868C91.9508 107.871 91.7352 107.715 91.5856 107.231C90.5279 103.77 89.446 100.315 88.364 96.8637C88.2631 96.5367 88.1135 96.2271 87.9639 95.8618C92.6258 95.8618 97.2668 95.8618 101.967 95.8618C102.464 99.8244 102.958 103.787 103.47 107.857C102.757 107.857 102.089 107.857 101.424 107.857C98.4357 107.854 95.4507 107.84 92.4657 107.868ZM96.9328 123.165C95.7012 119.22 94.4592 115.936 93.1998 111.904C96.811 111.904 100.363 111.904 103.974 111.904C104.475 115.911 104.969 119.168 105.467 123.165C102.635 123.165 99.8169 123.165 96.9328 123.165ZM118.384 123.169C115.514 123.169 112.627 123.169 109.68 123.169C109.182 119.199 108.685 115.929 108.184 111.91C112.133 111.91 116.064 111.91 120.082 111.91C119.512 115.915 118.952 119.171 118.384 123.169ZM120.562 107.819C116.255 107.819 111.99 107.819 107.673 107.819C107.175 103.836 106.678 99.8696 106.173 95.8339C111.486 95.8339 116.735 95.8339 122.058 95.8339C121.557 99.8383 121.06 103.811 120.562 107.819ZM132.544 118.086C132.196 119.349 131.894 119.926 131.577 121.199C131.191 122.741 130.582 123.214 128.989 123.217C127.117 123.217 125.245 123.217 123.377 123.217C123.137 123.217 122.897 123.217 122.587 123.217C123.151 119.189 123.704 115.932 124.271 111.904C127.604 111.904 130.892 111.904 134.318 111.904C133.713 113.984 133.111 116.03 132.544 118.086ZM135.244 107.83C131.772 107.83 128.3 107.83 124.768 107.83C125.269 103.811 125.763 99.8592 126.264 95.8618C130.293 95.8618 134.315 95.8618 138.483 95.8618C137.401 99.8592 136.326 103.832 135.244 107.83Z" fill="white"/>
<path d="M149.077 84.203C149.202 84.2272 149.202 84.3864 149.081 84.4106L145.794 85.068C144.61 85.3033 143.69 86.5386 143.538 88.0887L143.202 91.5211C143.188 91.6491 142.981 91.6491 142.97 91.5211L142.635 88.0887C142.483 86.5351 141.562 85.3033 140.379 85.068L137.092 84.4106C136.967 84.3864 136.971 84.2272 137.095 84.203L140.348 83.6079C141.548 83.3864 142.486 82.1443 142.638 80.5734L142.974 77.096C142.988 76.968 143.195 76.968 143.206 77.096L143.541 80.5734C143.694 82.1443 144.631 83.3864 145.832 83.6079L149.077 84.203Z" fill="white" fill-opacity="0.8"/>
<path d="M78.5022 95.824C78.724 95.8671 78.724 96.1505 78.5084 96.1936L72.6562 97.364C70.5494 97.7829 68.9108 99.9821 68.6397 102.742L68.0422 108.853C68.0175 109.081 67.6479 109.081 67.6295 108.853L67.0319 102.742C66.7609 99.976 65.1223 97.7829 63.0155 97.364L57.1633 96.1936C56.9415 96.1505 56.9477 95.8671 57.1694 95.824L62.96 94.7644C65.0976 94.3702 66.767 92.1587 67.0381 89.3619L67.6356 83.1709C67.6603 82.943 68.0299 82.943 68.0483 83.1709L68.6459 89.3619C68.9169 92.1587 70.5863 94.3702 72.7239 94.7644L78.5022 95.824Z" fill="white"/>
<path d="M161.861 108.652C162.045 108.688 162.045 108.924 161.866 108.96L157.005 109.932C155.255 110.28 153.894 112.107 153.669 114.399L153.172 119.475C153.152 119.664 152.845 119.664 152.83 119.475L152.333 114.399C152.108 112.101 150.747 110.28 148.997 109.932L144.136 108.96C143.951 108.924 143.957 108.688 144.141 108.652L148.951 107.772C150.726 107.445 152.113 105.608 152.338 103.285L152.835 98.142C152.855 97.9527 153.162 97.9527 153.178 98.142L153.674 103.285C153.899 105.608 155.286 107.445 157.061 107.772L161.861 108.652Z" fill="white"/>
<defs>
<linearGradient id="paint0_linear_2104_3143" x1="99.1992" y1="189.733" x2="84.3008" y2="36.7671" gradientUnits="userSpaceOnUse">
<stop stop-color="#C49EF8"/>
<stop offset="1" stop-color="#7FD4FD"/>
</linearGradient>
<linearGradient id="paint1_linear_2104_3143" x1="111.95" y1="51.7744" x2="111.95" y2="182.574" gradientUnits="userSpaceOnUse">
<stop stop-color="#FBEDED"/>
<stop offset="1" stop-color="#F7E8F0"/>
</linearGradient>
<linearGradient id="paint2_linear_2104_3143" x1="116.494" y1="138.976" x2="116.494" y2="171.676" gradientUnits="userSpaceOnUse">
<stop stop-color="white"/>
<stop offset="1" stop-color="#F8E6EE"/>
</linearGradient>
</defs>
</svg>
