<svg width="61" height="65" viewBox="0 0 61 65" fill="none" xmlns="http://www.w3.org/2000/svg">
<path d="M60.8794 49.1382C57.5423 36.5755 48.1083 26.3109 34.5028 22.0908C29.5933 10.2384 19.3731 0.349861 4.6927 0.00167203C-0.473526 -0.123676 -0.473526 6.84011 4.6927 6.96546C14.239 7.1883 20.8492 12.8847 24.8442 20.2106C5.27029 18.6786 -3.39357 36.9655 1.21111 51.4641C3.40917 58.4139 9.36156 66.0602 18.7474 64.8763C28.1814 63.6925 34.8718 54.2774 36.7811 46.854C38.0486 41.9655 38.1127 36.4223 37.102 30.907C37.7437 31.2134 38.3855 31.5198 38.9791 31.8262C47.0012 35.9766 51.1085 43.2747 53.1462 50.9627C54.3013 55.3499 62.0346 53.4975 60.8794 49.1382ZM29.2724 43.1354C28.5504 48.6089 21.0578 62.829 12.8752 56.3248C8.62353 52.9404 7.62879 46.0741 8.06198 41.3805C8.49518 36.7426 10.4205 31.6591 14.961 28.8735C18.6993 26.5894 23.3521 26.6033 27.8605 27.6201C29.4328 32.9822 29.866 38.5393 29.2724 43.1354Z" fill="#72D0ED"/>
</svg>
