<svg width="71" height="71" viewBox="0 0 71 71" fill="none" xmlns="http://www.w3.org/2000/svg">
<path d="M36.8259 64.0773C35.6431 62.1314 34.4009 59.8944 33.1957 57.5108C43.0954 58.404 52.8575 55.8527 60.9594 48.6364C66.3963 43.7914 73.2877 32.9822 69.1972 24.5467C66.0848 18.1276 58.851 16.4099 52.4015 16.4946C53.5025 7.47787 48.8818 0.372932 38.0866 0.279426C29.0121 0.201459 20.6808 5.61614 17.4863 14.649C14.1826 23.9717 15.8307 34.9426 19.4661 45.4215C15.1721 43.4312 10.9853 40.7605 7.0377 37.5196C2.89574 34.1024 -1.50347 40.7142 2.65261 44.1253C9.01171 49.3553 16.2298 53.3541 23.6463 55.6076C25.9358 60.4833 28.4749 65.0827 30.9369 69.119C33.7629 73.7986 39.6524 68.7194 36.8259 64.0773ZM33.7194 9.28195C35.6453 8.649 37.9512 8.50313 40.0276 8.71811C46.727 9.40079 45.3928 14.2129 43.3278 19.5853C42.2593 22.3431 44.9094 25.9621 47.7328 25.4606C52.5911 24.5769 64.5382 23.61 61.9166 32.3377C60.4333 37.2705 57.0442 41.299 53.0408 43.9544C45.4802 48.9778 37.267 50.1841 29.1392 48.6131C26.5058 42.0974 24.4263 35.1171 23.8551 28.8226C23.0946 20.3549 25.7336 11.8992 33.7194 9.28195Z" fill="#EA71B7"/>
</svg>
