<svg width="103" height="107" viewBox="0 0 103 107" fill="none" xmlns="http://www.w3.org/2000/svg">
<path d="M92.1399 52.4208C89.4781 54.1993 86.4064 56.0641 83.1218 57.8699C83.4142 42.7415 78.8005 27.7693 67.6891 15.2628C60.2291 6.87014 44.1062 -3.84159 32.4645 2.28204C23.6056 6.94129 21.8707 17.9788 22.6324 27.8452C9.65498 26.0404 -0.033737 32.996 0.905027 49.5067C1.69506 63.3857 10.2562 76.2146 23.4748 81.2436C37.1181 86.444 52.6236 84.0963 67.2292 78.7011C64.8131 85.2378 61.4145 91.5997 57.1778 97.5867C52.7085 103.868 62.5888 110.702 67.0479 104.398C73.8861 94.7542 78.8805 83.7767 81.3622 72.4682C88.0986 69.0431 94.4155 65.2321 99.9359 61.5299C106.329 57.2595 98.511 48.1606 92.1399 52.4208ZM14.2083 56.297C13.113 53.3411 12.6756 49.8118 12.7764 46.6391C13.086 36.4026 20.0914 38.5194 27.9697 41.7628C32.0147 43.4408 36.9203 39.4443 35.9236 35.1179C34.1789 27.6727 31.6112 9.38339 44.3369 13.5311C51.5296 15.8778 57.62 21.1254 61.8103 27.2909C69.736 38.9347 72.2748 51.5165 70.8382 63.9238C61.7938 67.849 52.0306 70.9195 43.0971 71.6938C31.0787 72.7234 18.7397 68.5532 14.2083 56.297Z" fill="#F75192"/>
</svg>
