<svg width="103" height="107" viewBox="0 0 103 107" fill="none" xmlns="http://www.w3.org/2000/svg">
<path d="M92.1399 52.2538C89.4781 54.0323 86.4064 55.8971 83.1218 57.7029C83.4142 42.5745 78.8005 27.6023 67.6891 15.0958C60.2291 6.70314 44.1062 -4.00858 32.4645 2.11505C23.6056 6.7743 21.8707 17.8119 22.6324 27.6782C9.65498 25.8734 -0.033737 32.829 0.905027 49.3397C1.69506 63.2187 10.2562 76.0477 23.4748 81.0766C37.1181 86.277 52.6236 83.9293 67.2292 78.5342C64.8131 85.0708 61.4145 91.4327 57.1778 97.4197C52.7085 103.701 62.5888 110.535 67.0479 104.231C73.8861 94.5872 78.8805 83.6097 81.3622 72.3012C88.0986 68.8761 94.4155 65.0651 99.9359 61.3629C106.329 57.0925 98.511 47.9936 92.1399 52.2538ZM14.2083 56.13C13.113 53.1742 12.6756 49.6448 12.7764 46.4721C13.086 36.2356 20.0914 38.3524 27.9697 41.5958C32.0147 43.2738 36.9203 39.2773 35.9236 34.9509C34.1789 27.5057 31.6112 9.2164 44.3369 13.3641C51.5296 15.7108 57.62 20.9584 61.8103 27.1239C69.736 38.7677 72.2748 51.3495 70.8382 63.7569C61.7938 67.682 52.0306 70.7525 43.0971 71.5268C31.0787 72.5564 18.7397 68.3862 14.2083 56.13Z" fill="#FF455B"/>
</svg>
