<svg width="71" height="72" viewBox="0 0 71 72" fill="none" xmlns="http://www.w3.org/2000/svg">
<path d="M36.8259 64.2443C35.6431 62.2983 34.4009 60.0614 33.1957 57.6777C43.0954 58.571 52.8575 56.0197 60.9594 48.8034C66.3963 43.9584 73.2877 33.1492 69.1972 24.7137C66.0848 18.2946 58.851 16.5769 52.4015 16.6616C53.5025 7.64486 48.8818 0.539924 38.0866 0.446418C29.0121 0.368451 20.6808 5.78313 17.4863 14.816C14.1826 24.1387 15.8307 35.1096 19.4661 45.5885C15.1721 43.5982 10.9853 40.9275 7.0377 37.6866C2.89574 34.2694 -1.50347 40.8812 2.65261 44.2923C9.01171 49.5223 16.2298 53.5211 23.6463 55.7745C25.9358 60.6503 28.4749 65.2497 30.9369 69.286C33.7629 73.9656 39.6524 68.8864 36.8259 64.2443ZM33.7194 9.44895C35.6453 8.81599 37.9512 8.67013 40.0276 8.8851C46.727 9.56778 45.3928 14.3799 43.3278 19.7523C42.2593 22.5101 44.9094 26.1291 47.7328 25.6276C52.5911 24.7439 64.5382 23.777 61.9166 32.5046C60.4333 37.4375 57.0442 41.466 53.0408 44.1214C45.4802 49.1448 37.267 50.3511 29.1392 48.7801C26.5058 42.2644 24.4263 35.2841 23.8551 28.9896C23.0946 20.5219 25.7336 12.0662 33.7194 9.44895Z" fill="#E64192"/>
</svg>
