<svg width="100" height="89" viewBox="0 0 100 89" fill="none" xmlns="http://www.w3.org/2000/svg">
<path d="M95.4201 10.8614C83.7691 7.41004 72.1469 3.93958 60.4959 0.488189C56.254 -0.786121 51.6144 4.36403 53.4511 8.44605C57.0248 16.3644 60.5986 24.2827 64.1724 32.201C56.2265 30.564 48.2806 28.927 40.3348 27.29C35.0295 26.197 31.2167 32.1931 33.974 36.665C37.0553 41.6291 40.1077 46.6122 43.189 51.5762C36.127 50.8721 29.089 50.1728 22.027 49.4686C16.853 48.9532 12.7042 54.0293 15.6662 58.8437C19.1379 64.4637 22.6146 70.0598 26.0863 75.6798C19.3723 75.4728 12.6534 75.2897 5.9394 75.0826C-1.92334 74.8641 -1.09039 87.0976 6.74834 87.3111C17.0477 87.6062 27.3711 87.9063 37.6655 88.2254C42.4908 88.3686 44.6069 82.3483 42.3734 78.735C39.0683 73.3995 35.7823 68.093 32.4772 62.7575C39.5152 63.4568 46.5772 64.1609 53.6152 64.8602C58.7892 65.3756 62.938 60.2995 59.976 55.4851C57.2377 51.0422 54.4995 46.5993 51.7372 42.1514C58.9629 43.64 66.1646 45.1237 73.3903 46.6124C77.5913 47.4778 82.3903 43.0112 80.4351 38.6545C77.0512 31.1507 73.6673 23.6468 70.2884 16.119C77.8317 18.3738 85.38 20.6045 92.9473 22.8643C100.491 25.119 102.939 13.1113 95.4201 10.8614Z" fill="#827EE5"/>
</svg>
