<svg width="62" height="62" viewBox="0 0 62 62" fill="none" xmlns="http://www.w3.org/2000/svg">
<path d="M31 59C46.464 59 59 46.464 59 31C59 15.536 46.464 3 31 3C15.536 3 3 15.536 3 31C3 46.464 15.536 59 31 59Z" stroke="#D5544C" stroke-width="4.21407" stroke-miterlimit="10"/>
<path d="M33.4256 30.6445L44.6445 41.8633C46.4357 43.6546 43.6546 46.42 41.8633 44.6445L30.6445 33.4256L19.4256 44.6445C17.6344 46.4357 14.8532 43.6546 16.6445 41.8633L27.8633 30.6445L16.6445 19.4256C14.8532 17.6344 17.6344 14.8532 19.4256 16.6445L30.6445 27.8633L41.8633 16.6445C43.6546 14.8532 46.4357 17.6344 44.6445 19.4256L33.4256 30.6445Z" fill="#D5544C"/>
</svg>
