<svg width="56" height="56" viewBox="0 0 56 56" fill="none" xmlns="http://www.w3.org/2000/svg">
<g clip-path="url(#clip0_1142_2266)">
<path d="M28 0C12.5627 0 0 12.5855 0 28.0654C0 42.3688 10.7333 54.1887 24.5467 55.9066V53.9646V47.8213V35.3478H17.92V29.1857H24.5467V17.3284C24.5653 17.1417 25.1253 12.7349 30.5573 12.2121H37.9867V16.8616H33.88C33.768 16.899 31.2667 17.2911 30.688 19.7746L30.6693 19.8866L30.744 29.1671H36.512V35.3291H30.3707V47.7839V55.9813C44.688 54.8049 56 42.7422 56 28.0654C56 12.5855 43.4373 0 28 0Z" fill="#E06897"/>
</g>
<defs>
<clipPath id="clip0_1142_2266">
<rect width="56" height="56" fill="white"/>
</clipPath>
</defs>
</svg>
