<svg width="50" height="44" viewBox="0 0 50 44" fill="none" xmlns="http://www.w3.org/2000/svg">
<path d="M48.1637 6.13856C46.0816 1.99424 40.0839 -1.39656 33.1074 0.577639C29.7737 1.5116 26.865 3.5145 24.8567 6.25912C22.8484 3.5145 19.9398 1.5116 16.6061 0.577639C9.614 -1.36642 3.63188 1.99424 1.5498 6.13856C-1.37134 11.9406 -0.159379 18.466 5.1546 25.534C9.31878 31.0647 15.2698 36.6709 23.9089 43.1812C24.1819 43.3877 24.5183 43.4999 24.8645 43.4999C25.2107 43.4999 25.5471 43.3877 25.8201 43.1812C34.4437 36.6859 40.4102 31.125 44.5744 25.534C49.8729 18.466 51.0848 11.9406 48.1637 6.13856Z" fill="#FF586C"/>
</svg>
