<svg width="20" height="19" viewBox="0 0 20 19" fill="none" xmlns="http://www.w3.org/2000/svg">
<path d="M19.6307 8.67279C19.6307 8.67279 19.2408 5.46771 19.0458 4.74398C17.486 5.36432 10.9542 8.36262 10.9542 8.36262L12.0266 0.194824H8.41953L9.49191 8.36262C9.49191 8.36262 2.96018 5.36432 1.40036 4.74398C1.20538 5.46771 0.81543 8.67279 0.81543 8.67279L9.19945 10.0169C9.19945 10.0169 5.2999 13.8423 3.05766 15.9101C4.22753 17.1508 5.88483 18.805 5.88483 18.805L10.5643 11.8779L14.5613 18.805C14.5613 18.805 16.2186 17.1508 17.3885 15.9101C15.0488 13.9457 11.2467 10.0169 11.2467 10.0169L19.6307 8.67279Z" fill="#F9FCFF"/>
</svg>
