<svg width="56" height="56" viewBox="0 0 56 56" fill="none" xmlns="http://www.w3.org/2000/svg">
<mask id="path-1-inside-1_1143_2256" fill="white">
<path fill-rule="evenodd" clip-rule="evenodd" d="M28 56C43.464 56 56 43.464 56 28C56 12.536 43.464 0 28 0C12.536 0 0 12.536 0 28C0 43.464 12.536 56 28 56ZM23.1333 13.0667L30.4184 24.0556L39.5333 13.0667H42.1333L31.5734 25.7978L42.9333 42.9333H34.3333L26.879 31.4573L17.5333 42.7245H14.9333L25.7372 29.6994L14.9333 13.0667H23.1333ZM22.295 14.7375H17.952L35.1814 41.2625H39.8796L22.295 14.7375Z"/>
</mask>
<path fill-rule="evenodd" clip-rule="evenodd" d="M28 56C43.464 56 56 43.464 56 28C56 12.536 43.464 0 28 0C12.536 0 0 12.536 0 28C0 43.464 12.536 56 28 56ZM23.1333 13.0667L30.4184 24.0556L39.5333 13.0667H42.1333L31.5734 25.7978L42.9333 42.9333H34.3333L26.879 31.4573L17.5333 42.7245H14.9333L25.7372 29.6994L14.9333 13.0667H23.1333ZM22.295 14.7375H17.952L35.1814 41.2625H39.8796L22.295 14.7375Z" fill="#E06897"/>
<path d="M30.4184 24.0556L29.5849 24.6082L30.3287 25.7301L31.1881 24.694L30.4184 24.0556ZM23.1333 13.0667L23.9668 12.5141L23.6702 12.0667H23.1333V13.0667ZM39.5333 13.0667V12.0667H39.0636L38.7636 12.4282L39.5333 13.0667ZM42.1333 13.0667L42.903 13.7051L44.262 12.0667H42.1333V13.0667ZM31.5734 25.7978L30.8037 25.1593L30.3294 25.7311L30.7399 26.3503L31.5734 25.7978ZM42.9333 42.9333V43.9333H44.7961L43.7668 42.3808L42.9333 42.9333ZM34.3333 42.9333L33.4947 43.4781L33.7904 43.9333H34.3333V42.9333ZM26.879 31.4573L27.7176 30.9126L26.9772 29.7726L26.1093 30.8189L26.879 31.4573ZM17.5333 42.7245V43.7245H18.0031L18.303 43.3629L17.5333 42.7245ZM14.9333 42.7245L14.1636 42.0861L12.8046 43.7245H14.9333V42.7245ZM25.7372 29.6994L26.5068 30.3378L26.9765 29.7716L26.5758 29.1546L25.7372 29.6994ZM14.9333 13.0667V12.0667H13.0913L14.0947 13.6114L14.9333 13.0667ZM17.952 14.7375V13.7375H16.11L17.1134 15.2823L17.952 14.7375ZM22.295 14.7375L23.1285 14.185L22.8319 13.7375H22.295V14.7375ZM35.1814 41.2625L34.3428 41.8072L34.6385 42.2625H35.1814V41.2625ZM39.8796 41.2625V42.2625H41.7424L40.7131 40.7099L39.8796 41.2625ZM55 28C55 42.9117 42.9117 55 28 55V57C44.0163 57 57 44.0163 57 28H55ZM28 1C42.9117 1 55 13.0883 55 28H57C57 11.9837 44.0163 -1 28 -1V1ZM1 28C1 13.0883 13.0883 1 28 1V-1C11.9837 -1 -1 11.9837 -1 28H1ZM28 55C13.0883 55 1 42.9117 1 28H-1C-1 44.0163 11.9837 57 28 57V55ZM31.2519 23.5031L23.9668 12.5141L22.2999 13.6192L29.5849 24.6082L31.2519 23.5031ZM38.7636 12.4282L29.6487 23.4172L31.1881 24.694L40.303 13.7051L38.7636 12.4282ZM42.1333 12.0667H39.5333V14.0667H42.1333V12.0667ZM32.3431 26.4362L42.903 13.7051L41.3637 12.4282L30.8037 25.1593L32.3431 26.4362ZM43.7668 42.3808L32.4069 25.2452L30.7399 26.3503L42.0999 43.4859L43.7668 42.3808ZM34.3333 43.9333H42.9333V41.9333H34.3333V43.9333ZM26.0404 32.002L33.4947 43.4781L35.1719 42.3886L27.7176 30.9126L26.0404 32.002ZM18.303 43.3629L27.6487 32.0957L26.1093 30.8189L16.7636 42.0861L18.303 43.3629ZM14.9333 43.7245H17.5333V41.7245H14.9333V43.7245ZM24.9675 29.0609L14.1636 42.0861L15.703 43.3629L26.5068 30.3378L24.9675 29.0609ZM14.0947 13.6114L24.8985 30.2441L26.5758 29.1546L15.7719 12.5219L14.0947 13.6114ZM23.1333 12.0667H14.9333V14.0667H23.1333V12.0667ZM17.952 15.7375H22.295V13.7375H17.952V15.7375ZM36.02 40.7177L18.7906 14.1928L17.1134 15.2823L34.3428 41.8072L36.02 40.7177ZM39.8796 40.2625H35.1814V42.2625H39.8796V40.2625ZM21.4615 15.2901L39.0461 41.815L40.7131 40.7099L23.1285 14.185L21.4615 15.2901Z" fill="#E06897" mask="url(#path-1-inside-1_1143_2256)"/>
</svg>
