<svg width="56" height="56" viewBox="0 0 56 56" fill="none" xmlns="http://www.w3.org/2000/svg">
<mask id="path-1-inside-1_1143_2255" fill="white">
<path fill-rule="evenodd" clip-rule="evenodd" d="M28 56C43.464 56 56 43.464 56 28C56 12.536 43.464 0 28 0C12.536 0 0 12.536 0 28C0 43.464 12.536 56 28 56ZM12.0988 16.8C10.5715 16.8 9.33333 17.9143 9.33333 19.2889V36.7111C9.33333 38.0857 10.5715 39.2 12.0988 39.2H43.9012C45.4285 39.2 46.6667 38.0857 46.6667 36.7111V19.2889C46.6667 17.9143 45.4285 16.8 43.9012 16.8H12.0988ZM45.2839 19.2889C45.2839 18.6016 44.6649 18.0444 43.9012 18.0444H12.0988C11.3351 18.0444 10.716 18.6016 10.716 19.2889V36.7111C10.716 37.3984 11.3351 37.9556 12.0988 37.9556H43.9012C44.6649 37.9556 45.2839 37.3984 45.2839 36.7111V19.2889ZM23.8519 23.499C23.8519 22.5317 25.0244 21.9342 25.946 22.4319L34.2812 26.9329C35.1763 27.4162 35.1763 28.5838 34.2812 29.0671L25.946 33.5681C25.0244 34.0658 23.8519 33.4683 23.8519 32.501V23.499Z"/>
</mask>
<path fill-rule="evenodd" clip-rule="evenodd" d="M28 56C43.464 56 56 43.464 56 28C56 12.536 43.464 0 28 0C12.536 0 0 12.536 0 28C0 43.464 12.536 56 28 56ZM12.0988 16.8C10.5715 16.8 9.33333 17.9143 9.33333 19.2889V36.7111C9.33333 38.0857 10.5715 39.2 12.0988 39.2H43.9012C45.4285 39.2 46.6667 38.0857 46.6667 36.7111V19.2889C46.6667 17.9143 45.4285 16.8 43.9012 16.8H12.0988ZM45.2839 19.2889C45.2839 18.6016 44.6649 18.0444 43.9012 18.0444H12.0988C11.3351 18.0444 10.716 18.6016 10.716 19.2889V36.7111C10.716 37.3984 11.3351 37.9556 12.0988 37.9556H43.9012C44.6649 37.9556 45.2839 37.3984 45.2839 36.7111V19.2889ZM23.8519 23.499C23.8519 22.5317 25.0244 21.9342 25.946 22.4319L34.2812 26.9329C35.1763 27.4162 35.1763 28.5838 34.2812 29.0671L25.946 33.5681C25.0244 34.0658 23.8519 33.4683 23.8519 32.501V23.499Z" fill="#E06897"/>
<path d="M25.946 22.4319L26.4211 21.552L26.4211 21.552L25.946 22.4319ZM34.2812 26.9329L33.8061 27.8128L33.8061 27.8128L34.2812 26.9329ZM34.2812 29.0671L33.8061 28.1872L33.8061 28.1872L34.2812 29.0671ZM25.946 33.5681L26.4211 34.448L26.4211 34.448L25.946 33.5681ZM55 28C55 42.9117 42.9117 55 28 55V57C44.0163 57 57 44.0163 57 28H55ZM28 1C42.9117 1 55 13.0883 55 28H57C57 11.9837 44.0163 -1 28 -1V1ZM1 28C1 13.0883 13.0883 1 28 1V-1C11.9837 -1 -1 11.9837 -1 28H1ZM28 55C13.0883 55 1 42.9117 1 28H-1C-1 44.0163 11.9837 57 28 57V55ZM10.3333 19.2889C10.3333 18.5631 11.022 17.8 12.0988 17.8V15.8C10.1209 15.8 8.33333 17.2655 8.33333 19.2889H10.3333ZM10.3333 36.7111V19.2889H8.33333V36.7111H10.3333ZM12.0988 38.2C11.022 38.2 10.3333 37.4369 10.3333 36.7111H8.33333C8.33333 38.7345 10.1209 40.2 12.0988 40.2V38.2ZM43.9012 38.2H12.0988V40.2H43.9012V38.2ZM45.6667 36.7111C45.6667 37.4369 44.978 38.2 43.9012 38.2V40.2C45.8791 40.2 47.6667 38.7345 47.6667 36.7111H45.6667ZM45.6667 19.2889V36.7111H47.6667V19.2889H45.6667ZM43.9012 17.8C44.978 17.8 45.6667 18.5631 45.6667 19.2889H47.6667C47.6667 17.2655 45.8791 15.8 43.9012 15.8V17.8ZM12.0988 17.8H43.9012V15.8H12.0988V17.8ZM43.9012 19.0444C44.0399 19.0444 44.1462 19.0948 44.21 19.1522C44.2721 19.2081 44.2839 19.2577 44.2839 19.2889H46.2839C46.2839 17.9528 45.1155 17.0444 43.9012 17.0444V19.0444ZM12.0988 19.0444H43.9012V17.0444H12.0988V19.0444ZM11.716 19.2889C11.716 19.2577 11.7279 19.2081 11.79 19.1522C11.8538 19.0948 11.9601 19.0444 12.0988 19.0444V17.0444C10.8845 17.0444 9.71605 17.9528 9.71605 19.2889H11.716ZM11.716 36.7111V19.2889H9.71605V36.7111H11.716ZM12.0988 36.9556C11.9601 36.9556 11.8538 36.9052 11.79 36.8478C11.7279 36.7919 11.716 36.7423 11.716 36.7111H9.71605C9.71605 38.0472 10.8845 38.9556 12.0988 38.9556V36.9556ZM43.9012 36.9556H12.0988V38.9556H43.9012V36.9556ZM44.2839 36.7111C44.2839 36.7423 44.2721 36.7919 44.21 36.8478C44.1462 36.9052 44.0399 36.9556 43.9012 36.9556V38.9556C45.1155 38.9556 46.2839 38.0472 46.2839 36.7111H44.2839ZM44.2839 19.2889V36.7111H46.2839V19.2889H44.2839ZM26.4211 21.552C25.6494 21.1353 24.7776 21.1794 24.0993 21.5251C23.4191 21.8717 22.8519 22.5733 22.8519 23.499H24.8519C24.8519 23.4573 24.8709 23.3766 25.0073 23.307C25.1457 23.2365 25.3209 23.2308 25.4708 23.3118L26.4211 21.552ZM34.7564 26.053L26.4211 21.552L25.4708 23.3118L33.8061 27.8128L34.7564 26.053ZM34.7564 29.947C35.5188 29.5353 35.9525 28.7897 35.9525 28C35.9525 27.2103 35.5188 26.4647 34.7564 26.053L33.8061 27.8128C33.879 27.8522 33.9129 27.8932 33.9291 27.9199C33.9461 27.9481 33.9525 27.9753 33.9525 28C33.9525 28.0247 33.9461 28.0519 33.9291 28.0801C33.9129 28.1068 33.879 28.1478 33.8061 28.1872L34.7564 29.947ZM26.4211 34.448L34.7564 29.947L33.8061 28.1872L25.4708 32.6882L26.4211 34.448ZM22.8519 32.501C22.8519 33.4267 23.4191 34.1283 24.0993 34.4749C24.7776 34.8206 25.6494 34.8647 26.4211 34.448L25.4708 32.6882C25.3209 32.7692 25.1457 32.7635 25.0073 32.693C24.8709 32.6234 24.8519 32.5427 24.8519 32.501H22.8519ZM22.8519 23.499V32.501H24.8519V23.499H22.8519Z" fill="#E06897" mask="url(#path-1-inside-1_1143_2255)"/>
</svg>
