<svg width="61" height="66" viewBox="0 0 61 66" fill="none" xmlns="http://www.w3.org/2000/svg">
<path d="M60.8794 49.3052C57.5423 36.7425 48.1083 26.4779 34.5028 22.2578C29.5933 10.4054 19.3731 0.516854 4.6927 0.168664C-0.473526 0.043316 -0.473526 7.0071 4.6927 7.13245C14.239 7.35529 20.8492 13.0517 24.8442 20.3776C5.27029 18.8455 -3.39357 37.1325 1.21111 51.6311C3.40917 58.5809 9.36156 66.2272 18.7474 65.0433C28.1814 63.8595 34.8718 54.4444 36.7811 47.021C38.0486 42.1325 38.1127 36.5893 37.102 31.074C37.7437 31.3804 38.3855 31.6868 38.9791 31.9932C47.0012 36.1436 51.1085 43.4416 53.1462 51.1297C54.3013 55.5169 62.0346 53.6645 60.8794 49.3052ZM29.2724 43.3024C28.5504 48.7759 21.0578 62.996 12.8752 56.4918C8.62353 53.1074 7.62879 46.2411 8.06198 41.5475C8.49518 36.9096 10.4205 31.826 14.961 29.0405C18.6993 26.7564 23.3521 26.7703 27.8605 27.787C29.4328 33.1492 29.866 38.7063 29.2724 43.3024Z" fill="#03AAEA"/>
</svg>
