<svg width="100" height="89" viewBox="0 0 100 89" fill="none" xmlns="http://www.w3.org/2000/svg">
<path d="M95.4206 11.0284C83.7695 7.57703 72.1474 4.10658 60.4964 0.655181C56.2545 -0.619129 51.6149 4.53102 53.4516 8.61304C57.0253 16.5314 60.5991 24.4497 64.1729 32.368C56.227 30.731 48.2811 29.094 40.3353 27.457C35.03 26.364 31.2172 32.3601 33.9745 36.832C37.0558 41.796 40.1082 46.7792 43.1895 51.7432C36.1275 51.0391 29.0895 50.3398 22.0275 49.6356C16.8535 49.1202 12.7047 54.1963 15.6667 59.0107C19.1384 64.6307 22.6151 70.2268 26.0867 75.8468C19.3728 75.6398 12.6539 75.4567 5.93989 75.2496C-1.92285 75.0311 -1.08991 87.2646 6.74883 87.4781C17.0482 87.7732 27.3716 88.0733 37.666 88.3924C42.4912 88.5356 44.6074 82.5153 42.3739 78.902C39.0688 73.5665 35.7828 68.26 32.4777 62.9245C39.5157 63.6238 46.5777 64.3279 53.6156 65.0272C58.7896 65.5426 62.9385 60.4665 59.9764 55.6521C57.2382 51.2092 54.4999 46.7663 51.7377 42.3184C58.9634 43.807 66.1651 45.2907 73.3908 46.7794C77.5918 47.6448 82.3908 43.1782 80.4356 38.8215C77.0517 31.3177 73.6678 23.8138 70.2889 16.286C77.8322 18.5408 85.3804 20.7715 92.9478 23.0312C100.491 25.286 102.94 13.2783 95.4206 11.0284Z" fill="#03AAEA"/>
</svg>
