<svg width="56" height="56" viewBox="0 0 56 56" fill="none" xmlns="http://www.w3.org/2000/svg">
<path d="M56 28.2528C56 12.7687 43.432 0.185547 28 0.185547C12.568 0.185547 0 12.7687 0 28.2528C0 42.565 10.7402 54.3797 24.5518 56.0895V54.1492V48.0017V35.5337H17.9192V29.367H24.5518V17.5138C24.5707 17.3217 25.1359 12.9224 30.5626 12.4037H37.9865V17.0528H33.8789C33.7658 17.0912 31.2598 17.4754 30.6945 19.9729L30.6756 20.0881L30.751 29.367H36.5168V35.5337H30.3742V47.9825V56.1855C44.6945 54.9945 56 42.93 56 28.2528ZM32.2396 54.0147V37.4548H38.3822V27.4459H32.5976L32.5411 20.3187C32.8614 19.2044 34.0485 18.9931 33.9919 18.9931H39.852V10.4826H30.4684C23.459 11.1358 22.6864 17.2257 22.6676 17.3986V27.4459H16.035V37.4548H22.6676V53.8418C10.8156 51.3828 1.88425 40.836 1.88425 28.2528C1.88425 13.8253 13.6043 2.10664 28 2.10664C42.3957 2.10664 54.1157 13.8253 54.1157 28.2528C54.1157 41.2202 44.6191 51.9783 32.2396 54.0147Z" fill="#E06897"/>
</svg>
