<svg width="32" height="29" viewBox="0 0 32 29" fill="none" xmlns="http://www.w3.org/2000/svg">
<path d="M31.0099 4.83288C29.691 2.20761 25.8917 0.0596662 21.4723 1.31025C19.3605 1.90188 17.518 3.17064 16.2458 4.90925C14.9736 3.17064 13.1311 1.90188 11.0193 1.31025C6.59011 0.078759 2.80066 2.20761 1.48174 4.83288C-0.368693 8.50826 0.399039 12.6419 3.76525 17.1191C6.4031 20.6227 10.1729 24.174 15.6454 28.298C15.8184 28.4288 16.0314 28.4999 16.2507 28.4999C16.4701 28.4999 16.6831 28.4288 16.8561 28.298C22.3188 24.1835 26.0984 20.6609 28.7362 17.1191C32.0926 12.6419 32.8603 8.50826 31.0099 4.83288Z" fill="#FC50B1"/>
</svg>
