<svg width="62" height="62" viewBox="0 0 62 62" fill="none" xmlns="http://www.w3.org/2000/svg">
<path d="M31 59C46.464 59 59 46.464 59 31C59 15.536 46.464 3 31 3C15.536 3 3 15.536 3 31C3 46.464 15.536 59 31 59Z" stroke="#19C575" stroke-width="4.21407" stroke-miterlimit="10"/>
<path d="M18.1497 40.0697C16.3523 38.4009 14.5549 36.7322 12.7534 35.0595C10.4694 32.9363 13.8955 29.5424 16.1634 31.6495C17.9646 33.322 19.7618 34.9905 21.5589 36.659C22.7773 37.7902 23.9957 38.9213 25.2153 40.0537C28.27 37.0952 31.3248 34.1391 34.3795 31.183C37.9905 27.6886 41.6016 24.1942 45.2126 20.6957C47.4484 18.5243 50.8584 21.9343 48.6226 24.1057C45.0118 27.6039 41.401 31.0981 37.7901 34.5923C34.1789 38.087 30.5676 41.5816 26.9563 45.0803C25.9912 46.0132 24.5114 45.9811 23.5463 45.0803C21.7448 43.4074 19.9472 41.7385 18.1497 40.0697Z" fill="#19C575"/>
</svg>
