<svg width="56" height="56" viewBox="0 0 56 56" fill="none" xmlns="http://www.w3.org/2000/svg">
<path fill-rule="evenodd" clip-rule="evenodd" d="M25.9459 22.4317C25.0243 21.934 23.8518 22.5315 23.8518 23.4988V32.5008C23.8518 33.4681 25.0243 34.0656 25.9459 33.5679L34.2811 29.0669C35.1762 28.5836 35.1762 27.416 34.2811 26.9327L25.9459 22.4317ZM25.2345 23.4988L33.5697 27.9998L25.2345 32.5008V23.4988Z" fill="#E06897"/>
<path fill-rule="evenodd" clip-rule="evenodd" d="M9.33325 19.2887C9.33325 17.9141 10.5714 16.7998 12.0987 16.7998H43.9012C45.4285 16.7998 46.6666 17.9141 46.6666 19.2887V36.7109C46.6666 38.0855 45.4285 39.1998 43.9012 39.1998H12.0987C10.5714 39.1998 9.33325 38.0855 9.33325 36.7109V19.2887ZM12.0987 18.0442H43.9012C44.6648 18.0442 45.2839 18.6014 45.2839 19.2887V36.7109C45.2839 37.3982 44.6648 37.9554 43.9012 37.9554H12.0987C11.335 37.9554 10.716 37.3982 10.716 36.7109V19.2887C10.716 18.6014 11.335 18.0442 12.0987 18.0442Z" fill="#E06897"/>
<circle cx="28" cy="28" r="27.0667" stroke="#E06897" stroke-width="1.86667"/>
</svg>
