<svg width="35" height="24" viewBox="0 0 35 24" fill="none" xmlns="http://www.w3.org/2000/svg">
<path fill-rule="evenodd" clip-rule="evenodd" d="M4.82759 0.233398C2.16138 0.233398 0 2.39478 0 5.06098V18.3368C0 21.003 2.16138 23.1644 4.82759 23.1644H30.1724C32.8386 23.1644 35 21.003 35 18.3368V5.06099C35 2.39478 32.8386 0.233398 30.1724 0.233398H4.82759ZM14.4828 16.4339V6.96197C14.483 6.83874 14.515 6.71777 14.5755 6.61147C14.636 6.50516 14.7229 6.41734 14.8272 6.35698C14.9315 6.29663 15.0495 6.26591 15.1691 6.26798C15.2888 6.27005 15.4057 6.30483 15.508 6.36876L22.3851 10.6951C22.5518 10.7999 22.6896 10.947 22.7852 11.1224C22.8808 11.2979 22.931 11.4957 22.931 11.6968C22.931 11.898 22.8808 12.0958 22.7852 12.2712C22.6896 12.4466 22.5518 12.5938 22.3851 12.6986L15.5101 17.0271C15.0608 17.3096 14.4828 16.9771 14.4828 16.4339Z" fill="#E06897"/>
</svg>
