<svg width="237" height="74" viewBox="0 0 237 74" fill="none" xmlns="http://www.w3.org/2000/svg">
<path d="M65 63.0801H237V73.0801H65V63.0801Z" fill="#D5544C"/>
<path d="M99.1655 19.7233C97.3308 17.7969 95.1292 16.2374 92.6523 15.1366C90.1755 14.0358 87.4234 13.4854 84.5796 13.4854C81.2771 13.4854 78.2499 14.0358 75.4978 15.2283C72.7458 16.3291 70.3607 17.9804 68.4342 20.0903C66.416 22.2002 64.9483 24.677 63.7557 27.5208C62.6549 30.3646 62.1045 33.4836 62.1045 36.9696C62.1045 41.2811 63.1136 45.134 65.04 48.5282C67.0582 51.9224 69.8103 54.5827 73.2962 56.5091C76.8739 58.4356 80.9102 59.4447 85.497 59.4447C87.5151 59.4447 89.625 59.1695 91.735 58.6191C93.8449 58.0686 95.863 57.3348 97.7895 56.3257C99.7159 55.3166 101.459 54.124 102.927 52.748L97.7895 45.6844C95.7713 47.4274 93.9366 48.6199 92.1936 49.2621C90.4507 49.9042 88.616 50.2712 86.5061 50.2712C83.5705 50.2712 81.0019 49.7207 78.8003 48.5282C76.5987 47.4274 74.8557 45.7761 73.6631 43.6662C72.8375 42.1985 72.2871 40.639 72.1036 38.896H104.578L104.67 35.3183C104.761 32.1993 104.303 29.3555 103.294 26.6952C102.376 23.8514 101 21.6498 99.1655 19.7233ZM77.6077 24.1266C79.4424 23.0258 81.7358 22.5671 84.4879 22.5671C86.2308 22.5671 87.8821 22.9341 89.3498 23.668C90.8176 24.4018 92.0102 25.4109 93.0192 26.787C93.9366 28.0712 94.487 29.6307 94.6705 31.3737V31.8324H72.3788C72.654 30.7316 72.9292 29.7225 73.3879 28.8051C74.3053 26.6952 75.773 25.2275 77.6077 24.1266Z" fill="black"/>
<path d="M153.748 42.932L144.024 21.099H137.878L128.154 43.2989L119.072 14.4023L108.614 14.4941L123.384 58.527H130.631L140.63 34.1254L150.996 58.527H158.426L173.288 14.4941H162.738L153.748 42.932Z" fill="black"/>
<path d="M190.259 22.6583C190.809 22.2913 191.543 22.0161 192.369 21.7409C192.827 21.6492 193.378 21.5574 194.02 21.4657L189.892 14.0352C189.433 14.1269 188.975 14.2186 188.516 14.4021C186.498 15.0442 184.755 15.8699 183.287 17.0624C181.819 18.255 180.627 19.631 179.709 21.1905C178.884 22.75 178.425 24.5847 178.425 26.5111C178.425 28.0706 178.7 29.5384 179.159 30.8227C179.618 32.1987 180.351 33.3913 181.269 34.4004C182.37 35.6847 183.929 36.8772 185.947 37.8863C187.965 38.8954 190.442 39.8127 193.47 40.6384C195.396 41.097 196.955 41.5557 198.148 42.0144C199.341 42.4731 200.258 42.84 200.808 43.2987C201.817 44.1243 202.276 45.1334 202.276 46.5094C202.276 47.2433 202.093 47.8854 201.817 48.4358C201.542 48.9863 201.084 49.5367 200.533 49.9953C199.983 50.454 199.341 50.821 198.607 51.0044C197.873 51.1879 197.047 51.3714 196.038 51.3714C193.745 51.3714 191.543 50.9127 189.525 50.0871C187.507 49.2615 185.58 47.8854 183.929 45.959L177.232 51.7383C179.159 54.2152 181.727 56.0499 184.755 57.4259C187.874 58.7102 191.36 59.3523 195.213 59.3523C198.423 59.3523 201.267 58.8019 203.744 57.6094C206.312 56.4168 208.331 54.8573 209.798 52.7474C211.266 50.7292 212 48.3441 212 45.6838C212 44.0326 211.817 42.5648 211.358 41.2805C210.899 39.9045 210.165 38.8037 209.065 37.7946C207.964 36.602 206.588 35.5929 204.753 34.6756C202.918 33.7582 200.625 32.9326 197.873 32.2905C195.946 31.8318 194.295 31.3731 193.103 30.9144C191.91 30.4558 190.993 29.9971 190.351 29.5384C189.8 29.1715 189.341 28.621 189.066 28.0706C188.791 27.5202 188.608 26.8781 188.516 26.2359C188.516 25.4103 188.699 24.7682 188.975 24.2178C189.25 23.4839 189.708 23.0252 190.259 22.6583Z" fill="black"/>
<path d="M195.213 21.4663C196.313 21.4663 197.506 21.7415 198.79 22.2002C200.075 22.6589 201.359 23.301 202.551 24.0349C203.836 24.8605 204.937 25.6861 206.037 26.6952L211.725 20.4572C210.441 18.9895 208.881 17.7969 207.046 16.6961C205.212 15.687 203.285 14.8614 201.175 14.311C199.065 13.7606 196.956 13.4854 194.662 13.4854C193.011 13.4854 191.36 13.6688 189.708 14.0358L193.837 21.4663C194.295 21.4663 194.754 21.4663 195.213 21.4663Z" fill="#27A7B4"/>
<path d="M40.18 0V17.5214C40.18 19.9065 40.18 22.1999 40.2717 24.3098C40.3635 26.4197 40.3635 28.5296 40.4552 30.4561C40.5469 32.3825 40.6387 34.309 40.8222 36.0519C41.0056 37.7949 41.0974 39.5379 41.2808 41.1891C41.3726 41.6478 41.3726 42.1064 41.4643 42.5651L9.81566 0H0V32.2908L10.6413 37.4279C10.5495 28.1627 10.4578 19.2644 10.3661 18.5305L41.0056 58.4353H50.913V0H40.18Z" fill="black"/>
<path d="M0 58.5273H10.8248C10.8248 58.5273 10.733 47.7943 10.6413 37.5199L0 32.2908V58.5273Z" fill="#DA5381"/>
</svg>
