<svg width="308" height="84" viewBox="0 0 308 84" fill="none" xmlns="http://www.w3.org/2000/svg">
<g clip-path="url(#clip0_426_1025)">
<path d="M0 57.7624L22.0548 56.3386C22.4384 59.7963 23.589 62.4403 24.9315 64.2709C27.2329 67.1183 30.6849 68.7454 35.0959 68.7454C38.3562 68.7454 41.0411 67.9319 42.7671 66.5081C44.4931 65.0844 45.4521 63.2539 45.4521 61.22C45.4521 59.3895 44.6849 57.7624 42.9589 56.1353C41.2329 54.7115 37.2055 53.2878 31.0685 51.8641C20.9041 49.6268 13.6164 46.7793 9.39726 43.1183C4.9863 39.4573 2.87671 34.7793 2.87671 29.2878C2.87671 25.6268 4.0274 22.1692 6.13699 18.7115C8.43836 15.4573 11.6986 12.8132 16.3014 10.9827C20.7123 9.1522 26.8493 8.13525 34.7123 8.13525C44.3014 8.13525 51.589 9.76237 56.5753 13.22C61.5616 16.6776 64.6301 22.1692 65.589 29.4912L43.726 30.7115C43.1507 27.4573 42 25.0166 40.0822 23.5929C38.1644 22.1692 35.6712 21.3556 32.411 21.3556C29.726 21.3556 27.6164 21.9658 26.274 22.9827C24.9315 23.9997 24.1644 25.4234 24.1644 27.0505C24.1644 28.2708 24.7397 29.2878 25.8904 30.1014C27.0411 31.1183 29.5342 31.9319 33.7534 32.7454C43.9178 34.7793 51.2055 37.0166 55.6164 39.0505C60.0274 41.2878 63.2877 43.9319 65.2055 46.9827C67.1233 50.0336 68.274 53.6946 68.274 57.559C68.274 62.2369 66.9315 66.5081 64.2466 70.3725C61.5616 74.2369 57.9178 77.2878 53.1233 79.3217C48.3288 81.3556 42.3836 82.3725 35.0959 82.3725C22.2466 82.3725 13.4247 79.9319 8.63014 75.2539C3.45205 71.1861 0.575342 65.0844 0 57.7624Z" fill="#DD6996"/>
<path d="M77.2881 9.55957H99.7264V34.7799H124.274V9.55957H146.905V81.5596H124.274V52.4748H99.7264V81.5596H77.2881V9.55957Z" stroke="#7C97BB" stroke-width="2.5" stroke-miterlimit="10"/>
<path d="M158.986 45.7623C158.986 33.9657 162.246 24.8132 168.958 18.3047C175.479 11.7962 184.684 8.54199 196.575 8.54199C208.657 8.54199 218.054 11.7962 224.575 18.3047C231.095 24.8132 234.356 33.7623 234.356 45.3555C234.356 53.6945 233.013 60.6098 230.137 66.1013C227.26 71.5928 223.232 75.6606 217.671 78.7115C212.301 81.7623 205.589 83.1861 197.534 83.1861C189.287 83.1861 182.575 81.9657 177.205 79.3217C171.835 76.6776 167.424 72.6098 164.164 67.1183C160.712 61.0166 158.986 54.1013 158.986 45.7623ZM181.424 45.7623C181.424 53.0844 182.767 58.1691 185.452 61.4233C188.137 64.6776 191.972 66.1013 196.575 66.1013C201.369 66.1013 205.205 64.4742 207.698 61.4233C210.383 58.3725 211.726 52.6776 211.726 44.7454C211.726 38.0335 210.383 32.9488 207.506 29.8979C204.821 26.8471 200.986 25.22 196.191 25.22C191.589 25.22 187.945 26.8471 185.26 29.8979C182.767 33.1522 181.424 38.4403 181.424 45.7623Z" stroke="#7C97BB" stroke-width="2.5" stroke-miterlimit="10"/>
<path d="M246.247 9.55957H283.644C291.699 9.55957 297.836 11.3901 301.863 15.2545C305.891 19.1189 308.001 24.6104 308.001 31.7291C308.001 39.0511 305.699 44.746 301.288 48.8138C296.877 52.8816 290.165 54.9155 281.151 54.9155H268.877V81.763H246.247V9.55957ZM268.877 40.2714H274.439C278.85 40.2714 281.727 39.4579 283.644 38.0341C285.37 36.6104 286.329 34.5765 286.329 32.3392C286.329 30.1019 285.562 28.068 284.028 26.6443C282.494 25.0172 279.617 24.2036 275.398 24.2036H269.069V40.2714H268.877Z" fill="#DD6996"/>
<path d="M242.014 16.678C242.014 16.678 241.247 10.3729 240.863 8.94915C237.795 10.1695 224.945 16.0678 224.945 16.0678L227.055 0H219.959L222.068 16.0678C222.068 16.0678 209.219 10.1695 206.151 8.94915C205.767 10.3729 205 16.678 205 16.678L221.493 19.322C221.493 19.322 213.822 26.8475 209.411 30.9153C211.712 33.3559 214.973 36.6102 214.973 36.6102L224.178 22.9831L232.041 36.6102C232.041 36.6102 235.301 33.3559 237.603 30.9153C233 27.0508 225.521 19.322 225.521 19.322L242.014 16.678Z" fill="#2D5993"/>
</g>
<defs>
<clipPath id="clip0_426_1025">
<rect width="308" height="84" fill="white"/>
</clipPath>
</defs>
</svg>
