<svg width="386" height="83" viewBox="0 0 386 83" fill="none" xmlns="http://www.w3.org/2000/svg">
<g clip-path="url(#clip0_1663_3069)">
<path d="M123.867 26.2087C122.915 24.8977 121.837 23.6925 120.547 22.6352C119.025 21.3877 117.248 20.415 115.218 19.6961C113.189 18.9771 110.968 18.6177 108.537 18.6177C104.244 18.6177 100.417 19.7172 97.055 21.8951C93.6929 24.0731 91.0287 27.0968 89.0622 30.9452C87.0957 34.8147 86.123 39.234 86.123 44.203C86.123 49.1932 87.0957 53.6125 89.0199 57.4609C90.9441 61.3304 93.5661 64.3753 96.8647 66.6166C100.163 68.858 103.864 69.9787 107.987 69.9787C110.292 69.9787 112.47 69.6192 114.521 68.9003C116.572 68.1814 118.432 67.2299 120.082 66.0034C121.477 64.9673 122.661 63.7832 123.676 62.5145V69.0483H137.04V19.6538H123.867V26.2087ZM118.158 56.742C116.297 57.9261 114.098 58.5181 111.624 58.5181C109.192 58.5181 107.057 57.9261 105.217 56.742C103.377 55.5578 101.939 53.8874 100.882 51.7518C99.825 49.6161 99.2963 47.0999 99.2963 44.2242C99.2963 41.4119 99.825 38.9591 100.882 36.8446C101.939 34.7301 103.398 33.0597 105.217 31.8544C107.057 30.6491 109.192 30.0359 111.624 30.0359C114.119 30.0359 116.297 30.6491 118.158 31.8544C120.018 33.0597 121.477 34.7301 122.492 36.8446C123.507 38.9591 124.036 41.4119 124.036 44.2242C124.036 47.0787 123.528 49.595 122.492 51.7518C121.456 53.9086 120.04 55.5578 118.158 56.742Z" fill="#231815"/>
<path d="M163.641 -0.0532227H150.383V69.0695H163.641V-0.0532227Z" fill="#231815"/>
<path d="M268.667 20.8805C266.151 19.3792 263.022 18.6392 259.279 18.6392C256.53 18.6392 253.929 19.1889 251.434 20.3096C248.939 21.4303 246.803 22.9104 245.027 24.75C244.583 25.1941 244.181 25.6593 243.822 26.1456L243.589 19.6541H230.881V69.0698C231.685 69.0698 232.658 69.0698 233.778 69.0698C234.899 69.0698 236.168 69.0698 237.605 69.0698H244.139V39.3612C244.139 38.0502 244.414 36.8449 244.943 35.7243C245.471 34.6036 246.19 33.6098 247.099 32.7428C248.009 31.8759 249.087 31.1992 250.377 30.7341C251.646 30.2689 253.041 30.0363 254.521 30.0363C256.382 29.9728 257.968 30.29 259.237 30.9666C260.505 31.6433 261.457 32.7428 262.091 34.2441C262.704 35.7454 263.022 37.6062 263.022 39.8475V69.0909H276.279V38.8114C276.279 34.3921 275.645 30.6706 274.355 27.6469C273.087 24.6232 271.184 22.3607 268.667 20.8805Z" fill="#231815"/>
<path d="M363.227 49.4472C362.72 48.0093 361.959 46.7406 360.901 45.6199C359.654 44.3089 357.983 43.1671 355.911 42.1733C353.818 41.1795 351.28 40.2703 348.299 39.4668C345.994 38.8536 344.176 38.2826 342.844 37.7963C341.511 37.2888 340.497 36.8659 339.799 36.4853C339.186 36.0413 338.699 35.5127 338.361 34.8995C338.023 34.2863 337.853 33.6308 337.853 32.933C337.853 32.2563 338.001 31.622 338.276 31.0722C338.551 30.5225 338.974 30.0361 339.545 29.6344C340.116 29.2326 340.814 28.9366 341.638 28.7463C342.484 28.556 343.436 28.4714 344.493 28.4714C345.677 28.4714 347.009 28.7251 348.51 29.2115C350.012 29.719 351.45 30.3956 352.845 31.2625C354.241 32.1295 355.509 33.1021 356.63 34.1594L363.735 26.3146C362.17 24.7499 360.352 23.3966 358.279 22.2548C356.186 21.113 353.945 20.2249 351.513 19.5905C349.081 18.9773 346.586 18.6602 344.049 18.6602C341.49 18.6602 339.059 19.0196 336.754 19.7385C334.449 20.4575 332.419 21.4724 330.643 22.7834C328.867 24.0944 327.471 25.6591 326.477 27.4987C325.484 29.3383 324.976 31.3683 324.976 33.6096C324.976 35.4704 325.272 37.1831 325.864 38.7055C326.456 40.228 327.302 41.6447 328.423 42.9557C329.734 44.3301 331.489 45.5565 333.709 46.6349C335.908 47.7344 338.615 48.6648 341.786 49.4895C343.837 50.0392 345.529 50.5678 346.819 51.033C348.13 51.4982 349.103 51.9211 349.716 52.3017C350.836 53.0418 351.386 54.099 351.386 55.4735C351.386 56.1712 351.238 56.8056 350.963 57.3977C350.688 57.9897 350.266 58.4972 349.695 58.8989C349.124 59.3007 348.468 59.6179 347.686 59.8293C346.903 60.0408 346.058 60.1465 345.127 60.1465C342.759 60.1465 340.391 59.7024 338.023 58.7932C335.654 57.884 333.54 56.4038 331.679 54.3528L323.369 61.4575C325.547 64.1429 328.423 66.2362 331.996 67.7587C335.57 69.2811 339.672 70.0423 344.281 70.0423C348.024 70.0423 351.386 69.3657 354.368 67.9913C357.349 66.6168 359.696 64.7561 361.409 62.3879C363.122 60.0196 363.967 57.3131 363.967 54.2682C363.989 52.4709 363.735 50.885 363.227 49.4472Z" fill="#231815"/>
<path d="M60.0937 3.68945L48.1045 16.2918H55.5052V69.0695H69.5031V16.2918H89.1256V3.68945H60.0937Z" fill="#231815"/>
<path d="M36.4541 3.68945V16.2918H48.105L60.0941 3.68945H36.4541Z" fill="#F5668F"/>
<path d="M317.195 31.5163V19.654H307.003V7.13623H293.745V19.654H284.505V31.5163H293.745V63.0857L307.003 48.3688V31.5163H317.195Z" fill="#231815"/>
<path d="M293.745 69.0695H307.003V48.3687L293.745 63.0855V69.0695Z" fill="#4AB3B3"/>
<path d="M208.425 37.8176C208.489 38.1348 208.531 38.4731 208.573 38.8114V39.192H185.885C186.139 38.1136 186.456 37.1198 186.9 36.2106C187.894 34.1595 189.353 32.5948 191.235 31.5376C193.138 30.4803 195.442 29.9517 198.191 29.9517C198.826 29.9517 199.418 30.0151 200.01 30.0997L196.056 18.6392C193.18 18.8295 190.473 19.4215 187.957 20.4576C184.87 21.7263 182.206 23.5448 179.964 25.8707C177.723 28.1967 175.989 30.9666 174.742 34.1384C173.494 37.3101 172.881 40.8413 172.881 44.6897C172.881 49.6165 173.98 53.9723 176.201 57.7573C178.4 61.5634 181.529 64.5448 185.547 66.7227C189.564 68.9006 194.237 70.0002 199.608 70.0002C201.849 70.0002 204.112 69.7253 206.417 69.1544C208.722 68.6046 210.963 67.78 213.141 66.6804C215.319 65.5809 217.306 64.2276 219.125 62.6206L212.781 53.7397C210.73 55.4102 208.806 56.6154 206.988 57.2921C205.19 57.9687 203.182 58.3282 201.004 58.3282C197.832 58.3282 195.083 57.715 192.736 56.5097C190.41 55.3045 188.592 53.5917 187.323 51.4138C186.604 50.1874 186.096 48.7918 185.8 47.3117H221.007L221.091 43.2096C221.091 43.125 221.091 43.0193 221.091 42.9347L208.425 37.8176Z" fill="#231815"/>
<path d="M203.245 31.0934C204.746 31.8758 205.972 32.933 206.945 34.2652C207.706 35.3436 208.214 36.5065 208.446 37.7964L221.091 42.8923C221.176 39.5091 220.689 36.3585 219.59 33.3982C218.469 30.3745 216.862 27.7525 214.79 25.5535C212.697 23.3544 210.223 21.6205 207.368 20.373C204.513 19.1254 201.384 18.5122 198.022 18.5122C197.366 18.5122 196.711 18.5545 196.077 18.5968L200.031 30.0573C201.173 30.2476 202.251 30.586 203.245 31.0934Z" fill="#2249D5"/>
<rect x="138" y="74" width="122.732" height="9.29789" fill="#F5668F"/>
</g>
<defs>
<clipPath id="clip0_1663_3069">
<rect width="386" height="83" fill="white"/>
</clipPath>
</defs>
</svg>
