<svg width="193" height="38" viewBox="0 0 193 38" fill="none" xmlns="http://www.w3.org/2000/svg">
<g clip-path="url(#clip0_489_1184)">
<path fill-rule="evenodd" clip-rule="evenodd" d="M180.944 21.6535C181.232 23.7456 183.01 25.5238 185.024 25.6807L185.025 25.6817C185.182 25.6593 185.321 25.6951 185.49 25.7389L185.52 25.7468L185.573 25.7602C185.455 25.7996 185.352 25.7945 185.252 25.7896C185.221 25.788 185.19 25.7865 185.159 25.7864C185.159 25.7899 185.158 25.7936 185.158 25.7975C185.157 25.8023 185.156 25.8073 185.155 25.8127C185.147 25.8087 185.14 25.8042 185.133 25.7992C185.126 25.7936 185.118 25.7875 185.111 25.7811C185.117 25.7904 185.123 25.8003 185.128 25.8114C183.01 25.9161 181.049 27.8774 180.918 29.9434H180.813C180.656 28.4266 179.898 27.2759 178.616 26.4652C178.025 26.0795 177.383 25.8454 176.665 25.788C176.654 25.7974 176.642 25.8059 176.629 25.8127C176.627 25.8027 176.626 25.7938 176.626 25.7859H176.211C176.258 25.7722 176.304 25.7551 176.35 25.7381C176.479 25.6898 176.605 25.6427 176.759 25.681C178.616 25.5241 180.342 23.9547 180.761 22.0456L180.839 21.6533L180.839 21.445H180.813C180.813 21.43 180.813 21.4153 180.812 21.4008L180.811 21.3678C180.807 21.2695 180.803 21.1777 180.866 21.0527C180.98 21.1671 180.954 21.2816 180.928 21.396C180.927 21.4033 180.925 21.4106 180.924 21.418H180.944C180.944 21.4181 180.944 21.4178 180.944 21.418V21.6535ZM185.086 25.7034C185.124 25.7046 185.163 25.7057 185.158 25.7663C185.15 25.7203 185.106 25.7185 185.07 25.717L185.059 25.7165L185.039 25.6966C185.052 25.7024 185.069 25.7029 185.086 25.7034ZM176.71 25.7172C176.688 25.7181 176.663 25.7199 176.646 25.7324C176.654 25.7176 176.675 25.7141 176.698 25.7104L176.713 25.7077C176.716 25.707 176.72 25.7063 176.723 25.7054L176.716 25.7118L176.71 25.7172Z" fill="white"/>
<path d="M180.839 29.9438V30.4669C180.965 30.3415 180.957 30.1995 180.948 30.0541C180.946 30.0178 180.944 29.9814 180.944 29.9449L180.945 29.9438H180.839Z" fill="white"/>
<path fill-rule="evenodd" clip-rule="evenodd" d="M192.843 23.1189C192.398 20.2945 191.222 17.8101 189.156 15.7964C186.906 13.6258 184.187 12.6059 181.048 12.9459C178.695 13.2074 176.681 14.2535 174.955 15.8749C174.589 16.241 174.249 16.6071 173.857 17.0517V4.65577C173.857 4.2635 173.831 3.87122 173.752 3.5051C173.334 1.46526 171.529 0.0792164 169.646 -0.0253906C169.411 -0.0253906 169.359 0.0269129 169.359 0.262279V35.8548C169.359 36.5348 169.829 37.1363 170.588 37.084C170.831 37.0666 171.062 37.0723 171.298 37.0781C171.417 37.081 171.537 37.084 171.66 37.084C171.953 37.0735 172.246 37.0798 172.539 37.086C172.978 37.0955 173.417 37.1049 173.857 37.0578C173.887 36.656 173.882 36.2456 173.878 35.8316V35.8188C173.875 35.5096 173.872 35.1984 173.883 34.8872V34.5211C174.014 34.5472 174.092 34.6257 174.118 34.7041C174.283 34.997 174.537 35.2002 174.792 35.4034C174.901 35.4905 175.01 35.5776 175.112 35.6718C175.635 36.1425 176.237 36.4563 176.864 36.7701C177.44 37.0317 178.041 37.2147 178.669 37.3455C179.289 37.4746 179.908 37.5272 180.528 37.5537H180.526C180.734 37.6058 180.942 37.6319 181.151 37.5547H181.179C181.755 37.5285 182.33 37.5024 182.905 37.4239C184.03 37.267 185.102 36.9532 186.122 36.5086C188.24 35.5672 189.914 34.1288 191.143 32.1413C192.058 30.6768 192.608 29.0815 192.869 27.3555C192.885 27.2454 192.893 27.1329 192.902 27.0202C192.922 26.7582 192.942 26.4948 193.052 26.2571V25.9956C193.028 25.9577 193.012 25.9197 193 25.8817V24.6377C193.012 24.5841 193.028 24.531 193.052 24.4788V24.348C192.919 24.062 192.896 23.7621 192.874 23.4584L192.874 23.457C192.865 23.3449 192.857 23.2315 192.843 23.1189ZM187.743 25.3157C187.743 27.6432 187.534 29.7092 186.802 31.6967C186.357 32.8735 185.73 33.9196 184.762 34.7303C183.428 35.8548 181.885 36.1686 180.185 36.0379C179.035 35.9333 177.989 35.6195 177.047 34.9395C175.74 33.9981 175.034 32.6643 174.563 31.1737C173.935 29.1077 173.831 26.9632 173.883 24.8188C173.935 22.9359 174.249 21.1052 175.007 19.3792C175.687 17.8363 176.655 16.5025 178.198 15.7441C180.787 14.4627 184.579 14.9073 186.383 18.4116C187.037 19.693 187.377 21.0791 187.586 22.4913C187.691 23.485 187.77 24.505 187.743 25.3157Z" fill="white"/>
<path d="M36.4817 36.0892C36.4294 36.6384 35.8539 37.1359 35.2262 37.1098C34.2586 37.0836 33.291 37.0836 32.2972 37.1098C32.0357 37.1098 31.9834 37.0313 31.9834 36.796V4.36778C31.9834 3.3217 32.3495 2.40639 33.0033 1.62184C33.8925 0.549618 35.0432 0.0527344 36.4292 0.0527344C36.4684 0.131189 36.4635 0.209643 36.4586 0.288097C36.457 0.31425 36.4553 0.340403 36.4553 0.366556V35.8545C36.4664 35.8655 36.4751 35.8789 36.4817 35.8939V0.418916C36.4817 0.288158 36.4817 0.157399 36.4556 0.000488281C36.534 0.0789411 36.5242 0.157394 36.5144 0.235847C36.5111 0.261998 36.5079 0.288159 36.5079 0.314309V35.7761L36.5118 35.7957C36.5364 35.9174 36.5562 36.0147 36.4817 36.0892Z" fill="white"/>
<path d="M116.14 34.8604C116.127 35.1743 116.127 35.4946 116.127 35.8182C116.127 36.1419 116.127 36.4688 116.114 36.7957C116.114 37.0572 116.192 37.1095 116.428 37.1095H136.957C137.427 37.1095 137.846 36.9003 138.134 36.4818C138.38 36.1453 138.396 35.7702 138.412 35.3897L138.412 35.3874L138.416 35.3068C138.417 35.2713 138.419 35.2359 138.421 35.2004C138.421 34.9127 138.343 34.8604 138.055 34.8604H120.638C120.625 34.8474 120.618 34.8408 120.612 34.8408C120.611 34.8408 120.61 34.841 120.609 34.8413L120.606 34.8424L120.603 34.8444L120.599 34.8478L120.594 34.852L120.586 34.8604H120.576C120.587 34.8527 120.599 34.8441 120.611 34.8347H120.638V34.7515C120.648 34.6935 120.644 34.6321 120.641 34.5742C120.64 34.5464 120.638 34.5194 120.638 34.494V4.55097C120.638 4.51828 120.641 4.48559 120.645 4.45289C120.652 4.37531 120.66 4.29777 120.624 4.22018C120.621 4.19874 120.617 4.1779 120.612 4.15799C120.586 3.92263 120.56 3.68726 120.507 3.47805C120.036 1.56897 118.546 0.261382 116.558 0.0260162C116.349 0.012932 116.244 0.00639407 116.192 0.0555304C116.14 0.104604 116.14 0.209211 116.14 0.418293L116.14 34.8604Z" fill="white"/>
<path d="M12.6836 34.4164C12.4216 33.8319 12.2062 33.232 11.9896 32.6285L11.9892 32.6275C11.9249 32.4484 11.8602 32.2683 11.7944 32.0889C10.9184 29.7221 10.0488 27.3554 9.17929 24.9887C8.30974 22.622 7.44018 20.2552 6.56409 17.8885C6.53794 17.8361 6.51179 17.7773 6.48564 17.7185C6.45949 17.6596 6.43333 17.6008 6.40718 17.5485C6.27642 17.1954 6.1522 16.8489 6.02798 16.5024C5.90377 16.1559 5.77953 15.8094 5.64878 15.4563L4.62886 12.7104C4.28889 11.8212 3.97507 10.9321 3.66125 10.0429C3.45161 9.4624 3.23204 8.88188 3.01478 8.3075C2.87977 7.95053 2.74546 7.59544 2.61518 7.24468C2.34529 6.53884 2.09189 5.81651 1.84189 5.10387C1.77696 4.91879 1.71226 4.73437 1.64756 4.55105C1.30759 3.60959 0.967615 2.69428 0.627642 1.77897C0.418428 1.22978 0.209214 0.680592 0 0.0791016H3.97507C4.86423 0.0791016 5.33496 0.419074 5.62263 1.25593L8.8393 10.0429C9.39981 11.5681 9.96687 13.0932 10.5339 14.6183L10.5391 14.6323C11.1079 16.1622 11.6768 17.6923 12.239 19.2222C12.7359 20.5691 13.2328 21.9225 13.7297 23.2759L13.7303 23.2775C14.227 24.6302 14.7237 25.983 15.2203 27.3292C15.2465 27.4077 15.2726 27.46 15.3511 27.5123L15.3585 27.52C15.8399 26.2969 16.3279 25.0673 16.8158 23.8378C17.3061 22.6021 17.7965 21.3664 18.2803 20.1372C18.6334 19.248 18.9799 18.3523 19.3264 17.4566C19.6729 16.561 20.0194 15.6652 20.3725 14.7761C20.7516 13.8085 21.1374 12.8409 21.5231 11.8733C21.9088 10.9057 22.2946 9.93804 22.6738 8.97039C23.1445 7.78049 23.6087 6.59059 24.0729 5.40069L24.0749 5.39561C24.5384 4.20753 25.002 3.01904 25.472 1.83096C25.5236 1.70849 25.5688 1.58125 25.6143 1.45316C25.7535 1.06158 25.8955 0.662049 26.2305 0.36646C26.4397 0.183397 26.675 0.0526386 26.9104 0.0526386C27.3086 0.0353236 27.7184 0.0409371 28.1395 0.0467077C28.3545 0.0496527 28.5724 0.0526386 28.7933 0.0526386C28.5057 0.758649 28.2442 1.43852 27.9827 2.11838C26.7013 5.38735 25.4197 8.65657 24.1122 11.9255C23.0399 14.7238 21.9416 17.5482 20.817 20.3987L16.8943 30.441L14.3052 36.9528C14.2666 37.059 14.2244 37.1616 14.1826 37.2633C14.1112 37.4371 14.0409 37.6082 13.9914 37.7896C13.9391 37.8158 13.8868 37.7896 13.8607 37.7373C13.695 37.2286 13.508 36.7306 13.3213 36.2336C13.0954 35.6321 12.8698 35.0321 12.6836 34.4164Z" fill="white"/>
<path d="M42.7581 37.1094V17.4699C42.7581 16.45 42.9673 15.5085 43.5688 14.6717C44.2749 13.7041 45.2163 13.1287 46.4193 12.9718C46.5108 12.9587 46.6089 12.9522 46.707 12.9457C46.805 12.9391 46.9031 12.9326 46.9946 12.9195C47.2039 12.8934 47.2562 12.998 47.23 13.181V35.8023C47.23 36.613 46.9162 37.0053 46.2362 37.1622L46.2186 37.1626C46.1495 37.1968 46.0804 37.1934 46.0113 37.1899C45.9904 37.1889 45.9695 37.1878 45.9486 37.1878H43.0719C43.037 37.1791 42.9992 37.1791 42.9615 37.1791C42.8866 37.1791 42.8118 37.1791 42.7596 37.1114L42.7581 37.1094Z" fill="white"/>
<path d="M60.097 33.2145L60.0965 33.2131C59.9592 32.8405 59.8219 32.4679 59.6781 32.0887C59.4958 31.6069 59.3201 31.1186 59.1444 30.6302L59.1423 30.6251C58.9658 30.1348 58.7889 29.6435 58.6059 29.1597C58.4751 28.8198 58.3509 28.4732 58.2266 28.1267C58.1024 27.7802 57.9782 27.4337 57.8475 27.0938C57.6644 26.6098 57.4813 26.1194 57.2982 25.629L57.2975 25.6271C57.1147 25.1375 56.9319 24.6478 56.7491 24.1648C56.6183 23.8116 56.4875 23.4519 56.3567 23.0923L56.3561 23.0905C56.2256 22.7317 56.095 22.3727 55.9645 22.0203L54.8662 19.039C54.7485 18.7121 54.6242 18.3787 54.5 18.0452C54.3758 17.7118 54.2516 17.3783 54.1339 17.0515C54.0119 16.7202 53.8869 16.3889 53.7619 16.0577C53.5121 15.3953 53.2621 14.7326 53.0355 14.0702C53.0113 14.0073 52.9863 13.9444 52.9611 13.8814C52.8503 13.6036 52.7382 13.3224 52.6956 13.0241C52.7086 13.0241 52.7152 13.0176 52.7217 13.011L52.7227 13.01C52.7279 12.9471 52.7691 12.9562 52.8104 12.9654C52.8251 12.9687 52.8399 12.972 52.8529 12.972H56.9588C57.0372 12.9458 57.1157 12.9196 57.168 12.9981H57.142C57.7692 13.1552 58.109 13.5996 58.3182 14.1748C58.8782 15.7117 59.4448 17.2486 60.0114 18.7856L60.0181 18.8037C60.5869 20.3466 61.1557 21.8896 61.7179 23.4325C61.9911 24.1879 62.2742 24.9433 62.5551 25.6926L62.5555 25.6937L62.5558 25.6947C62.7316 26.1637 62.9068 26.631 63.0778 27.0938C63.104 27.1722 63.1301 27.2245 63.2086 27.2768C63.2309 27.2992 63.2461 27.3215 63.2557 27.3439C63.2613 27.3125 63.2613 27.2812 63.2613 27.2498C63.7842 25.9426 64.3005 24.6289 64.8169 23.3152L64.8175 23.3135C65.334 21.9995 65.8504 20.6856 66.3734 19.3781C67.0795 17.5998 67.7856 15.8215 68.4917 14.017C68.7793 13.2847 69.2501 12.9971 70.0085 12.9971H71.4207C71.4468 12.9971 71.473 12.9971 71.5253 13.0232C69.7211 17.6584 67.9004 22.2772 66.0771 26.9026C64.6498 30.5234 63.2207 34.149 61.7968 37.7889C61.3523 36.6386 60.934 35.4882 60.5157 34.3378C60.372 33.959 60.2341 33.5868 60.097 33.2145Z" fill="white"/>
<path d="M45.975 2.92924C45.452 2.24932 45.1381 1.5171 45.0597 0.654131C45.0858 0.444917 45.0074 0.261891 44.929 0.10498V0.448054C44.9139 0.445954 44.8966 0.444824 44.8766 0.444824C44.6674 2.72003 42.8368 4.49835 40.5616 4.70756L40.5479 4.72122C40.4643 4.71012 40.3773 4.71878 40.2739 4.76013C40.3725 4.79955 40.4562 4.7944 40.5362 4.78947C40.5624 4.78786 40.5881 4.78628 40.6139 4.78628V4.78033L40.64 4.79183C40.6923 4.81508 40.7446 4.83832 40.7969 4.83832C42.1045 4.99523 43.1506 5.62287 43.9613 6.66894C44.1443 6.90431 44.3013 7.13968 44.432 7.40119C44.5889 7.66271 44.6674 7.95038 44.7458 8.23805C44.8243 8.49957 44.8766 8.78724 44.9289 9.07491C44.9409 9.03893 44.9474 9.00295 44.9534 8.96949C44.9605 8.92999 44.967 8.89401 44.9812 8.86569C44.9943 8.82646 45.0008 8.79378 45.0074 8.76109C45.0139 8.7284 45.0204 8.69571 45.0335 8.65648C45.295 7.42734 45.9227 6.40743 46.9687 5.64903C47.701 5.12599 48.5117 4.89062 49.3747 4.78602C49.3876 4.78602 49.3942 4.77962 49.4006 4.77315V4.78619C49.4154 4.78619 49.4311 4.78712 49.4477 4.7881C49.5194 4.79233 49.6083 4.79758 49.7145 4.73389H49.4006V4.74658C49.3942 4.74011 49.3876 4.73371 49.3747 4.73371C49.2178 4.73371 49.0609 4.73371 48.9301 4.70756C47.7271 4.4722 46.7334 3.89686 45.975 2.92924Z" fill="white"/>
<path fill-rule="evenodd" clip-rule="evenodd" d="M78.5076 25.5764C78.4924 25.5511 78.4821 25.5247 78.4754 25.4976C78.48 25.5317 78.4897 25.5664 78.5078 25.6026C78.5078 27.0671 78.717 28.5316 79.1093 29.9438C79.397 31.0161 79.8154 32.036 80.5738 32.8728C81.5676 33.945 82.7444 34.6511 84.1566 34.9911C85.8041 35.3834 87.4256 35.2788 88.9947 34.6773C89.8315 34.3373 90.5899 33.8404 91.296 33.2651C92.2375 32.5067 92.9436 31.5391 93.6235 30.5453C93.8327 30.2053 94.0943 30.0746 94.4604 30.0223H94.7742L95.6372 30.3361C95.768 30.3623 95.7941 30.4146 95.7157 30.5976C94.8004 32.1929 93.7281 33.6574 92.3159 34.8604C90.8253 36.1156 89.1254 36.8479 87.2425 37.2402C86.8957 37.3095 86.5373 37.3329 86.1828 37.356L86.1817 37.3561C86.0021 37.3678 85.8229 37.3795 85.6472 37.3971H85.5059C85.178 37.4409 84.861 37.4409 84.5331 37.3971H84.3397C83.5551 37.3709 82.7705 37.2402 82.0121 37.0571C80.6523 36.7171 79.4231 36.1418 78.2986 35.3049C76.3634 33.8666 75.0035 32.0098 74.2451 29.7085C73.9313 28.6885 73.722 27.6425 73.6697 26.5703C73.6588 26.5484 73.6525 26.5254 73.6488 26.5018C73.6224 26.4397 73.63 26.3731 73.6372 26.3105L73.6385 26.2992C73.6348 26.2754 73.6284 26.2522 73.6174 26.2303V24.7135C73.6273 24.6642 73.626 24.6181 73.6248 24.5748C73.6227 24.5033 73.6209 24.4382 73.6697 24.373C73.7482 22.8824 74.0359 21.4445 74.5851 20.0585C75.0035 19.0124 75.5527 17.9925 76.3111 17.1033C76.651 16.6849 76.991 16.2665 77.3833 15.9003C79.0308 14.4358 80.8876 13.4421 83.1105 13.1544C85.1765 12.8929 87.1902 13.0236 89.1516 13.8343C91.0345 14.6189 92.499 15.9265 93.5974 17.6264C94.565 19.1432 95.1665 20.7907 95.4018 22.5952C95.428 22.7913 95.4476 22.9874 95.4672 23.1835C95.4868 23.3797 95.5064 23.5758 95.5326 23.772C95.5424 23.8112 95.5412 23.8504 95.54 23.8896C95.5379 23.955 95.5359 24.0205 95.5849 24.0858V24.8442C95.5849 24.975 95.5326 25.0534 95.4018 25.0273H78.7693C78.7439 25.0273 78.714 25.0196 78.6831 25.0117C78.5909 24.988 78.4909 24.9623 78.4823 25.1332C78.5371 25.2258 78.5269 25.3313 78.5163 25.4407C78.512 25.4855 78.5076 25.531 78.5076 25.5764ZM78.4817 22.569C78.534 21.2091 78.6647 19.8754 79.2401 18.6463C79.9462 17.1295 80.9399 15.848 82.4306 15.0896C84.6273 13.9651 87.2948 14.4881 88.9424 16.3188C89.7008 17.1818 90.3807 18.0709 90.6161 19.2478C90.7468 19.9277 90.7991 20.6077 90.7207 21.3137C90.5899 22.2291 89.8054 22.8829 88.8116 22.8829H78.7693C78.5078 22.8567 78.4555 22.8306 78.4817 22.569Z" fill="white"/>
<path fill-rule="evenodd" clip-rule="evenodd" d="M165.253 33.5006C165.253 33.4483 165.227 33.3699 165.174 33.3699C165.096 33.3437 165.044 33.4222 165.017 33.4745C164.599 34.1021 163.998 34.4421 163.344 34.782C162.612 35.1743 161.801 34.8867 161.356 34.259C160.886 33.5791 160.755 32.8207 160.781 32.01C160.725 31.9357 160.735 31.8484 160.746 31.7572C160.75 31.7198 160.755 31.6818 160.755 31.6438V19.1694L160.748 19.1052C160.724 18.8871 160.698 18.6513 160.65 18.4372C160.232 16.685 159.081 15.482 157.538 14.6713C156.23 13.9652 154.792 13.756 153.328 13.6514C153.31 13.6479 153.292 13.6457 153.274 13.6446C153.209 13.6145 153.143 13.6205 153.078 13.6264C153.055 13.6285 153.033 13.6305 153.01 13.6311C152.985 13.6242 152.96 13.614 152.935 13.5991H151.523C151.492 13.6227 151.458 13.6345 151.423 13.6394C151.385 13.635 151.347 13.6324 151.309 13.6377L151.294 13.6358L151.275 13.6335C151.244 13.6293 151.212 13.6253 151.183 13.6253C151.032 13.6421 150.883 13.6563 150.735 13.6703C150.423 13.6998 150.116 13.729 149.797 13.7822C148.437 13.9652 147.104 14.3052 145.901 14.9852C144.933 15.5344 144.044 16.162 143.338 17.025C142.579 17.9403 142.187 18.9341 142.292 20.1109C142.37 21.0524 142.998 21.9154 143.808 22.1507C144.331 22.3077 144.881 22.2815 145.404 22.1769C146.685 21.8892 147.417 21.157 147.417 19.8232C147.417 19.2218 147.13 18.7249 146.764 18.2541C146.293 17.6265 146.371 17.1035 146.999 16.6327C148.123 15.7959 149.431 15.482 150.817 15.4297C151.105 15.3774 151.392 15.3774 151.654 15.4297C151.845 15.3915 152.037 15.4232 152.218 15.4532C152.284 15.4642 152.349 15.475 152.412 15.482C153.04 15.5605 153.615 15.7697 154.165 16.0574C154.661 16.3189 155.08 16.7111 155.498 17.1034C156.204 17.8095 156.544 18.6726 156.597 19.6402C156.614 20.3724 156.608 21.1047 156.602 21.8369C156.6 22.203 156.597 22.5692 156.597 22.9353C156.597 23.0922 156.544 23.1445 156.387 23.1445L156.194 23.1652C155.522 23.237 154.832 23.3106 154.165 23.406C152.935 23.5891 151.706 23.7722 150.477 24.0075C148.856 24.3475 147.234 24.7398 145.717 25.4459C144.462 26.0212 143.312 26.7796 142.396 27.8518C141.559 28.8194 141.115 29.9178 141.089 31.147C141.089 32.01 141.219 32.8991 141.533 33.736C141.795 34.4421 142.109 35.122 142.658 35.6451C143.207 36.1419 143.861 36.4819 144.541 36.7173C145.508 37.0573 146.502 37.2142 147.522 37.2403C147.6 37.2501 147.679 37.2489 147.757 37.2477C147.888 37.2456 148.019 37.2436 148.15 37.2926H148.437C148.552 37.2435 148.677 37.2456 148.799 37.2477C148.872 37.2489 148.944 37.2501 149.013 37.2403C152.203 37.188 154.583 35.5143 156.675 33.2652C156.721 33.372 156.764 33.4766 156.807 33.5789C156.91 33.8275 157.008 34.0629 157.12 34.2852C157.538 35.0959 158.009 35.8804 158.741 36.4296C159.421 36.9265 160.206 37.2142 161.069 37.2403C161.118 37.2501 161.167 37.2489 161.216 37.2477C161.297 37.2456 161.379 37.2436 161.461 37.2926H161.67C161.746 37.2359 161.835 37.2475 161.918 37.2583C161.932 37.2601 161.945 37.2619 161.959 37.2633C161.976 37.2652 161.994 37.2665 162.01 37.2665C162.402 37.2403 162.768 37.1619 163.108 37.0573C163.71 36.848 164.311 36.5604 164.678 36.0112C165.253 35.3312 165.436 34.4421 165.253 33.5006ZM156.623 25.1844C156.605 25.534 156.611 25.8953 156.617 26.2527C156.62 26.43 156.623 26.6062 156.623 26.7796C156.623 26.917 156.624 27.0543 156.624 27.1916C156.63 28.1522 156.636 29.1105 156.361 30.0486C155.498 32.9776 153.589 34.782 150.608 35.4097C149.536 35.6451 148.437 35.6189 147.496 34.8867C146.214 33.8667 145.639 32.533 145.77 30.8854C145.822 30.3101 145.901 29.7348 146.084 29.2117C146.424 28.1395 147.104 27.3549 148.123 26.8319C149.379 26.2043 150.712 25.8643 152.072 25.6028C153.158 25.3774 154.26 25.2163 155.353 25.0564C155.655 25.0122 155.956 24.9682 156.257 24.9228C156.492 24.8444 156.623 24.8444 156.623 25.1844Z" fill="white"/>
<path d="M160.781 31.6702V19.5881C160.781 19.4835 160.781 19.3526 160.755 19.1958C160.818 19.2586 160.813 19.3213 160.809 19.3841C160.808 19.3998 160.807 19.4155 160.807 19.4312V32.0363C160.782 31.9852 160.775 31.9278 160.775 31.8673C160.774 31.9301 160.781 31.9962 160.807 32.0624C160.73 31.9338 160.754 31.8053 160.78 31.7264C160.78 31.7077 160.781 31.689 160.781 31.6702Z" fill="white"/>
<path d="M150.817 15.5085H151.654C151.522 15.482 151.383 15.4689 151.24 15.4692C151.119 15.4695 150.995 15.4795 150.871 15.4993L150.844 15.5038L150.817 15.5085Z" fill="white"/>
<path d="M147.974 37.4225C147.841 37.4301 147.708 37.4377 147.575 37.3711C147.653 37.3809 147.732 37.3797 147.81 37.3785C147.941 37.3764 148.072 37.3744 148.202 37.4234C148.126 37.4139 148.05 37.4182 147.974 37.4225Z" fill="white"/>
<path d="M148.571 37.4261C148.544 37.4245 148.516 37.4234 148.49 37.4234C148.604 37.3743 148.729 37.3764 148.851 37.3785C148.924 37.3797 148.997 37.3809 149.065 37.3711C148.927 37.45 148.774 37.4396 148.629 37.4298C148.609 37.4285 148.59 37.4272 148.571 37.4261Z" fill="white"/>
<path d="M161.371 37.4225C161.288 37.4301 161.204 37.4377 161.121 37.3711C161.17 37.3809 161.223 37.3797 161.275 37.3784C161.362 37.3764 161.448 37.3744 161.513 37.4234C161.466 37.4139 161.418 37.4182 161.371 37.4225Z" fill="white"/>
<path d="M161.932 37.384C161.89 37.3793 161.847 37.3771 161.806 37.3858C161.792 37.3865 161.779 37.3876 161.766 37.3893C161.759 37.3902 161.752 37.3912 161.745 37.3924C161.737 37.3938 161.73 37.3954 161.722 37.3972C161.732 37.3997 161.742 37.4021 161.752 37.4045C161.742 37.4096 161.732 37.4158 161.722 37.4231C161.727 37.4207 161.732 37.4186 161.737 37.4166C161.741 37.4147 161.746 37.413 161.751 37.4115C161.756 37.41 161.76 37.4086 161.765 37.4074C161.841 37.424 161.925 37.4341 162.002 37.4046C162.023 37.404 162.043 37.4018 162.062 37.397C162.05 37.397 162.037 37.3962 162.024 37.395C162.037 37.3884 162.05 37.3805 162.062 37.3711C162.022 37.3812 161.977 37.3835 161.932 37.384Z" fill="white"/>
<path d="M95.5868 24.0197C95.588 24.0062 95.5896 23.9924 95.5912 23.9786C95.601 23.8936 95.6113 23.8047 95.5325 23.7456C95.5429 23.7874 95.545 23.8293 95.5471 23.8711C95.5503 23.9339 95.5534 23.9967 95.5848 24.0594C95.5848 24.0465 95.5856 24.0333 95.5868 24.0197Z" fill="white"/>
<path d="M94.7729 29.9962L94.7738 29.9968L94.7711 29.9962H94.4626L94.46 29.9968L94.4608 29.9962C94.5646 29.919 94.6692 29.919 94.7729 29.9962Z" fill="white"/>
</g>
<defs>
<clipPath id="clip0_489_1184">
<rect width="193" height="37.7893" fill="white"/>
</clipPath>
</defs>
</svg>
