<svg width="27" height="17" viewBox="0 0 27 17" fill="none" xmlns="http://www.w3.org/2000/svg">
<path d="M16.2842 15.4106C18.9837 13.7975 21.5759 12.2 21.9692 9.20869C20.9144 9.287 19.9133 9.50626 18.9658 9.39663C16.606 9.13038 15.0506 7.86181 14.4249 5.90414C13.8529 4.11873 14.4249 2.45862 16.0518 1.23703C17.8931 -0.156832 20.0384 -0.329107 22.2195 0.500947C25.1513 1.61291 26.2776 3.75852 26.0273 6.85948C25.7949 9.70985 24.0608 11.8868 21.7904 13.7818C20.8608 14.5492 19.7881 15.1757 18.8228 15.9118C18.1613 16.4129 17.6071 16.4129 16.9993 15.8804C16.8026 15.7238 16.5702 15.6142 16.2842 15.4106Z" fill="#E06897"/>
<path d="M2.07517 15.4106C4.77465 13.7975 7.36687 12.2 7.76017 9.20869C6.70541 9.287 5.70427 9.50626 4.75677 9.39663C2.39696 9.13038 0.841653 7.86181 0.215946 5.90414C-0.356128 4.11874 0.215942 2.45862 1.84278 1.23703C3.68415 -0.156832 5.82943 -0.329107 8.01046 0.500947C10.9423 1.61291 12.0686 3.75852 11.8183 6.85948C11.5859 9.70985 9.85182 11.8868 7.5814 13.7818C6.65178 14.5492 5.57914 15.1757 4.61377 15.9118C3.95231 16.4129 3.39809 16.4129 2.79027 15.8804C2.59361 15.7238 2.36121 15.6142 2.07517 15.4106Z" fill="#E06897"/>
</svg>
