<svg width="265" height="66" viewBox="0 0 265 66" fill="none" xmlns="http://www.w3.org/2000/svg">
<g filter="url(#filter0_bd_1512_1417)">
<g clip-path="url(#clip0_1512_1417)">
<path d="M260.395 37.4428C255.786 37.4428 251.191 37.4428 246.478 37.4428C246.478 40.3149 246.191 43.0435 246.621 45.6676C246.791 46.7251 248.515 48.2787 249.507 48.2656C250.512 48.2525 251.726 46.712 252.418 45.5893C252.966 44.7146 252.875 43.4351 253.097 42.1427C255.303 42.2732 257.431 42.4038 259.533 42.5343C260.852 47.4431 258.685 52.13 254.037 53.3572C244.128 55.9552 239.297 52.2344 238.684 44.6101C238.122 37.6255 238.253 30.5104 238.932 23.5258C239.519 17.5073 243.788 14.7657 250.225 15.0007C256.23 15.2096 259.011 17.8729 259.886 24.2439C259.977 24.8836 260.225 25.4972 260.395 26.1238C260.395 29.8968 260.395 33.6698 260.395 37.4428ZM252.575 32.2729C252.405 29.1657 252.496 26.3197 251.987 23.5911C251.778 22.4553 250.408 20.9017 249.337 20.6928C247.431 20.3142 246.543 22.0767 246.452 23.7739C246.295 26.5546 246.413 29.3485 246.413 32.2729C248.384 32.2729 250.225 32.2729 252.575 32.2729Z" fill="white"/>
<path d="M210.719 0C213.278 0 215.693 0 218.461 0C218.461 6.26654 218.461 12.507 218.461 19.2435C219.936 17.9641 220.889 16.9327 222.012 16.1755C226.32 13.2772 231.999 15.3661 233.017 20.6404C234.727 29.5833 234.989 38.6959 232.939 47.6127C231.203 55.1194 224.466 56.2683 218.552 50.4195C216.933 53.8531 216.737 53.9184 210.719 53.1742C210.719 35.5104 210.719 17.8335 210.719 0ZM218.552 34.936C218.552 38.3173 218.356 41.7247 218.669 45.0669C218.774 46.1113 220.132 47.6257 221.15 47.8346C222.155 48.0435 223.722 47.1427 224.544 46.2549C225.21 45.5499 225.38 44.1661 225.393 43.0694C225.497 37.534 225.51 31.9985 225.471 26.4631C225.458 25.3534 225.249 24.2045 224.897 23.1601C224.022 20.549 221.698 20.0007 220.001 22.1157C219.192 23.1209 218.682 24.5962 218.591 25.9017C218.408 28.9175 218.539 31.9332 218.552 34.936Z" fill="white"/>
<path d="M153.472 15.9927C156.357 15.9927 158.942 15.9927 161.697 15.9927C161.697 28.4474 161.697 40.85 161.697 53.2264C156.109 54.1664 155.913 54.075 154.347 49.2967C152.31 52.0122 150.065 54.1141 146.527 54.1011C142.623 54.1011 140.573 52.6389 139.62 48.8528C139.372 47.8606 139.203 46.8162 139.19 45.7849C139.15 36.3589 139.15 26.933 139.15 17.5071C139.15 17.0502 139.229 16.6063 139.281 15.9927C141.905 15.9927 144.399 15.9927 147.219 15.9927C147.271 16.9849 147.362 17.9771 147.362 18.9693C147.375 26.6066 147.362 34.2309 147.375 41.8683C147.375 42.8082 147.349 43.7613 147.48 44.6882C147.715 46.3462 147.715 48.3829 150.208 48.1348C152.375 47.9259 153.498 46.6204 153.485 44.3227C153.446 37.4425 153.472 30.5624 153.472 23.6822C153.472 21.1887 153.472 18.669 153.472 15.9927Z" fill="white"/>
<path d="M182.624 15.9277C185.536 15.9277 187.977 15.9277 190.758 15.9277C190.81 16.9591 190.888 17.9513 190.888 18.9435C190.901 26.5809 190.888 34.2182 190.901 41.8555C190.901 42.7955 190.849 43.7486 190.967 44.6755C191.189 46.3596 191.254 48.3571 193.695 48.1482C195.862 47.9654 197.011 46.6729 196.998 44.3622C196.959 38.1348 196.985 31.9205 196.985 25.6931C196.985 22.5076 196.985 19.3221 196.985 15.993C199.844 15.993 202.429 15.993 205.184 15.993C205.184 28.4086 205.184 40.7197 205.184 53.2789C203.147 53.2789 201.137 53.2789 198.944 53.2789C198.669 52.0909 198.369 50.8376 197.99 49.2057C196.802 50.4459 195.928 51.647 194.779 52.5087C189.857 56.2294 183.734 53.8011 182.846 47.7826C182.611 46.203 182.611 44.5841 182.611 42.9914C182.611 34.0615 182.624 25.1317 182.624 15.9277Z" fill="white"/>
<path d="M104.815 1.85352C107.7 1.85352 110.324 1.85352 113.144 1.85352C110.651 10.8747 108.366 19.7915 105.677 28.5908C104.006 34.074 103.157 39.5572 103.457 45.2624C103.588 47.8734 103.483 50.4975 103.483 53.2653C100.676 53.2653 98.1698 53.2653 95.2324 53.2653C95.2324 50.7978 95.0235 48.3565 95.2715 45.9674C96.1201 37.7295 93.3393 30.1574 91.2505 22.4678C89.3966 15.666 87.5428 8.87726 85.6367 1.87963C88.4436 1.87963 90.9502 1.87963 93.9007 1.87963C95.624 10.1436 97.3604 18.5251 99.1098 26.9066C99.2403 26.8936 99.3709 26.8936 99.4884 26.8805C101.251 18.6165 103.013 10.3395 104.815 1.85352Z" fill="white"/>
<path d="M134.712 35.4448C134.437 38.1603 134.333 41.6722 133.693 45.0665C132.479 51.542 129.294 54.0094 122.727 54.0355C116.186 54.0616 112.452 51.6073 111.865 45.1057C111.212 37.9514 111.356 30.6143 112.152 23.4731C112.831 17.4677 116.97 14.9088 123.262 15.0263C129.189 15.1438 132.401 17.8071 133.68 23.7081C133.837 24.4392 134.033 25.1833 134.085 25.9275C134.307 28.8388 134.477 31.7502 134.712 35.4448ZM126.33 34.9226C126.121 31.3193 125.978 27.7552 125.677 24.2042C125.521 22.4287 124.777 20.4704 122.688 20.9795C121.565 21.2537 120.116 23.1206 120.077 24.3086C119.829 31.2541 119.842 38.2125 120.077 45.1579C120.116 46.2285 121.565 47.8473 122.649 48.1476C124.581 48.6829 125.495 47.0248 125.651 45.2754C125.952 41.8419 126.108 38.3692 126.33 34.9226Z" fill="white"/>
<path d="M184.687 1.85352C184.687 4.22958 184.687 6.25315 184.687 8.4856C181.998 8.4856 179.491 8.4856 176.593 8.4856C176.593 23.4992 176.593 38.317 176.593 53.5394C174.1 53.5394 171.972 53.5394 169.844 53.5394C167.82 53.5394 168.316 52.012 168.303 50.8892C168.277 38.7347 168.29 26.5802 168.29 14.4258C168.29 12.5719 168.29 10.705 168.29 8.57699C165.392 8.57699 162.807 8.57699 160.039 8.57699C160.039 6.18787 160.039 4.07292 160.039 1.85352C168.303 1.85352 176.384 1.85352 184.687 1.85352Z" fill="white"/>
</g>
<g filter="url(#filter1_d_1512_1417)">
<path d="M53.3617 30.3049L34.7695 19.6465V41.1237L53.3617 30.3049Z" fill="#F9FCFF"/>
<path d="M76.3055 13.0838C75.8968 11.5614 75.0954 10.1732 73.9815 9.05789C72.8676 7.94261 71.4804 7.13944 69.9586 6.72877C64.3569 5.22217 41.9021 5.22217 41.9021 5.22217C41.9021 5.22217 19.4472 5.22217 13.8456 6.72076C12.3231 7.1301 10.9351 7.93282 9.82105 9.0483C8.70698 10.1638 7.90601 11.5528 7.49859 13.0757C6 18.6854 6 30.3857 6 30.3857C6 30.3857 6 42.0859 7.49859 47.6876C8.32402 50.7809 10.7602 53.2171 13.8456 54.0426C19.4472 55.5492 41.9021 55.5492 41.9021 55.5492C41.9021 55.5492 64.3569 55.5492 69.9586 54.0426C73.0519 53.2171 75.4801 50.7809 76.3055 47.6876C77.8041 42.0859 77.8041 30.3857 77.8041 30.3857C77.8041 30.3857 77.8041 18.6854 76.3055 13.0838ZM34.7697 41.1242V19.6471L53.3619 30.3055L34.7697 41.1242Z" fill="#FE0400"/>
</g>
</g>
<defs>
<filter id="filter0_bd_1512_1417" x="-1" y="-7" width="268.395" height="70.5493" filterUnits="userSpaceOnUse" color-interpolation-filters="sRGB">
<feFlood flood-opacity="0" result="BackgroundImageFix"/>
<feGaussianBlur in="BackgroundImageFix" stdDeviation="3.5"/>
<feComposite in2="SourceAlpha" operator="in" result="effect1_backgroundBlur_1512_1417"/>
<feColorMatrix in="SourceAlpha" type="matrix" values="0 0 0 0 0 0 0 0 0 0 0 0 0 0 0 0 0 0 127 0" result="hardAlpha"/>
<feOffset dy="4"/>
<feGaussianBlur stdDeviation="2"/>
<feComposite in2="hardAlpha" operator="out"/>
<feColorMatrix type="matrix" values="0 0 0 0 0 0 0 0 0 0 0 0 0 0 0 0 0 0 0.25 0"/>
<feBlend mode="normal" in2="effect1_backgroundBlur_1512_1417" result="effect2_dropShadow_1512_1417"/>
<feBlend mode="normal" in="SourceGraphic" in2="effect2_dropShadow_1512_1417" result="shape"/>
</filter>
<filter id="filter1_d_1512_1417" x="0.777883" y="5.22217" width="82.2489" height="60.7714" filterUnits="userSpaceOnUse" color-interpolation-filters="sRGB">
<feFlood flood-opacity="0" result="BackgroundImageFix"/>
<feColorMatrix in="SourceAlpha" type="matrix" values="0 0 0 0 0 0 0 0 0 0 0 0 0 0 0 0 0 0 127 0" result="hardAlpha"/>
<feOffset dy="5.22212"/>
<feGaussianBlur stdDeviation="2.61106"/>
<feComposite in2="hardAlpha" operator="out"/>
<feColorMatrix type="matrix" values="0 0 0 0 0 0 0 0 0 0 0 0 0 0 0 0 0 0 0.25 0"/>
<feBlend mode="normal" in2="BackgroundImageFix" result="effect1_dropShadow_1512_1417"/>
<feBlend mode="normal" in="SourceGraphic" in2="effect1_dropShadow_1512_1417" result="shape"/>
</filter>
<clipPath id="clip0_1512_1417">
<rect width="174.758" height="54.2839" fill="white" transform="translate(85.6367)"/>
</clipPath>
</defs>
</svg>
