<svg width="26" height="17" viewBox="0 0 26 17" fill="none" xmlns="http://www.w3.org/2000/svg">
<path d="M23.525 0.873212C20.8255 2.48634 18.2512 4.06814 17.84 7.07513C18.8948 6.99682 19.8959 6.77756 20.8434 6.88719C23.2032 7.15344 24.7585 8.42201 25.3843 10.3797C25.9563 12.1651 25.3843 13.8252 23.7574 15.0468C21.916 16.4407 19.7708 16.6129 17.5897 15.7829C14.6579 14.6709 13.5316 12.5253 13.7819 9.42434C14.0143 6.57396 15.7484 4.39703 18.0188 2.502C18.9484 1.73459 20.0211 1.10813 20.9864 0.372047C21.6479 -0.129118 22.2021 -0.129118 22.8099 0.40337C23.0066 0.559984 23.239 0.669614 23.525 0.873212Z" fill="#E06897"/>
<path d="M9.7591 0.873212C7.05962 2.48634 4.48528 4.06814 4.0741 7.07513C5.12887 6.99682 6.13 6.77756 7.0775 6.88719C9.43731 7.15344 10.9926 8.42201 11.6183 10.3797C12.1904 12.1651 11.6183 13.8252 9.9915 15.0468C8.15014 16.4407 6.00486 16.6129 3.82382 15.7829C0.909816 14.6709 -0.216456 12.5253 0.0338267 9.42434C0.266232 6.57396 2.00033 4.39703 4.27076 2.502C5.20038 1.73459 6.27302 1.10813 7.23839 0.372047C7.89985 -0.129118 8.45405 -0.129118 9.06188 0.40337C9.24065 0.559984 9.47306 0.669614 9.7591 0.873212Z" fill="#E06897"/>
</svg>
