<?xml version="1.0" encoding="utf-8"?>
<!-- Generator: Adobe Illustrator 23.0.2, SVG Export Plug-In . SVG Version: 6.00 Build 0)  -->
<svg version="1.1" id="圖層_1" xmlns="http://www.w3.org/2000/svg" xmlns:xlink="http://www.w3.org/1999/xlink" x="0px" y="0px"
	 viewBox="0 0 48 48" style="enable-background:new 0 0 48 48;" xml:space="preserve">
<style type="text/css">
	.st0{fill:#D3658E;}
	.st1{fill:#040000;}
	.st2{fill:none;}
</style>
<g>
	<title>VliveLab_icon</title>
	<path class="st0" d="M22.3,39.8c-0.4-0.7-0.5-1.5-0.9-2.3C19,30.8,16.5,24,14.2,17.2c-1.5-4-2.9-8-4.4-12C9.8,5.1,9.7,5,9.6,5V4.9
		h4.1c0.6-0.1,1.4,0.3,1.5,1.1c0.8,2.3,1.6,4.7,2.5,7c2.4,6.4,4.6,12.9,7,19.3c0.1,0.2,0.2,0.3,0.3,0.5c0.1,0.2,0,0.2,0,0.3
		c-0.8,2.1-1.6,4.3-2.5,6.4C22.4,39.8,22.4,39.8,22.3,39.8z"/>
	<path class="st1" d="M22.3,39.8c0.5-1.1,0.9-2.2,1.4-3.3l1.4-3.7c3.5-9,7-18,10.5-27c0.3-0.5,0.6-0.9,1.1-1.1h2.1
		c-0.4,0.8-0.5,1.5-0.8,2.3c-3.3,8.2-6.4,16.3-9.5,24.5L23.7,43c0,0.1,0,0.2-0.2,0.2l-1.2-3.1C22.3,40,22.3,40,22.3,39.8z"/>
</g>
<rect class="st2" width="48" height="48"/>
</svg>
