<svg width="30" height="30" viewBox="0 0 30 30" fill="none" xmlns="http://www.w3.org/2000/svg">
<g clip-path="url(#clip0_1001_2412)">
<path d="M16.9998 29V20L16.4998 19.5H19.9998V15.5H16.9998C16.8331 13.5 16.6998 9.5 17.4998 9.5H20.9998V5.99999H16.4998C13.2998 5.99999 12.4998 9 12.4998 10.5V15.5H9.49976V19.5H11.9998L12.4998 20V28.9292C14.6302 28.6304 13.4341 28.8443 12.4998 29V28.9292C12.35 28.9502 12.1837 28.9737 11.9998 29C9.19976 29.4 5.16643 25.8333 3.49976 24C-2.10024 17.2 1.16643 9.16666 3.49976 5.99999C9.89976 -1.20001 17.8331 0.333321 20.9998 1.99999C27.3998 4.39999 29.3331 11.3333 29.4998 14.5C30.2998 19.3 26.8331 23.8333 24.9998 25.5C22.5998 28.3 18.6664 29 16.9998 29Z" fill="#E06897"/>
<path d="M9.0996 18.93V19.43H9.5996H12.6528V25.607V28.8992V29.3614C5.77339 28.2341 0.5 22.2448 0.5 15.0309C0.5 7.01403 7.00978 0.5 15 0.5C22.9902 0.5 29.5 7.01403 29.5 15.0309C29.5 22.4433 23.9276 28.5685 16.7719 29.4361V29.416L17.3523 29.3205C24.2206 28.1911 29.4906 22.2254 29.4906 15.0309C29.4906 7.02858 22.9883 0.528807 15 0.528807C7.01168 0.528807 0.509421 7.02858 0.509421 15.0309C0.509421 22.011 5.46487 27.8601 12.0418 29.2241L12.6433 29.3489V28.7346V19.9588V19.4588H12.1433H9.09017V15.0988H12.1433H12.6433V14.5988V9.25115C12.6489 9.21375 12.6631 9.12853 12.6922 9.00887C12.6678 9.12356 12.658 9.20217 12.6551 9.23101L12.6528 9.25537V9.27984V15.1276H9.5996H9.0996V15.6276V18.93ZM16.7719 19.4588V19.43H19.5626H20.0619V19.4588H17.2712H16.7719ZM20.0619 15.0988V15.1276H19.5626H16.9697L16.9695 15.0988H17.463H20.0619ZM16.9522 10.6437L16.9338 10.7076L16.9337 10.697L16.9343 10.6933C17.1392 9.82163 17.9096 9.61219 18.2141 9.53292H20.3499H20.8493V9.57202H18.21V10.072V10.0728C18.208 10.0735 18.2035 10.0748 18.1967 10.0768C18.1432 10.0921 17.948 10.148 17.7631 10.2942C17.7281 10.224 17.7062 10.1392 17.7119 10.0428C17.7206 9.89527 17.7904 9.79655 17.8244 9.75511C17.8618 9.70964 17.8988 9.68104 17.9173 9.6676C17.9551 9.64023 17.9881 9.62463 17.9981 9.61994C18.0125 9.61318 18.0242 9.60854 18.0304 9.60615C18.0429 9.60135 18.0526 9.59824 18.0553 9.59736C18.0591 9.59613 18.0632 9.59491 18.0632 9.5949C18.0632 9.5949 18.0608 9.59558 18.0542 9.59749C18.0356 9.60284 18.0035 9.61224 17.963 9.62613C17.8831 9.65357 17.7694 9.69893 17.6454 9.77112C17.3978 9.91531 17.0847 10.183 16.9522 10.6437ZM20.8493 6.0144V6.04321H20.3499H16.3728H16.349L16.3253 6.04548C15.0896 6.16354 14.2524 6.62923 13.6949 7.1804C14.2389 6.62546 15.0683 6.13823 16.346 6.0144H20.8493Z" fill="white" stroke="#E06897"/>
</g>
<defs>
<clipPath id="clip0_1001_2412">
<rect width="30" height="30" fill="white"/>
</clipPath>
</defs>
</svg>
