<svg width="30" height="30" viewBox="0 0 30 30" fill="none" xmlns="http://www.w3.org/2000/svg">
<path d="M17.8357 9.92115H18.1929C17.9827 9.96221 17.7788 10.0199 17.5875 10.1L17.7806 10.5612L17.5875 10.1C17.4743 10.1474 17.4035 10.222 17.3717 10.2585C17.3347 10.3009 17.307 10.3433 17.2884 10.3738C17.2536 10.431 17.2216 10.496 17.2005 10.5389L17.1979 10.5442C17.1769 10.5868 17.1626 10.6157 17.1505 10.6378L17 10.7527V10.5C17.2047 10.2953 17.3626 10.1487 17.4983 10.0488C17.611 9.96593 17.6845 9.93338 17.7313 9.92115H17.8357ZM17.1332 10.6667C17.1332 10.6666 17.1345 10.6645 17.1373 10.6608C17.1346 10.665 17.1332 10.6668 17.1332 10.6667Z" fill="white" stroke="white"/>
</svg>
