<svg width="30" height="30" viewBox="0 0 30 30" fill="none" xmlns="http://www.w3.org/2000/svg">
<path d="M30 15.0309C30 6.73868 23.2672 0 15 0C6.73284 0 0 6.73868 0 15.0309C0 22.6955 5.7537 29.0226 13.1528 29.9383V28.8992V25.607V18.93H9.5996V15.6276H13.1528V9.27984C13.1629 9.17696 13.4657 6.82099 16.3728 6.54321H20.3499V9.03292H18.1494C18.0888 9.0535 16.7463 9.25926 16.4435 10.5967L16.4334 10.6584L16.4738 15.6276H19.5626V18.93H16.2719V25.5967V29.9897C23.9435 29.3519 30 22.8909 30 15.0309ZM17.2712 28.8272V19.9588H20.5619V14.5988H17.463L17.4327 10.7819C17.6043 10.1852 18.2402 10.072 18.21 10.072H21.3493V5.5144H16.3223C12.5673 5.8642 12.1534 9.12551 12.1433 9.21811V14.5988H8.59017V19.9588H12.1433V28.7346C5.79408 27.4177 1.00942 21.7695 1.00942 15.0309C1.00942 7.30453 7.28802 1.02881 15 1.02881C22.712 1.02881 28.9906 7.30453 28.9906 15.0309C28.9906 21.9753 23.9031 27.7366 17.2712 28.8272Z" fill="white"/>
</svg>
