<svg width="262" height="74" viewBox="0 0 262 74" fill="none" xmlns="http://www.w3.org/2000/svg">
<path d="M65.8896 63.1104H237.89V73.1104H65.8896V63.1104Z" fill="#D5544C"/>
<path d="M100.055 19.7536C98.2204 17.8272 96.0188 16.2677 93.542 15.1669C91.0651 14.066 88.3131 13.5156 85.4693 13.5156C82.1668 13.5156 79.1395 14.066 76.3875 15.2586C73.6354 16.3594 71.2503 18.0106 69.3239 20.1206C67.3057 22.2305 65.8379 24.7073 64.6454 27.5511C63.5446 30.3949 62.9941 33.5139 62.9941 36.9998C62.9941 41.3114 64.0032 45.1643 65.9297 48.5585C67.9478 51.9527 70.6999 54.613 74.1858 56.5394C77.7635 58.4659 81.7999 59.475 86.3866 59.475C88.4048 59.475 90.5147 59.1997 92.6246 58.6493C94.7345 58.0989 96.7527 57.365 98.6791 56.356C100.606 55.3469 102.349 54.1543 103.816 52.7783L98.6791 45.7147C96.6609 47.4576 94.8263 48.6502 93.0833 49.2923C91.3403 49.9345 89.5056 50.3014 87.3957 50.3014C84.4602 50.3014 81.8916 49.751 79.6899 48.5585C77.4883 47.4576 75.7453 45.8064 74.5528 43.6965C73.7272 42.2287 73.1767 40.6692 72.9933 38.9263H105.468L105.559 35.3486C105.651 32.2296 105.192 29.3858 104.183 26.7255C103.266 23.8817 101.89 21.6801 100.055 19.7536ZM78.4974 24.1569C80.3321 23.0561 82.6255 22.5974 85.3775 22.5974C87.1205 22.5974 88.7717 22.9643 90.2395 23.6982C91.7073 24.4321 92.8998 25.4412 93.9089 26.8172C94.8262 28.1015 95.3767 29.661 95.5601 31.404V31.8627H73.2685C73.5437 30.7618 73.8189 29.7528 74.2776 28.8354C75.1949 26.7255 76.6627 25.2577 78.4974 24.1569Z" fill="black"/>
<path d="M154.638 42.9623L144.914 21.1293H138.767L129.043 43.3292L119.962 14.4326L109.504 14.5244L124.273 58.5572H131.52L141.519 34.1557L151.886 58.5572H159.316L174.177 14.5244H163.628L154.638 42.9623Z" fill="black"/>
<path d="M191.148 22.6885C191.699 22.3216 192.433 22.0464 193.258 21.7712C193.717 21.6794 194.267 21.5877 194.91 21.496L190.782 14.0654C190.323 14.1572 189.864 14.2489 189.406 14.4324C187.387 15.0745 185.644 15.9001 184.177 17.0927C182.709 18.2852 181.516 19.6613 180.599 21.2208C179.773 22.7803 179.315 24.615 179.315 26.5414C179.315 28.1009 179.59 29.5687 180.049 30.853C180.507 32.229 181.241 33.4216 182.158 34.4306C183.259 35.7149 184.819 36.9075 186.837 37.9166C188.855 38.9257 191.332 39.843 194.359 40.6686C196.286 41.1273 197.845 41.586 199.038 42.0447C200.23 42.5033 201.148 42.8703 201.698 43.329C202.707 44.1546 203.166 45.1637 203.166 46.5397C203.166 47.2736 202.982 47.9157 202.707 48.4661C202.432 49.0165 201.973 49.5669 201.423 50.0256C200.872 50.4843 200.23 50.8512 199.496 51.0347C198.762 51.2182 197.937 51.4016 196.928 51.4016C194.634 51.4016 192.433 50.943 190.415 50.1174C188.396 49.2917 186.47 47.9157 184.819 45.9893L178.122 51.7686C180.049 54.2454 182.617 56.0801 185.644 57.4562C188.763 58.7405 192.249 59.3826 196.102 59.3826C199.313 59.3826 202.157 58.8322 204.634 57.6396C207.202 56.4471 209.22 54.8876 210.688 52.7777C212.156 50.7595 212.89 48.3744 212.89 45.7141C212.89 44.0628 212.706 42.5951 212.248 41.3108C211.789 39.9347 211.055 38.8339 209.954 37.8248C208.853 36.6323 207.477 35.6232 205.643 34.7058C203.808 33.7885 201.515 32.9629 198.762 32.3207C196.836 31.8621 195.185 31.4034 193.992 30.9447C192.8 30.486 191.882 30.0274 191.24 29.5687C190.69 29.2017 190.231 28.6513 189.956 28.1009C189.681 27.5505 189.497 26.9084 189.406 26.2662C189.406 25.4406 189.589 24.7984 189.864 24.248C190.139 23.5142 190.598 23.0555 191.148 22.6885Z" fill="black"/>
<path d="M196.102 21.4966C197.203 21.4966 198.396 21.7718 199.68 22.2305C200.964 22.6891 202.249 23.3313 203.441 24.0652C204.725 24.8908 205.826 25.7164 206.927 26.7255L212.615 20.4875C211.33 19.0197 209.771 17.8272 207.936 16.7264C206.101 15.7173 204.175 14.8917 202.065 14.3412C199.955 13.7908 197.845 13.5156 195.552 13.5156C193.901 13.5156 192.249 13.6991 190.598 14.066L194.726 21.4966C195.185 21.4966 195.644 21.4966 196.102 21.4966Z" fill="#27A7B4"/>
<path d="M41.0697 0.0302734V17.5517C41.0697 19.9368 41.0697 22.2302 41.1614 24.3401C41.2531 26.45 41.2531 28.5599 41.3449 30.4864C41.4366 32.4128 41.5283 34.3392 41.7118 36.0822C41.8953 37.8252 41.987 39.5681 42.1705 41.2194C42.2622 41.678 42.2622 42.1367 42.3539 42.5954L10.7053 0.0302734H0.889648V32.3211L11.5309 37.4582C11.4392 28.193 11.3475 19.2947 11.2557 18.5608L41.8953 58.4656H51.8027V0.0302734H41.0697Z" fill="black"/>
<path d="M0.889648 58.5575H11.7144C11.7144 58.5575 11.6227 47.8245 11.5309 37.5502L0.889648 32.3211V58.5575Z" fill="#DA5381"/>
<path d="M225.89 40.1104H261.89V42.1104H225.89V40.1104Z" fill="black"/>
</svg>
