<svg width="366" height="95" viewBox="0 0 366 95" fill="none" xmlns="http://www.w3.org/2000/svg">
<path d="M120.39 82.7202H269.24V94.0794H120.39V82.7202Z" fill="#F5668F"/>
<path d="M159.2 33.4702C157.116 31.2819 154.615 29.5104 151.801 28.26C148.988 27.0095 145.862 26.3843 142.631 26.3843C138.88 26.3843 135.441 27.0095 132.315 28.3642C129.189 29.6146 126.48 31.4903 124.291 33.887C121.999 36.2837 120.332 39.0972 118.977 42.3275C117.726 45.5579 117.101 49.1008 117.101 53.0606C117.101 57.9582 118.248 62.3348 120.436 66.1903C122.728 70.0459 125.854 73.0678 129.814 75.2561C133.878 77.4444 138.463 78.5906 143.673 78.5906C145.966 78.5906 148.363 78.278 150.759 77.6528C153.156 77.0276 155.448 76.1939 157.637 75.0477C159.825 73.9014 161.805 72.5468 163.472 70.9837L157.637 62.96C155.344 64.9399 153.26 66.2945 151.28 67.024C149.3 67.7534 147.216 68.1702 144.82 68.1702C141.485 68.1702 138.567 67.545 136.066 66.1903C133.566 64.9399 131.586 63.0642 130.231 60.6675C129.293 59.0002 128.668 57.2288 128.46 55.2489H165.348L165.452 51.1849C165.556 47.642 165.035 44.4116 163.889 41.3897C162.847 38.1594 161.284 35.6585 159.2 33.4702ZM134.712 38.472C136.796 37.2215 139.401 36.7005 142.527 36.7005C144.507 36.7005 146.383 37.1173 148.05 37.951C149.717 38.7846 151.072 39.9308 152.218 41.4939C153.26 42.9528 153.885 44.7242 154.094 46.7041V47.2251H128.772C129.085 45.9747 129.397 44.8284 129.918 43.7864C130.96 41.3897 132.628 39.7224 134.712 38.472Z" fill="black"/>
<path d="M221.201 59.8335L210.156 35.0328H203.174L192.128 60.2503L181.812 27.4259L169.933 27.5301L186.71 77.5482H194.942L206.3 49.8298L218.075 77.5482H226.516L243.397 27.5301H231.413L221.201 59.8335Z" fill="black"/>
<path d="M262.675 36.804C263.3 36.3872 264.134 36.0746 265.072 35.762C265.593 35.6578 266.218 35.5536 266.947 35.4494L262.258 27.0088C261.737 27.113 261.216 27.2172 260.695 27.4256C258.403 28.1551 256.423 29.0929 254.756 30.4476C253.088 31.8022 251.734 33.3653 250.692 35.1367C249.754 36.9082 249.233 38.9923 249.233 41.1806C249.233 42.9521 249.545 44.6193 250.066 46.0782C250.587 47.6413 251.421 48.9959 252.463 50.1422C253.713 51.601 255.485 52.9557 257.777 54.1019C260.07 55.2482 262.883 56.2902 266.322 57.2281C268.51 57.7491 270.282 58.2701 271.637 58.7911C272.991 59.3122 274.033 59.729 274.659 60.25C275.805 61.1878 276.326 62.3341 276.326 63.8971C276.326 64.7308 276.117 65.4602 275.805 66.0854C275.492 66.7107 274.971 67.3359 274.346 67.8569C273.721 68.3779 272.991 68.7947 272.158 69.0032C271.324 69.2116 270.386 69.42 269.24 69.42C266.635 69.42 264.134 68.8989 261.841 67.9611C259.549 67.0233 257.361 65.4602 255.485 63.2719L247.878 69.8368C250.066 72.6503 252.984 74.7344 256.423 76.2975C259.966 77.7563 263.926 78.4857 268.302 78.4857C271.949 78.4857 275.18 77.8605 277.993 76.5059C280.911 75.1512 283.203 73.3797 284.871 70.983C286.538 68.6905 287.371 65.9812 287.371 62.9593C287.371 61.0836 287.163 59.4164 286.642 57.9575C286.121 56.3944 285.287 55.144 284.037 53.9977C282.786 52.6431 281.223 51.4968 279.139 50.4548C277.055 49.4127 274.45 48.4749 271.324 47.7455C269.136 47.2245 267.26 46.7034 265.905 46.1824C264.551 45.6614 263.509 45.1404 262.779 44.6193C262.154 44.2025 261.633 43.5773 261.32 42.9521C261.008 42.3268 260.799 41.5974 260.695 40.868C260.695 39.9301 260.904 39.2007 261.216 38.5755C261.529 37.7419 262.05 37.2208 262.675 36.804Z" fill="black"/>
<path d="M268.302 35.45C269.553 35.45 270.907 35.7627 272.366 36.2837C273.825 36.8047 275.284 37.5341 276.639 38.3678C278.097 39.3056 279.348 40.2434 280.598 41.3897L287.059 34.3038C285.6 32.6365 283.829 31.2819 281.745 30.0314C279.66 28.8852 277.472 27.9473 275.075 27.3221C272.679 26.6969 270.282 26.3843 267.677 26.3843C265.801 26.3843 263.926 26.5927 262.05 27.0095L266.739 35.45C267.26 35.45 267.781 35.45 268.302 35.45Z" fill="#03AAEA"/>
<path d="M92.1967 11.0659V30.9689C92.1967 33.6783 92.1967 36.2834 92.3009 38.6801C92.4051 41.0768 92.4051 43.4735 92.5093 45.6618C92.6135 47.85 92.7177 50.0383 92.9261 52.0182C93.1345 53.9981 93.2387 55.978 93.4471 57.8537C93.5513 58.3747 93.5513 58.8957 93.6555 59.4167L57.705 11.0659H46.5552V47.7458L58.6429 53.5813C58.5387 43.0566 58.4345 32.9488 58.3303 32.1152L93.1345 77.4441H104.389V11.0659H92.1967Z" fill="black"/>
<path d="M46.5552 77.5485H58.8513C58.8513 77.5485 58.7471 65.3566 58.6429 53.6858L46.5552 47.7458V77.5485Z" fill="#E3448E"/>
<circle cx="310.09" cy="74.6777" r="9.0874" fill="#ED71B8"/>
<rect x="333.365" y="9.46973" width="40.8933" height="40.8933" rx="2.27185" transform="rotate(37.4601 333.365 9.46973)" fill="#F7DF19"/>
<rect y="7.94678" width="24.8308" height="23.4215" rx="1.53691" transform="rotate(-16.625 0 7.94678)" fill="#6FB92E"/>
</svg>
