<svg width="221" height="44" viewBox="0 0 221 44" fill="none" xmlns="http://www.w3.org/2000/svg">
<g clip-path="url(#clip0_486_1063)">
<path d="M14.5237 39.4092C14.1344 38.5407 13.835 37.6424 13.5056 36.744C11.4992 31.3238 9.52276 25.9036 7.5164 20.4834C7.4565 20.3636 7.39661 20.2139 7.33672 20.0941C7.03726 19.2856 6.76775 18.507 6.46829 17.6985C6.079 16.6504 5.6897 15.6023 5.30041 14.5542C4.91111 13.536 4.55176 12.5178 4.19241 11.4997C3.80312 10.4216 3.38388 9.34359 2.99458 8.29548C2.60528 7.27732 2.24593 6.22922 1.88659 5.21106C1.49729 4.13302 1.10799 3.08491 0.718699 2.03681C0.479133 1.40795 0.239566 0.779085 0 0.090332C0.509079 0.090332 0.988211 0.090332 1.4374 0.090332C2.4855 0.090332 3.5336 0.090332 4.55176 0.090332C5.56992 0.090332 6.10894 0.479627 6.43835 1.43789C7.66612 4.79182 8.8939 8.14575 10.1217 11.4997C11.4093 15.0033 12.727 18.507 14.0146 22.0107C15.1526 25.0951 16.2905 28.2094 17.4285 31.2939C17.4584 31.3837 17.4883 31.4436 17.5782 31.5035C17.698 31.6233 17.6081 31.743 17.5782 31.8628C16.6199 34.3184 15.6617 36.744 14.7034 39.1696C14.6734 39.2894 14.6734 39.4092 14.5237 39.4092Z" fill="#DD6A96"/>
<path d="M41.7742 41.3259C41.7143 41.9547 41.0555 42.5237 40.3368 42.4937C39.2288 42.4638 38.1208 42.4638 36.9829 42.4937C36.6834 42.4937 36.6235 42.4039 36.6235 42.1344C36.6235 32.5817 36.6235 23.029 36.6235 13.4763C36.6235 10.6614 36.6235 7.81651 36.6235 5.0016C36.6235 3.80377 37.0428 2.75567 37.7914 1.85729C38.8096 0.629517 40.1272 0.0605469 41.7143 0.0605469C41.7742 0.18033 41.7443 0.300113 41.7443 0.419896C41.7443 13.9554 41.7443 27.5208 41.7443 41.0564C41.8042 41.1162 41.8042 41.236 41.7742 41.3259Z" fill="#112C44"/>
<path d="M132.989 39.9176C132.989 39.7978 132.989 39.6481 132.989 39.5283C132.989 26.5019 132.989 13.5054 132.989 0.47901C132.989 -0.000122346 132.989 -0.000122342 133.468 0.0298235C135.744 0.299336 137.451 1.79663 137.99 3.98267C138.05 4.22224 138.08 4.49175 138.11 4.76126C138.14 4.88104 138.14 5.03077 138.14 5.15056C138.14 16.5899 138.14 28.0591 138.14 39.4984C138.14 39.6182 138.17 39.7679 138.11 39.8877C137.96 40.0075 137.811 40.0075 137.631 40.0075C136.253 40.0075 134.846 40.0075 133.468 40.0075C133.289 40.0075 133.109 40.0374 132.989 39.9176Z" fill="#DD6A96"/>
<path d="M48.9614 42.4935C48.9614 35.007 48.9614 27.4906 48.9614 20.0042C48.9614 18.8363 49.201 17.7582 49.8897 16.8C50.6983 15.692 51.7763 15.0332 53.1538 14.8535C53.3635 14.8236 53.603 14.8236 53.8126 14.7936C54.0522 14.7637 54.1121 14.8835 54.0822 15.0931C54.0822 15.2428 54.0822 15.3925 54.0822 15.5123C54.0822 24.0169 54.0822 32.4916 54.0822 40.9962C54.0822 41.9245 53.7228 42.3737 52.9442 42.5534C51.6565 42.5833 50.3389 42.5534 49.0513 42.5534C49.0213 42.5234 48.9914 42.5234 48.9614 42.4935Z" fill="#112C44"/>
<path d="M14.5239 39.409C15.063 38.0614 15.602 36.7438 16.1111 35.3962C16.5902 34.1684 17.0693 32.9407 17.5485 31.7428C17.5784 31.6829 17.6083 31.6231 17.5784 31.5332C18.6864 28.7183 19.8243 25.8735 20.9323 23.0586C21.7409 21.0222 22.5195 18.956 23.328 16.9197C24.1964 14.7037 25.0948 12.4877 25.9632 10.2717C27.0413 7.54663 28.0894 4.82157 29.1674 2.0965C29.407 1.52753 29.5268 0.868721 30.0359 0.419534C30.2754 0.209913 30.5449 0.0601842 30.8144 0.0601842C31.5032 0.0302384 32.2219 0.0601842 32.9705 0.0601842C32.6411 0.868721 32.3417 1.64731 32.0422 2.4259C30.5749 6.16913 29.1075 9.91235 27.6102 13.6556C26.3825 16.8598 25.1247 20.0939 23.8371 23.358C22.3398 27.1911 20.8425 31.0241 19.3452 34.8572C18.357 37.3427 17.3688 39.8282 16.3806 42.3137C16.2608 42.6431 16.1111 42.9426 16.0212 43.272C15.9613 43.3019 15.9014 43.272 15.8715 43.2121C15.4522 41.9244 14.9132 40.6966 14.5239 39.409Z" fill="#112C44"/>
<path d="M69.2946 39.3192C68.9652 38.4508 68.6658 37.6123 68.3363 36.7439C67.9171 35.6359 67.5278 34.4979 67.1086 33.3899C66.8091 32.6113 66.5396 31.8028 66.2401 31.0242C65.8209 29.9162 65.4017 28.7783 64.9824 27.6703C64.683 26.8617 64.3835 26.0233 64.084 25.2147C63.6648 24.0768 63.2456 22.9388 62.8263 21.8009C62.5568 21.0523 62.2574 20.2737 61.9878 19.525C61.5686 18.3871 61.1194 17.2491 60.7301 16.1112C60.5804 15.7219 60.4007 15.3326 60.3408 14.9134C60.3708 14.9134 60.3708 14.8834 60.4007 14.8834C62.0777 14.8834 63.7546 14.8535 65.4316 14.8834C66.1503 15.0631 66.5396 15.5722 66.7792 16.231C68.0668 19.7646 69.3845 23.2982 70.6721 26.8318C71.1812 28.2393 71.7202 29.6467 72.2293 31.0242C72.2592 31.114 72.2892 31.1739 72.379 31.2338C72.4988 31.3536 72.4389 31.4734 72.379 31.5932C71.4208 34.0487 70.4924 36.5043 69.5342 38.9599C69.5342 39.1096 69.5342 39.3192 69.2946 39.3192Z" fill="#DD6A96"/>
<path d="M69.2944 39.3186C69.5041 39.079 69.534 38.7796 69.6538 38.5101C70.5821 36.1443 71.4805 33.7487 72.4088 31.3829C72.4387 31.3231 72.4387 31.2632 72.4387 31.2033C73.6366 28.2087 74.8045 25.1842 76.0023 22.1896C76.8108 20.1533 77.6194 18.117 78.4279 16.0507C78.7573 15.2122 79.2963 14.8828 80.1648 14.8828C80.7038 14.8828 81.2428 14.8828 81.7818 14.8828C81.8118 14.8828 81.8417 14.8828 81.9016 14.9128C78.2183 24.3756 74.4751 33.7786 70.7618 43.2714C70.2527 41.9538 69.7736 40.6362 69.2944 39.3186Z" fill="#112C44"/>
<path d="M132.989 39.918C134.696 39.918 136.403 39.918 138.08 39.918C138.11 39.888 138.11 39.888 138.14 39.918C138.259 39.918 138.409 39.918 138.529 39.918C145.057 39.918 151.555 39.918 158.084 39.918C158.413 39.918 158.503 39.9779 158.503 40.3073C158.473 40.8163 158.503 41.3254 158.173 41.7746C157.844 42.2537 157.365 42.4933 156.826 42.4933C150.537 42.4933 144.278 42.4933 137.99 42.4933C136.433 42.4933 134.876 42.4933 133.318 42.4933C133.049 42.4933 132.959 42.4334 132.959 42.134C132.989 41.3853 132.959 40.6367 132.989 39.918Z" fill="#112C44"/>
<path d="M51.5966 0.748844C51.6865 1.73706 52.0458 2.57554 52.6447 3.35413C53.5132 4.46212 54.6511 5.12093 56.0286 5.39044C56.1783 5.42039 56.358 5.42039 56.5377 5.42039C56.5676 5.42039 56.5676 5.45033 56.5976 5.45033C56.5676 5.45033 56.5676 5.48028 56.5377 5.48028C55.5495 5.60006 54.6212 5.86958 53.7827 6.46849C52.5849 7.33692 51.8662 8.50481 51.5667 9.91226C51.5367 10.0021 51.5367 10.062 51.5068 10.1518C51.4769 10.2117 51.4769 10.3016 51.4469 10.3914C51.387 10.062 51.3271 9.73258 51.2373 9.43313C51.1475 9.10372 51.0576 8.77432 50.8779 8.47486C50.7282 8.1754 50.5485 7.90589 50.3389 7.63638C49.4106 6.43855 48.2128 5.71985 46.7155 5.54017C46.6256 5.54017 46.5358 5.48028 46.446 5.45033C46.416 5.45033 46.416 5.42039 46.416 5.42039L46.446 5.39044C49.0512 5.15088 51.1475 3.11456 51.387 0.509277C51.6565 0.509277 51.5068 0.688952 51.5966 0.748844Z" fill="#DD6A96"/>
<path d="M41.7746 41.3257C41.7746 27.7004 41.7746 14.075 41.7746 0.479621C41.7746 0.329892 41.7746 0.180163 41.7446 0.000488281C41.8644 0.120271 41.8045 0.240055 41.8045 0.359838C41.8045 13.8953 41.8045 27.4308 41.8045 40.9663C41.8345 41.1161 41.8644 41.2359 41.7746 41.3257Z" fill="#FEFEFE"/>
<path d="M138.14 39.8886H138.11H138.08C138.08 28.1798 138.08 16.471 138.08 4.76221C138.2 4.91194 138.14 5.06167 138.14 5.21139C138.14 16.7705 138.14 28.3295 138.14 39.8886Z" fill="#FEFEFE"/>
<path d="M65.4614 14.8836C63.7545 14.8836 62.0476 14.8836 60.3706 14.9136C60.3706 14.7938 60.4604 14.8537 60.5203 14.8537C62.0775 14.8537 63.6646 14.8537 65.2218 14.8537C65.3117 14.8237 65.4015 14.7938 65.4614 14.8836Z" fill="#FEFEFE"/>
<path d="M48.9614 42.4932C49.9496 42.5531 50.9378 42.4932 51.8961 42.5231C52.2555 42.5231 52.6148 42.5231 52.9742 42.5231C52.8544 42.6129 52.7346 42.583 52.6148 42.583C51.5068 42.583 50.3988 42.583 49.3208 42.583C49.201 42.5531 49.0513 42.6129 48.9614 42.4932Z" fill="#FEFEFE"/>
<path d="M51.5965 0.748979C51.5067 0.689087 51.5666 0.569304 51.4468 0.539358C51.4468 0.389629 51.4468 0.269846 51.4468 0.120117C51.5366 0.299792 51.6265 0.509413 51.5965 0.748979Z" fill="#FEFEFE"/>
<path d="M89.8972 29.2869C89.8073 29.1372 89.8672 28.9575 89.8672 28.7778C89.957 28.9276 89.8972 29.1072 89.8972 29.2869Z" fill="#FEFEFE"/>
<path d="M46.506 5.42055C46.506 5.45049 46.506 5.45049 46.506 5.48044C46.3862 5.48044 46.2664 5.51039 46.1167 5.45049C46.2664 5.3906 46.3862 5.3906 46.506 5.42055Z" fill="#E9CADC"/>
<path d="M84.3577 27.9092C84.3278 28.029 84.3877 28.1787 84.2979 28.2985C84.3278 28.1487 84.2679 28.029 84.3577 27.9092Z" fill="#FEFEFE"/>
<path d="M84.3275 30.0361C84.3874 30.1559 84.3574 30.3056 84.3874 30.4254C84.2676 30.3056 84.3275 30.1559 84.3275 30.0361Z" fill="#FEFEFE"/>
<path d="M56.5679 5.4803C56.5679 5.45036 56.5679 5.45036 56.5679 5.42041C56.6577 5.42041 56.7775 5.42041 56.9272 5.42041C56.7775 5.51025 56.6577 5.4803 56.5679 5.4803Z" fill="#ECD0E1"/>
<path d="M189.227 38.3605C189.227 38.3006 189.197 38.2108 189.137 38.2108C189.047 38.1809 188.987 38.2707 188.958 38.3306C188.478 39.0493 187.79 39.4386 187.041 39.8279C186.203 40.2771 185.274 39.9477 184.765 39.229C184.226 38.4504 184.076 37.5819 184.106 36.6536C184.016 36.5338 184.076 36.3841 184.076 36.2344C184.076 31.473 184.076 26.7116 184.076 21.9502C184.046 21.6807 184.016 21.3813 183.957 21.1118C183.477 19.1054 182.16 17.7279 180.393 16.7996C178.896 15.991 177.249 15.7515 175.572 15.6317C175.422 15.6017 175.272 15.6616 175.123 15.5718C174.584 15.5718 174.045 15.5718 173.506 15.5718C173.386 15.6616 173.236 15.6017 173.116 15.6017C172.577 15.6616 172.068 15.6916 171.529 15.7814C169.972 15.991 168.445 16.3803 167.067 17.1589C165.959 17.7878 164.941 18.5065 164.132 19.4947C163.264 20.5428 162.815 21.6807 162.935 23.0283C163.024 24.1063 163.743 25.0945 164.671 25.3641C165.27 25.5437 165.899 25.5138 166.498 25.394C167.966 25.0646 168.804 24.2261 168.804 22.6989C168.804 22.0101 168.475 21.4412 168.055 20.9021C167.516 20.1834 167.606 19.5845 168.325 19.0455C169.613 18.0872 171.11 17.7279 172.697 17.668C173.026 17.6081 173.356 17.6081 173.655 17.668C173.955 17.6081 174.254 17.6979 174.524 17.7279C175.242 17.8177 175.901 18.0573 176.53 18.3867C177.099 18.6861 177.578 19.1353 178.057 19.5845C178.866 20.3931 179.255 21.3813 179.315 22.4893C179.345 23.747 179.315 25.0047 179.315 26.2624C179.315 26.4421 179.255 26.502 179.075 26.502C178.237 26.5918 177.369 26.6817 176.53 26.8015C175.123 27.0111 173.715 27.2207 172.308 27.4902C170.451 27.8795 168.594 28.3287 166.858 29.1372C165.42 29.796 164.103 30.6645 163.054 31.8922C162.096 33.0002 161.587 34.258 161.557 35.6654C161.557 36.6536 161.707 37.6718 162.066 38.63C162.366 39.4386 162.725 40.2172 163.354 40.8161C163.983 41.3851 164.731 41.7744 165.51 42.0439C166.618 42.4332 167.756 42.6128 168.924 42.6428C169.163 42.6727 169.403 42.6128 169.642 42.7027C169.762 42.7027 169.852 42.7027 169.972 42.7027C170.182 42.6128 170.421 42.6727 170.631 42.6428C174.284 42.5829 177.009 40.6664 179.405 38.091C179.584 38.5103 179.734 38.8996 179.914 39.2589C180.393 40.1872 180.932 41.0856 181.771 41.7145C182.549 42.2834 183.448 42.6128 184.436 42.6428C184.585 42.6727 184.735 42.6128 184.885 42.7027C184.975 42.7027 185.035 42.7027 185.124 42.7027C185.244 42.6128 185.394 42.6727 185.514 42.6727C185.963 42.6428 186.382 42.5529 186.771 42.4332C187.46 42.1936 188.149 41.8642 188.568 41.2353C189.227 40.4567 189.437 39.4386 189.227 38.3605ZM179.345 28.8378C179.315 29.4367 179.345 30.0655 179.345 30.6645C179.345 31.9222 179.405 33.1799 179.045 34.4077C178.057 37.7616 175.871 39.8279 172.457 40.5466C171.23 40.8161 169.972 40.7861 168.894 39.9477C167.427 38.7798 166.768 37.2525 166.917 35.3659C166.977 34.7071 167.067 34.0483 167.277 33.4494C167.666 32.2216 168.445 31.3233 169.613 30.7244C171.05 30.0057 172.577 29.6164 174.134 29.3169C175.721 28.9875 177.339 28.7779 178.926 28.5383C179.195 28.4485 179.345 28.4485 179.345 28.8378Z" fill="#112C44"/>
<path d="M184.107 22.4297C184.107 27.0413 184.107 31.653 184.107 36.2646C184.107 36.4143 184.077 36.5641 184.137 36.6839C184.137 36.624 184.137 36.594 184.137 36.5341C184.137 31.7727 184.137 27.0114 184.137 22.25C184.137 22.1601 184.167 22.0703 184.077 21.9805C184.107 22.1601 184.107 22.3099 184.107 22.4297Z" fill="#FEFEFE"/>
<path d="M184.137 36.714C184.077 36.5642 184.107 36.4145 184.107 36.2947C184.107 31.6831 184.107 27.0714 184.107 22.4598C184.107 22.31 184.107 22.1603 184.107 22.0405C184.107 26.8019 184.107 31.5633 184.107 36.3247C184.077 36.4145 184.047 36.5642 184.137 36.714Z" fill="#FEFEFE"/>
<path d="M172.697 17.7583C173.027 17.7583 173.356 17.7583 173.656 17.7583C173.326 17.6984 173.027 17.6984 172.697 17.7583Z" fill="#FEFEFE"/>
<path d="M172.697 17.7583C173.027 17.6984 173.356 17.6984 173.656 17.7583C173.326 17.6984 173.027 17.6984 172.697 17.7583Z" fill="#FEFEFE"/>
<path d="M168.984 42.793C169.224 42.9128 169.464 42.8229 169.703 42.8529C169.464 42.763 169.224 42.8529 168.984 42.793Z" fill="#FEFEFE"/>
<path d="M168.984 42.793C169.224 42.8529 169.464 42.763 169.703 42.8529C169.464 42.763 169.224 42.8229 168.984 42.793Z" fill="#FEFEFE"/>
<path d="M170.032 42.8529C170.242 42.8529 170.481 42.9128 170.691 42.793C170.481 42.8529 170.242 42.763 170.032 42.8529Z" fill="#FEFEFE"/>
<path d="M170.032 42.8529C170.242 42.763 170.481 42.8529 170.691 42.793C170.481 42.8229 170.242 42.763 170.032 42.8529Z" fill="#FEFEFE"/>
<path d="M175.572 15.6621C175.423 15.5423 175.273 15.6321 175.123 15.6022C175.273 15.692 175.423 15.6022 175.572 15.6621Z" fill="#FEFEFE"/>
<path d="M175.572 15.6615C175.423 15.6016 175.273 15.6914 175.123 15.6016C175.273 15.6914 175.423 15.6315 175.572 15.6615Z" fill="#FEFEFE"/>
<path d="M184.496 42.793C184.646 42.9128 184.796 42.8229 184.945 42.8529C184.796 42.793 184.646 42.8529 184.496 42.793Z" fill="#FEFEFE"/>
<path d="M184.496 42.793C184.646 42.8529 184.796 42.793 184.945 42.8529C184.825 42.763 184.646 42.8229 184.496 42.793Z" fill="#FEFEFE"/>
<path d="M173.536 15.6323C173.416 15.6323 173.267 15.5725 173.147 15.6623C173.267 15.6323 173.416 15.6623 173.536 15.6323Z" fill="#FEFEFE"/>
<path d="M185.574 42.793C185.454 42.8229 185.304 42.793 185.185 42.8229C185.304 42.8529 185.454 42.8828 185.574 42.793Z" fill="#FEFEFE"/>
<path d="M185.185 42.8522C185.304 42.7923 185.454 42.8522 185.574 42.8223C185.454 42.8223 185.304 42.7624 185.185 42.8522Z" fill="#FEFEFE"/>
<path d="M96.6055 42.793C97.1145 42.8828 97.5937 42.8828 98.1028 42.793C97.5937 42.8229 97.1145 42.8229 96.6055 42.793Z" fill="#FEFEFE"/>
<path d="M109.452 27.5498C109.452 27.43 109.512 27.2803 109.392 27.1904C109.452 27.3102 109.392 27.43 109.452 27.5498Z" fill="#FEFEFE"/>
<path d="M108.523 34.3486C108.404 34.2588 108.284 34.2588 108.164 34.3486C108.284 34.3187 108.404 34.3187 108.523 34.3486Z" fill="#FEFEFE"/>
<path d="M109.512 34.7371C109.183 34.6173 108.853 34.4975 108.524 34.3777C108.404 34.3777 108.284 34.3777 108.165 34.3777C107.745 34.4376 107.446 34.5873 107.206 34.9766C106.428 36.1146 105.619 37.2226 104.541 38.091C103.733 38.7498 102.864 39.3188 101.906 39.7081C100.109 40.3968 98.2526 40.5166 96.366 40.0674C94.7489 39.6781 93.4014 38.8696 92.2634 37.6418C91.395 36.6835 90.9159 35.5157 90.5865 34.2879C90.1373 32.6708 89.8977 30.9938 89.8977 29.3169C89.8079 29.1372 89.8977 28.9875 89.8678 28.8078C89.8678 28.5083 90.0774 28.6581 90.1972 28.6581C96.4558 28.6581 102.744 28.6581 109.003 28.6581C109.093 28.6581 109.183 28.6581 109.243 28.6581C109.392 28.688 109.452 28.5982 109.452 28.4485C109.452 28.149 109.452 27.8795 109.452 27.58C109.362 27.4602 109.422 27.3405 109.392 27.2207C109.333 26.7715 109.303 26.3223 109.243 25.8731C108.973 23.8069 108.284 21.9203 107.176 20.1834C105.919 18.2369 104.242 16.7396 102.086 15.8413C99.8397 14.9129 97.5339 14.7632 95.1682 15.0627C92.6228 15.3921 90.4966 16.53 88.61 18.207C88.1609 18.6262 87.7716 19.1054 87.3823 19.5845C86.5138 20.6027 85.885 21.7705 85.4058 22.9684C84.777 24.5555 84.4476 26.2025 84.3577 27.9094C84.2979 28.0292 84.3577 28.1789 84.2979 28.2987C84.2979 28.8677 84.2979 29.4666 84.2979 30.0356C84.3577 30.1554 84.2979 30.3051 84.3577 30.4249C84.4176 31.6527 84.6572 32.8505 85.0165 34.0184C85.885 36.6536 87.4422 38.7798 89.6581 40.4268C90.9458 41.385 92.3533 42.0438 93.9105 42.4331C94.7789 42.6428 95.6773 42.7925 96.5756 42.8224C97.0847 42.8224 97.5638 42.8224 98.0729 42.8224C98.6718 42.7625 99.3007 42.7625 99.8996 42.6428C102.056 42.1936 104.002 41.3551 105.709 39.9177C107.326 38.5402 108.554 36.8632 109.602 35.0365C109.692 34.8269 109.662 34.767 109.512 34.7371ZM89.8678 25.8432C89.9277 24.286 90.0774 22.7587 90.7362 21.3513C91.5447 19.6144 92.6827 18.1471 94.3896 17.2787C96.905 15.991 99.9595 16.5899 101.846 18.6861C102.715 19.6743 103.493 20.6925 103.763 22.04C103.912 22.8186 103.972 23.5972 103.882 24.4058C103.733 25.4539 102.834 26.2025 101.696 26.2025C99.7798 26.2025 97.8932 26.2025 95.9767 26.2025C94.0602 26.2025 92.1137 26.2025 90.1972 26.2025C89.8977 26.1726 89.8378 26.1426 89.8678 25.8432Z" fill="#112C44"/>
<path d="M98.1028 42.793C97.5937 42.793 97.1145 42.793 96.6055 42.793C97.1145 42.8229 97.5937 42.8229 98.1028 42.793Z" fill="#112C44"/>
<path d="M109.452 27.5498C109.392 27.43 109.452 27.3102 109.392 27.1904C109.422 27.3102 109.392 27.43 109.452 27.5498Z" fill="#112C44"/>
<path d="M108.164 34.3481C108.284 34.3481 108.404 34.3481 108.523 34.3481C108.404 34.3182 108.284 34.3182 108.164 34.3481Z" fill="#112C44"/>
<path d="M220.82 26.4727C220.311 23.2386 218.963 20.3937 216.598 18.0879C214.022 15.6024 210.908 14.4345 207.314 14.8238C204.619 15.1233 202.314 16.3211 200.337 18.1777C199.918 18.597 199.529 19.0162 199.079 19.5253C199.079 19.3157 199.079 19.1959 199.079 19.0462C199.079 14.4645 199.079 9.88276 199.079 5.331C199.079 4.88181 199.049 4.43263 198.96 4.01339C198.48 1.67761 196.414 0.0904863 194.258 -0.0292969C193.989 -0.0292969 193.929 0.0305947 193.929 0.300107C193.929 13.8955 193.929 27.461 193.929 41.0563C193.929 41.8349 194.468 42.5237 195.336 42.4638C195.755 42.4338 196.145 42.4638 196.564 42.4638C197.402 42.4338 198.241 42.5237 199.079 42.4338C199.139 41.6253 199.079 40.7868 199.109 39.9483C199.109 39.7986 199.109 39.6788 199.109 39.5291C199.259 39.5591 199.349 39.6489 199.379 39.7387C199.648 40.2179 200.127 40.4874 200.517 40.8467C201.116 41.3857 201.804 41.7451 202.523 42.1044C203.182 42.4039 203.871 42.6135 204.589 42.7633C205.308 42.913 206.027 42.9729 206.746 43.0028C206.985 43.0028 207.225 43.0028 207.464 43.0028C208.123 42.9729 208.782 42.9429 209.441 42.8531C210.728 42.6734 211.956 42.3141 213.124 41.805C215.55 40.7269 217.466 39.0799 218.874 36.804C219.922 35.1271 220.551 33.3004 220.85 31.324C220.91 30.9047 220.88 30.4555 221.06 30.0662C221.06 29.9764 221.06 29.8866 221.06 29.7668C220.91 29.5272 221 29.2876 221 29.0481C221 28.7187 220.91 28.3593 221.06 28.0299C221.06 27.97 221.06 27.9401 221.06 27.8802C220.85 27.431 220.88 26.9519 220.82 26.4727ZM214.981 28.9882C214.981 31.6534 214.741 34.0191 213.903 36.295C213.393 37.6425 212.675 38.8404 211.567 39.7687C210.04 41.0563 208.273 41.4157 206.326 41.266C205.009 41.1462 203.811 40.7868 202.733 40.0082C201.235 38.9302 200.427 37.403 199.888 35.696C199.169 33.3303 199.049 30.8748 199.109 28.4192C199.169 26.2631 199.529 24.1669 200.397 22.1905C201.176 20.4237 202.284 18.8964 204.05 18.028C207.015 16.5607 211.357 17.0698 213.423 21.0825C214.172 22.5498 214.561 24.137 214.801 25.754C214.921 26.892 215.011 28.0599 214.981 28.9882Z" fill="#112C44"/>
<path d="M221 29.7662C221 29.1972 221 28.6282 221 28.0293C220.94 28.6282 220.94 29.1972 221 29.7662Z" fill="#6D655F"/>
<path d="M220.94 29.0475C220.94 29.287 220.85 29.5266 221 29.7662C220.94 29.1972 220.94 28.6282 221 28.0293C220.85 28.3587 220.94 28.7181 220.94 29.0475Z" fill="#6D655F"/>
<path d="M206.716 43.002C206.955 43.0618 207.195 43.0918 207.435 43.002C207.195 43.0319 206.955 43.0319 206.716 43.002Z" fill="#FEFEFE"/>
<path d="M207.435 43.002C207.195 43.002 206.955 43.002 206.716 43.002C206.955 43.0319 207.195 43.0319 207.435 43.002Z" fill="#FEFEFE"/>
<path d="M211.867 29.4066C209.561 29.2269 207.524 27.1906 207.195 24.7949C207.165 24.7949 207.105 24.7949 207.075 24.7949C207.045 24.9447 207.015 25.0944 206.985 25.2441C206.506 27.4302 204.53 29.2269 202.404 29.4066C202.344 29.4365 202.314 29.4964 202.254 29.5264C203.092 29.5862 203.841 29.8558 204.53 30.3049C205.997 31.2333 206.866 32.5509 207.045 34.2877C207.075 34.2877 207.135 34.2877 207.165 34.2877C207.315 31.922 209.561 29.6761 211.986 29.5563C211.956 29.4964 211.926 29.4665 211.867 29.4066C211.867 29.4365 211.867 29.4365 211.867 29.4066Z" fill="#DD6A96"/>
<path d="M207.075 34.2881C207.075 34.4977 207.075 34.6774 207.075 34.887C207.255 34.7073 207.195 34.4977 207.195 34.2881C207.165 34.348 207.105 34.348 207.075 34.2881Z" fill="#F1DDE9"/>
<path d="M207.195 34.2881C207.165 34.2881 207.105 34.2881 207.075 34.2881C207.105 34.348 207.165 34.348 207.195 34.2881Z" fill="#F1DDE9"/>
<path d="M202.404 29.4069C202.164 29.3471 201.985 29.4668 201.775 29.5267C201.955 29.5267 202.104 29.5267 202.284 29.5267C202.224 29.4069 202.374 29.4668 202.404 29.4069Z" fill="#EACDDE"/>
<path d="M202.254 29.5568C202.314 29.5268 202.344 29.467 202.404 29.437C202.374 29.467 202.224 29.4071 202.254 29.5568Z" fill="#EACDDE"/>
<path d="M207.105 24.1069C207.015 24.2866 207.045 24.4064 207.045 24.5561C207.075 24.5561 207.135 24.5561 207.165 24.5561C207.195 24.4064 207.255 24.2567 207.105 24.1069Z" fill="#F0DBE8"/>
<path d="M211.867 29.4074C211.897 29.4673 212.046 29.3774 212.016 29.5272C212.166 29.5272 212.316 29.5571 212.496 29.4972C212.256 29.4373 212.076 29.3774 211.867 29.4074Z" fill="#EBCDDF"/>
<path d="M211.867 29.437C211.927 29.467 211.957 29.5268 212.016 29.5568C212.046 29.4071 211.897 29.467 211.867 29.437Z" fill="#EBCDDF"/>
<path d="M207.195 24.8248C207.195 24.735 207.195 24.6452 207.195 24.5254C207.165 24.5553 207.105 24.5553 207.075 24.5254C207.075 24.6152 207.075 24.7051 207.075 24.8248C207.105 24.765 207.165 24.765 207.195 24.8248Z" fill="#DCA4C4"/>
<path d="M207.075 24.8247C207.105 24.8247 207.165 24.8247 207.195 24.8247C207.165 24.7648 207.105 24.7648 207.075 24.8247Z" fill="#DCA4C4"/>
<path d="M207.195 24.5254C207.165 24.5254 207.105 24.5254 207.075 24.5254C207.105 24.5553 207.165 24.5553 207.195 24.5254Z" fill="#DCA4C4"/>
</g>
<defs>
<clipPath id="clip0_486_1063">
<rect width="221" height="43.2717" fill="white"/>
</clipPath>
</defs>
</svg>
