<svg width="30" height="30" viewBox="0 0 30 30" fill="none" xmlns="http://www.w3.org/2000/svg">
<mask id="path-1-inside-1_1001_2418" fill="white">
<path fill-rule="evenodd" clip-rule="evenodd" d="M15 30C23.2843 30 30 23.2843 30 15C30 6.71573 23.2843 0 15 0C6.71573 0 0 6.71573 0 15C0 23.2843 6.71573 30 15 30ZM12.3929 7L16.2956 12.8869L21.1786 7H22.5714L16.9143 13.8202L23 23H18.3929L14.3995 16.8521L9.39286 22.8881H8L13.7878 15.9104L8 7H12.3929ZM11.9438 7.8951H9.61715L18.8472 22.1049H21.3641L11.9438 7.8951Z"/>
</mask>
<path fill-rule="evenodd" clip-rule="evenodd" d="M15 30C23.2843 30 30 23.2843 30 15C30 6.71573 23.2843 0 15 0C6.71573 0 0 6.71573 0 15C0 23.2843 6.71573 30 15 30ZM12.3929 7L16.2956 12.8869L21.1786 7H22.5714L16.9143 13.8202L23 23H18.3929L14.3995 16.8521L9.39286 22.8881H8L13.7878 15.9104L8 7H12.3929ZM11.9438 7.8951H9.61715L18.8472 22.1049H21.3641L11.9438 7.8951Z" fill="#E06897"/>
<path d="M16.2956 12.8869L15.4621 13.4395L16.2059 14.5614L17.0653 13.5254L16.2956 12.8869ZM12.3929 7L13.2263 6.44745L12.9297 6H12.3929V7ZM21.1786 7V6H20.7088L20.4089 6.36158L21.1786 7ZM22.5714 7L23.3411 7.63842L24.7001 6H22.5714V7ZM16.9143 13.8202L16.1446 13.1818L15.6703 13.7536L16.0808 14.3728L16.9143 13.8202ZM23 23V24H24.8627L23.8335 22.4474L23 23ZM18.3929 23L17.5542 23.5447L17.85 24H18.3929V23ZM14.3995 16.8521L15.2381 16.3074L14.4976 15.1674L13.6298 16.2137L14.3995 16.8521ZM9.39286 22.8881V23.8881H9.86263L10.1625 23.5265L9.39286 22.8881ZM8 22.8881L7.23032 22.2497L5.87131 23.8881H8V22.8881ZM13.7878 15.9104L14.5574 16.5488L15.0271 15.9826L14.6264 15.3656L13.7878 15.9104ZM8 7V6H6.158L7.16139 7.54472L8 7ZM9.61715 7.8951V6.8951H7.77516L8.77854 8.43983L9.61715 7.8951ZM11.9438 7.8951L12.7772 7.34255L12.4806 6.8951H11.9438V7.8951ZM18.8472 22.1049L18.0086 22.6496L18.3043 23.1049H18.8472V22.1049ZM21.3641 22.1049V23.1049H23.2268L22.1976 21.5523L21.3641 22.1049ZM29 15C29 22.732 22.732 29 15 29V31C23.8366 31 31 23.8366 31 15H29ZM15 1C22.732 1 29 7.26801 29 15H31C31 6.16344 23.8366 -1 15 -1V1ZM1 15C1 7.26801 7.26801 1 15 1V-1C6.16344 -1 -1 6.16344 -1 15H1ZM15 29C7.26801 29 1 22.732 1 15H-1C-1 23.8366 6.16344 31 15 31V29ZM17.1291 12.3344L13.2263 6.44745L11.5594 7.55255L15.4621 13.4395L17.1291 12.3344ZM20.4089 6.36158L15.5259 12.2485L17.0653 13.5254L21.9483 7.63842L20.4089 6.36158ZM22.5714 6H21.1786V8H22.5714V6ZM17.684 14.4587L23.3411 7.63842L21.8017 6.36158L16.1446 13.1818L17.684 14.4587ZM23.8335 22.4474L17.7478 13.2677L16.0808 14.3728L22.1665 23.5526L23.8335 22.4474ZM18.3929 24H23V22H18.3929V24ZM13.5609 17.3968L17.5542 23.5447L19.2315 22.4553L15.2381 16.3074L13.5609 17.3968ZM10.1625 23.5265L15.1692 17.4905L13.6298 16.2137L8.62317 22.2497L10.1625 23.5265ZM8 23.8881H9.39286V21.8881H8V23.8881ZM13.0181 15.2719L7.23032 22.2497L8.76968 23.5265L14.5574 16.5488L13.0181 15.2719ZM7.16139 7.54472L12.9491 16.4551L14.6264 15.3656L8.83861 6.45528L7.16139 7.54472ZM12.3929 6H8V8H12.3929V6ZM9.61715 8.89511H11.9438V6.8951H9.61715V8.89511ZM19.6858 21.5602L10.4558 7.35038L8.77854 8.43983L18.0086 22.6496L19.6858 21.5602ZM21.3641 21.1049H18.8472V23.1049H21.3641V21.1049ZM11.1103 8.44766L20.5306 22.6574L22.1976 21.5523L12.7772 7.34255L11.1103 8.44766Z" fill="#E06897" mask="url(#path-1-inside-1_1001_2418)"/>
</svg>
