<svg width="32" height="32" viewBox="0 0 32 32" fill="none" xmlns="http://www.w3.org/2000/svg">
<path fill-rule="evenodd" clip-rule="evenodd" d="M13.3929 8L17.2956 13.8869L22.1786 8H23.5714L17.9143 14.8202L24 24H19.3929L15.3995 17.8521L10.3929 23.8881H9L14.7878 16.9104L9 8H13.3929ZM12.9438 8.8951H10.6172L19.8472 23.1049H22.3641L12.9438 8.8951Z" fill="white"/>
<path fill-rule="evenodd" clip-rule="evenodd" d="M31 16C31 24.2843 24.2843 31 16 31C7.71573 31 1 24.2843 1 16C1 7.71573 7.71573 1 16 1C24.2843 1 31 7.71573 31 16ZM30 16C30 23.732 23.732 30 16 30C8.26801 30 2 23.732 2 16C2 8.26801 8.26801 2 16 2C23.732 2 30 8.26801 30 16Z" fill="white"/>
<path fill-rule="evenodd" clip-rule="evenodd" d="M13.3929 8L17.2956 13.8869L22.1786 8H23.5714L17.9143 14.8202L24 24H19.3929L15.3995 17.8521L10.3929 23.8881H9L14.7878 16.9104L9 8H13.3929ZM12.9438 8.8951H10.6172L19.8472 23.1049H22.3641L12.9438 8.8951Z" stroke="white" stroke-width="0.3"/>
<path fill-rule="evenodd" clip-rule="evenodd" d="M31 16C31 24.2843 24.2843 31 16 31C7.71573 31 1 24.2843 1 16C1 7.71573 7.71573 1 16 1C24.2843 1 31 7.71573 31 16ZM30 16C30 23.732 23.732 30 16 30C8.26801 30 2 23.732 2 16C2 8.26801 8.26801 2 16 2C23.732 2 30 8.26801 30 16Z" stroke="white" stroke-width="0.3"/>
</svg>
