<svg width="30" height="30" viewBox="0 0 30 30" fill="none" xmlns="http://www.w3.org/2000/svg">
<path fill-rule="evenodd" clip-rule="evenodd" d="M12.7778 12.5887C12.7778 12.0705 13.4059 11.7505 13.8996 12.0171L18.3649 14.4283C18.8444 14.6873 18.8445 15.3127 18.3649 15.5717L13.8996 17.9829C13.4059 18.2495 12.7778 17.9295 12.7778 17.4113V12.5887ZM17.9838 15L13.5185 12.5887V17.4113L17.9838 15Z" fill="white"/>
<path fill-rule="evenodd" clip-rule="evenodd" d="M6.48148 9C5.66328 9 5 9.59695 5 10.3333V19.6667C5 20.403 5.66328 21 6.48148 21H23.5185C24.3367 21 25 20.403 25 19.6667V10.3333C25 9.59695 24.3367 9 23.5185 9H6.48148ZM24.2593 10.3333C24.2593 9.96514 23.9276 9.66667 23.5185 9.66667H6.48148C6.07238 9.66667 5.74074 9.96514 5.74074 10.3333V19.6667C5.74074 20.0349 6.07238 20.3333 6.48148 20.3333H23.5185C23.9276 20.3333 24.2593 20.0349 24.2593 19.6667V10.3333Z" fill="white"/>
<path fill-rule="evenodd" clip-rule="evenodd" d="M30 15C30 23.2843 23.2843 30 15 30C6.71573 30 0 23.2843 0 15C0 6.71573 6.71573 0 15 0C23.2843 0 30 6.71573 30 15ZM29 15C29 22.732 22.732 29 15 29C7.26801 29 1 22.732 1 15C1 7.26801 7.26801 1 15 1C22.732 1 29 7.26801 29 15Z" fill="white"/>
</svg>
