<svg width="30" height="30" viewBox="0 0 30 30" fill="none" xmlns="http://www.w3.org/2000/svg">
<mask id="path-1-inside-1_1001_2415" fill="white">
<path fill-rule="evenodd" clip-rule="evenodd" d="M15 30C23.2843 30 30 23.2843 30 15C30 6.71573 23.2843 0 15 0C6.71573 0 0 6.71573 0 15C0 23.2843 6.71573 30 15 30ZM6.48148 9C5.66328 9 5 9.59695 5 10.3333V19.6667C5 20.403 5.66328 21 6.48148 21H23.5185C24.3367 21 25 20.403 25 19.6667V10.3333C25 9.59695 24.3367 9 23.5185 9H6.48148ZM24.2593 10.3333C24.2593 9.96514 23.9276 9.66667 23.5185 9.66667H6.48148C6.07238 9.66667 5.74074 9.96514 5.74074 10.3333V19.6667C5.74074 20.0349 6.07238 20.3333 6.48148 20.3333H23.5185C23.9276 20.3333 24.2593 20.0349 24.2593 19.6667V10.3333ZM12.7778 12.5887C12.7778 12.0705 13.4059 11.7505 13.8996 12.0171L18.3649 14.4283C18.8444 14.6873 18.8445 15.3127 18.3649 15.5717L13.8996 17.9829C13.4059 18.2495 12.7778 17.9295 12.7778 17.4113V12.5887Z"/>
</mask>
<path fill-rule="evenodd" clip-rule="evenodd" d="M15 30C23.2843 30 30 23.2843 30 15C30 6.71573 23.2843 0 15 0C6.71573 0 0 6.71573 0 15C0 23.2843 6.71573 30 15 30ZM6.48148 9C5.66328 9 5 9.59695 5 10.3333V19.6667C5 20.403 5.66328 21 6.48148 21H23.5185C24.3367 21 25 20.403 25 19.6667V10.3333C25 9.59695 24.3367 9 23.5185 9H6.48148ZM24.2593 10.3333C24.2593 9.96514 23.9276 9.66667 23.5185 9.66667H6.48148C6.07238 9.66667 5.74074 9.96514 5.74074 10.3333V19.6667C5.74074 20.0349 6.07238 20.3333 6.48148 20.3333H23.5185C23.9276 20.3333 24.2593 20.0349 24.2593 19.6667V10.3333ZM12.7778 12.5887C12.7778 12.0705 13.4059 11.7505 13.8996 12.0171L18.3649 14.4283C18.8444 14.6873 18.8445 15.3127 18.3649 15.5717L13.8996 17.9829C13.4059 18.2495 12.7778 17.9295 12.7778 17.4113V12.5887Z" fill="#E06897"/>
<path d="M13.8996 12.0171L14.3748 11.1372H14.3748L13.8996 12.0171ZM18.3649 14.4283L17.8898 15.3082L18.3649 14.4283ZM18.3649 15.5717L17.8898 14.6918L17.8898 14.6918L18.3649 15.5717ZM13.8996 17.9829L14.3748 18.8628L13.8996 17.9829ZM29 15C29 22.732 22.732 29 15 29V31C23.8366 31 31 23.8366 31 15H29ZM15 1C22.732 1 29 7.26801 29 15H31C31 6.16344 23.8366 -1 15 -1V1ZM1 15C1 7.26801 7.26801 1 15 1V-1C6.16344 -1 -1 6.16344 -1 15H1ZM15 29C7.26801 29 1 22.732 1 15H-1C-1 23.8366 6.16344 31 15 31V29ZM6 10.3333C6 10.2776 6.02293 10.2058 6.10288 10.1338C6.18452 10.0603 6.31559 10 6.48148 10V8C5.21271 8 4 8.94817 4 10.3333H6ZM6 19.6667V10.3333H4V19.6667H6ZM6.48148 20C6.31559 20 6.18452 19.9397 6.10288 19.8662C6.02293 19.7942 6 19.7224 6 19.6667H4C4 21.0518 5.21271 22 6.48148 22V20ZM23.5185 20H6.48148V22H23.5185V20ZM24 19.6667C24 19.7224 23.9771 19.7942 23.8971 19.8662C23.8155 19.9397 23.6844 20 23.5185 20V22C24.7873 22 26 21.0518 26 19.6667H24ZM24 10.3333V19.6667H26V10.3333H24ZM23.5185 10C23.6844 10 23.8155 10.0603 23.8971 10.1338C23.9771 10.2058 24 10.2776 24 10.3333H26C26 8.94817 24.7873 8 23.5185 8V10ZM6.48148 10H23.5185V8H6.48148V10ZM23.5185 10.6667C23.4799 10.6667 23.4257 10.6524 23.3733 10.6052C23.3192 10.5565 23.2593 10.4617 23.2593 10.3333H25.2593C25.2593 9.31636 24.3782 8.66667 23.5185 8.66667V10.6667ZM6.48148 10.6667H23.5185V8.66667H6.48148V10.6667ZM6.74074 10.3333C6.74074 10.4617 6.68076 10.5565 6.62666 10.6052C6.57425 10.6524 6.52014 10.6667 6.48148 10.6667V8.66667C5.62181 8.66667 4.74074 9.31636 4.74074 10.3333H6.74074ZM6.74074 19.6667V10.3333H4.74074V19.6667H6.74074ZM6.48148 19.3333C6.52014 19.3333 6.57425 19.3476 6.62666 19.3948C6.68076 19.4435 6.74074 19.5383 6.74074 19.6667H4.74074C4.74074 20.6836 5.62181 21.3333 6.48148 21.3333V19.3333ZM23.5185 19.3333H6.48148V21.3333H23.5185V19.3333ZM23.2593 19.6667C23.2593 19.5383 23.3192 19.4435 23.3733 19.3948C23.4257 19.3476 23.4799 19.3333 23.5185 19.3333V21.3333C24.3782 21.3333 25.2593 20.6836 25.2593 19.6667H23.2593ZM23.2593 10.3333V19.6667H25.2593V10.3333H23.2593ZM14.3748 11.1372C13.817 10.836 13.1883 10.8686 12.6995 11.1176C12.2089 11.3676 11.7778 11.8876 11.7778 12.5887H13.7778C13.7778 12.7717 13.6607 12.8725 13.6076 12.8996C13.5563 12.9257 13.4885 12.9315 13.4245 12.897L14.3748 11.1372ZM18.8401 13.5484L14.3748 11.1372L13.4245 12.897L17.8898 15.3082L18.8401 13.5484ZM18.8401 16.4516C19.3947 16.1521 19.7246 15.5981 19.7246 15C19.7246 14.4019 19.3947 13.8479 18.8401 13.5484L17.8898 15.3082C17.8147 15.2677 17.7246 15.1559 17.7246 15C17.7246 14.8441 17.8147 14.7323 17.8898 14.6918L18.8401 16.4516ZM14.3748 18.8628L18.8401 16.4516L17.8898 14.6918L13.4245 17.103L14.3748 18.8628ZM11.7778 17.4113C11.7778 18.1124 12.2089 18.6324 12.6995 18.8824C13.1883 19.1314 13.817 19.164 14.3748 18.8628L13.4245 17.103C13.4885 17.0685 13.5563 17.0743 13.6076 17.1004C13.6607 17.1275 13.7778 17.2283 13.7778 17.4113H11.7778ZM11.7778 12.5887V17.4113H13.7778V12.5887H11.7778Z" fill="#E06897" mask="url(#path-1-inside-1_1001_2415)"/>
</svg>
